if (_typeface_js && _typeface_js.loadFace) _typeface_js.loadFace({"glyphs":{"0":{"ha":763,"x_min":0,"x_max":0,"o":"m 524 1014 b 0 243 169 1014 0 465 b 236 -18 0 97 74 -18 b 760 753 590 -18 760 536 b 524 1014 760 894 688 1014 z m 249 139 b 192 219 229 139 192 150 b 515 857 192 375 385 857 b 569 776 547 857 569 828 b 249 139 569 621 375 139 z "},"1":{"ha":615,"x_min":0,"x_max":0,"o":"m 697 996 l 482 996 b 25 468 482 996 317 742 l 110 372 b 317 585 183 443 253 517 l 81 0 l 296 0 z "},"2":{"ha":781,"x_min":0,"x_max":0,"o":"m 806 779 b 525 1014 806 899 729 1014 b 138 613 222 1014 138 760 l 353 613 b 506 846 353 729 418 846 b 578 760 556 846 578 804 b 335 440 578 653 458 536 b -12 210 175 317 -12 210 l -97 0 l 547 0 l 628 201 l 308 201 b 435 289 308 201 426 282 b 806 779 579 390 806 572 z "},"3":{"ha":778,"x_min":0,"x_max":0,"o":"m 793 793 b 533 1014 793 829 792 1014 b 149 675 261 1014 168 813 l 363 675 b 503 846 376 763 418 846 b 578 775 575 846 578 786 b 322 613 578 753 567 613 l 257 451 b 456 356 289 454 456 476 b 278 150 456 281 392 150 b 243 396 147 150 196 319 l 19 396 b 260 -18 -51 258 -62 -18 b 663 357 543 -18 663 200 b 560 533 663 447 624 503 b 793 793 726 586 793 697 z "},"4":{"ha":815,"x_min":0,"x_max":0,"o":"m 319 244 l 221 0 l 436 0 l 535 244 b 785 376 713 244 785 376 l 697 471 b 613 439 697 471 671 446 l 838 996 l 540 996 l 31 435 l -47 244 z m 211 435 l 543 800 l 396 435 z "},"5":{"ha":793,"x_min":0,"x_max":0,"o":"m 604 756 b 872 896 765 756 829 836 l 785 996 b 647 944 753 971 707 944 b 296 996 603 944 296 996 l 86 482 l 283 433 b 431 557 331 524 388 557 b 492 471 472 557 492 529 b 281 147 492 344 389 147 b 246 376 200 147 189 256 l 21 376 b 263 -18 -40 219 -33 -18 b 710 461 596 -18 710 300 b 506 700 710 575 654 700 b 358 653 422 700 358 653 l 408 778 b 604 756 408 778 563 756 z "},"6":{"ha":779,"x_min":0,"x_max":0,"o":"m 272 -18 b 686 439 513 -18 686 238 b 490 649 686 557 628 649 b 322 594 419 649 364 624 b 532 849 390 738 458 849 b 550 676 607 849 575 732 l 772 676 b 550 1014 828 885 728 1014 b 14 250 199 1014 14 493 b 272 -18 14 -6 218 -18 z m 413 504 b 476 426 454 504 476 472 b 274 147 476 329 374 147 b 214 231 247 147 214 160 b 249 400 214 275 226 332 b 413 504 294 458 361 504 z "},"7":{"ha":686,"x_min":0,"x_max":0,"o":"m 739 996 b 601 944 707 971 661 944 b 214 996 557 944 214 996 l 68 632 l 283 632 l 350 800 b 503 785 410 793 472 785 b 553 789 526 785 542 788 b 15 0 390 589 132 285 l 267 0 b 819 904 449 413 711 756 z "},"8":{"ha":788,"x_min":0,"x_max":0,"o":"m 556 1014 b 185 692 281 1014 185 826 b 240 553 185 590 238 554 b -33 219 61 510 -33 361 b 271 -18 -33 47 104 -18 b 683 354 572 -18 683 200 b 604 521 683 479 608 518 b 824 807 747 568 824 693 b 556 1014 824 910 760 1014 z m 281 146 b 189 233 238 146 189 167 b 372 443 189 321 268 443 b 461 353 424 443 461 414 b 281 146 461 265 383 146 z m 474 624 b 413 692 440 624 413 646 b 539 849 413 760 471 849 b 600 781 575 849 600 825 b 474 624 600 714 542 624 z "},"9":{"ha":746,"x_min":0,"x_max":0,"o":"m 281 347 b 447 400 351 347 404 372 b 240 147 375 246 306 147 b 221 319 158 147 200 278 l -1 319 b 219 -18 -58 138 32 -18 b 756 746 572 -18 756 503 b 499 1014 756 1001 553 1014 b 83 557 258 1014 85 758 b 281 347 83 439 143 347 z m 497 849 b 557 765 524 849 557 836 b 522 594 557 719 543 664 b 358 492 476 539 408 492 b 293 569 317 492 293 524 b 497 849 293 667 396 849 z "},"\u0000":{"ha":0,"x_min":0,"x_max":0,"o":""},"\r":{"ha":528,"x_min":0,"x_max":0,"o":""}," ":{"ha":347,"x_min":0,"x_max":0,"o":""},"!":{"ha":565,"x_min":0,"x_max":0,"o":"m 1035 510 l 1078 528 b 1078 553 1094 535 1094 546 l 1035 571 b 1031 601 1017 578 1017 592 l 1069 628 b 1065 654 1085 640 1083 650 l 1018 663 b 1008 692 999 665 996 679 l 1042 728 b 1031 751 1053 740 1050 751 l 982 749 b 968 776 964 747 957 761 l 993 817 b 978 836 1003 833 996 842 l 931 826 b 910 850 914 821 904 832 l 925 893 b 907 913 932 913 924 919 l 864 890 b 838 908 849 882 836 890 l 844 956 b 824 969 846 974 838 981 l 785 940 b 756 953 771 929 757 933 l 753 1001 b 729 1008 751 1019 740 1022 l 697 972 b 667 979 685 957 672 961 l 653 1025 b 628 1026 649 1042 636 1043 l 604 985 b 594 974 603 979 600 976 b 608 954 593 965 596 960 l 651 936 b 651 911 671 929 671 917 l 608 892 b 604 860 592 885 590 872 l 644 833 b 640 810 660 824 657 813 l 593 801 b 576 781 579 799 572 789 b 700 469 650 743 700 608 l 719 497 b 647 721 713 586 688 668 b 728 513 688 678 717 599 b 768 631 747 547 757 586 b 688 711 717 636 688 664 b 771 792 688 758 729 792 b 860 699 824 792 860 751 b 474 256 860 519 674 256 b 346 346 392 256 346 293 b 411 421 346 389 374 421 b 482 353 457 421 482 390 b 504 326 482 338 489 328 l 504 336 b 492 374 504 350 501 363 b 514 325 507 361 514 344 l 519 325 b 583 350 560 325 572 336 b 515 635 583 433 551 565 l 506 636 b 486 614 489 642 479 631 l 501 568 b 482 551 507 551 499 543 l 439 571 b 414 553 424 579 411 571 l 419 506 b 399 493 424 488 414 482 l 360 522 b 331 510 346 533 333 528 l 328 463 b 304 454 326 444 317 440 l 272 490 b 242 485 261 504 247 501 l 229 438 b 204 435 224 421 213 418 l 182 478 b 157 486 175 489 165 493 b 149 478 156 485 153 481 l 110 450 b 115 425 94 440 96 429 l 161 417 b 172 386 181 414 183 400 l 138 353 b 149 329 126 340 129 329 l 197 332 b 213 304 215 332 222 319 l 186 263 b 201 242 176 247 183 239 l 249 254 b 269 231 265 260 276 247 l 254 185 b 272 168 247 168 256 160 l 314 189 b 342 169 331 197 343 189 l 335 124 b 357 111 331 104 342 100 l 393 140 b 424 126 408 151 422 144 l 426 79 b 450 71 429 61 439 58 l 482 108 b 513 101 494 121 507 119 l 526 56 b 551 53 531 38 543 38 l 572 94 b 604 94 583 111 596 111 l 628 53 b 653 56 636 38 649 38 l 667 101 b 697 108 672 119 685 121 l 729 71 b 753 79 740 58 751 61 l 756 126 b 785 140 757 144 771 151 l 824 111 b 844 124 838 100 846 104 l 838 169 b 864 189 836 189 849 197 l 907 168 b 925 185 924 160 932 168 l 910 231 b 931 254 904 247 914 260 l 978 242 b 993 263 996 239 1003 247 l 968 304 b 982 332 957 319 964 332 l 1031 329 b 1042 353 1050 329 1053 340 l 1008 386 b 1018 417 996 400 999 414 l 1065 425 b 1069 450 1083 429 1085 440 l 1031 478 b 1035 510 1017 488 1017 503 z m 506 228 b 422 246 471 228 442 233 b 490 233 440 238 464 233 b 763 390 593 233 690 301 b 881 682 833 479 881 590 b 864 739 881 704 875 722 b 892 671 882 722 892 697 b 506 228 892 490 706 228 z "},"\"":{"ha":694,"x_min":0,"x_max":0,"o":"m 1035 510 l 1078 528 b 1078 553 1094 535 1094 546 l 1035 571 b 1031 601 1017 578 1017 592 l 1069 628 b 1065 654 1085 640 1083 650 l 1018 663 b 1008 692 999 665 996 679 l 1042 728 b 1031 751 1053 740 1050 751 l 982 749 b 968 776 964 747 957 761 l 993 817 b 978 836 1003 833 996 842 l 931 826 b 910 850 914 821 904 832 l 925 893 b 907 913 932 913 924 919 l 864 890 b 838 908 849 882 836 890 l 844 956 b 824 969 846 974 838 981 l 785 940 b 756 953 771 929 757 933 l 753 1001 b 729 1008 751 1019 740 1022 l 697 972 b 667 979 685 957 672 961 l 653 1025 b 628 1026 649 1042 636 1043 l 604 985 b 594 974 603 979 600 976 b 608 954 593 965 596 960 l 651 936 b 651 911 671 929 671 917 l 608 892 b 604 860 592 885 590 872 l 644 833 b 640 810 660 824 657 813 l 593 801 b 576 781 579 799 572 789 b 700 469 650 743 700 608 l 719 497 b 647 721 713 586 688 668 b 728 513 688 678 717 599 b 768 631 747 547 757 586 b 688 711 717 636 688 664 b 771 792 688 758 729 792 b 860 699 824 792 860 751 b 474 256 860 519 674 256 b 346 346 392 256 346 293 b 411 421 346 389 374 421 b 482 353 457 421 482 390 b 504 326 482 338 489 328 l 504 336 b 492 374 504 350 501 363 b 514 325 507 361 514 344 l 519 325 b 583 350 560 325 572 336 b 515 635 583 433 551 565 l 506 636 b 486 614 489 642 479 631 l 501 568 b 482 551 507 551 499 543 l 439 571 b 414 553 424 579 411 571 l 419 506 b 399 493 424 488 414 482 l 360 522 b 331 510 346 533 333 528 l 328 463 b 304 454 326 444 317 440 l 272 490 b 242 485 261 504 247 501 l 229 438 b 204 435 224 421 213 418 l 182 478 b 157 486 175 489 165 493 b 149 478 156 485 153 481 l 110 450 b 115 425 94 440 96 429 l 161 417 b 172 386 181 414 183 400 l 138 353 b 149 329 126 340 129 329 l 197 332 b 213 304 215 332 222 319 l 186 263 b 201 242 176 247 183 239 l 249 254 b 269 231 265 260 276 247 l 254 185 b 272 168 247 168 256 160 l 314 189 b 342 169 331 197 343 189 l 335 124 b 357 111 331 104 342 100 l 393 140 b 424 126 408 151 422 144 l 426 79 b 450 71 429 61 439 58 l 482 108 b 513 101 494 121 507 119 l 526 56 b 551 53 531 38 543 38 l 572 94 b 604 94 583 111 596 111 l 628 53 b 653 56 636 38 649 38 l 667 101 b 697 108 672 119 685 121 l 729 71 b 753 79 740 58 751 61 l 756 126 b 785 140 757 144 771 151 l 824 111 b 844 124 838 100 846 104 l 838 169 b 864 189 836 189 849 197 l 907 168 b 925 185 924 160 932 168 l 910 231 b 931 254 904 247 914 260 l 978 242 b 993 263 996 239 1003 247 l 968 304 b 982 332 957 319 964 332 l 1031 329 b 1042 353 1050 329 1053 340 l 1008 386 b 1018 417 996 400 999 414 l 1065 425 b 1069 450 1083 429 1085 440 l 1031 478 b 1035 510 1017 488 1017 503 z m 506 228 b 422 246 471 228 442 233 b 490 233 440 238 464 233 b 763 390 593 233 690 301 b 881 682 833 479 881 590 b 864 739 881 704 875 722 b 892 671 882 722 892 697 b 506 228 892 490 706 228 z "},"#":{"ha":1035,"x_min":0,"x_max":0,"o":"m 1035 510 l 1078 528 b 1078 553 1094 535 1094 546 l 1035 571 b 1031 601 1017 578 1017 592 l 1069 628 b 1065 654 1085 640 1083 650 l 1018 663 b 1008 692 999 665 996 679 l 1042 728 b 1031 751 1053 740 1050 751 l 982 749 b 968 776 964 747 957 761 l 993 817 b 978 836 1003 833 996 842 l 931 826 b 910 850 914 821 904 832 l 925 893 b 907 913 932 913 924 919 l 864 890 b 838 908 849 882 836 890 l 844 956 b 824 969 846 974 838 981 l 785 940 b 756 953 771 929 757 933 l 753 1001 b 729 1008 751 1019 740 1022 l 697 972 b 667 979 685 957 672 961 l 653 1025 b 628 1026 649 1042 636 1043 l 604 985 b 594 974 603 979 600 976 b 608 954 593 965 596 960 l 651 936 b 651 911 671 929 671 917 l 608 892 b 604 860 592 885 590 872 l 644 833 b 640 810 660 824 657 813 l 593 801 b 576 781 579 799 572 789 b 700 469 650 743 700 608 l 719 497 b 647 721 713 586 688 668 b 728 513 688 678 717 599 b 768 631 747 547 757 586 b 688 711 717 636 688 664 b 771 792 688 758 729 792 b 860 699 824 792 860 751 b 474 256 860 519 674 256 b 346 346 392 256 346 293 b 411 421 346 389 374 421 b 482 353 457 421 482 390 b 504 326 482 338 489 328 l 504 336 b 492 374 504 350 501 363 b 514 325 507 361 514 344 l 519 325 b 583 350 560 325 572 336 b 515 635 583 433 551 565 l 506 636 b 486 614 489 642 479 631 l 501 568 b 482 551 507 551 499 543 l 439 571 b 414 553 424 579 411 571 l 419 506 b 399 493 424 488 414 482 l 360 522 b 331 510 346 533 333 528 l 328 463 b 304 454 326 444 317 440 l 272 490 b 242 485 261 504 247 501 l 229 438 b 204 435 224 421 213 418 l 182 478 b 157 486 175 489 165 493 b 149 478 156 485 153 481 l 110 450 b 115 425 94 440 96 429 l 161 417 b 172 386 181 414 183 400 l 138 353 b 149 329 126 340 129 329 l 197 332 b 213 304 215 332 222 319 l 186 263 b 201 242 176 247 183 239 l 249 254 b 269 231 265 260 276 247 l 254 185 b 272 168 247 168 256 160 l 314 189 b 342 169 331 197 343 189 l 335 124 b 357 111 331 104 342 100 l 393 140 b 424 126 408 151 422 144 l 426 79 b 450 71 429 61 439 58 l 482 108 b 513 101 494 121 507 119 l 526 56 b 551 53 531 38 543 38 l 572 94 b 604 94 583 111 596 111 l 628 53 b 653 56 636 38 649 38 l 667 101 b 697 108 672 119 685 121 l 729 71 b 753 79 740 58 751 61 l 756 126 b 785 140 757 144 771 151 l 824 111 b 844 124 838 100 846 104 l 838 169 b 864 189 836 189 849 197 l 907 168 b 925 185 924 160 932 168 l 910 231 b 931 254 904 247 914 260 l 978 242 b 993 263 996 239 1003 247 l 968 304 b 982 332 957 319 964 332 l 1031 329 b 1042 353 1050 329 1053 340 l 1008 386 b 1018 417 996 400 999 414 l 1065 425 b 1069 450 1083 429 1085 440 l 1031 478 b 1035 510 1017 488 1017 503 z m 506 228 b 422 246 471 228 442 233 b 490 233 440 238 464 233 b 763 390 593 233 690 301 b 881 682 833 479 881 590 b 864 739 881 704 875 722 b 892 671 882 722 892 697 b 506 228 892 490 706 228 z "},"$":{"ha":694,"x_min":0,"x_max":0,"o":"m 1035 510 l 1078 528 b 1078 553 1094 535 1094 546 l 1035 571 b 1031 601 1017 578 1017 592 l 1069 628 b 1065 654 1085 640 1083 650 l 1018 663 b 1008 692 999 665 996 679 l 1042 728 b 1031 751 1053 740 1050 751 l 982 749 b 968 776 964 747 957 761 l 993 817 b 978 836 1003 833 996 842 l 931 826 b 910 850 914 821 904 832 l 925 893 b 907 913 932 913 924 919 l 864 890 b 838 908 849 882 836 890 l 844 956 b 824 969 846 974 838 981 l 785 940 b 756 953 771 929 757 933 l 753 1001 b 729 1008 751 1019 740 1022 l 697 972 b 667 979 685 957 672 961 l 653 1025 b 628 1026 649 1042 636 1043 l 604 985 b 594 974 603 979 600 976 b 608 954 593 965 596 960 l 651 936 b 651 911 671 929 671 917 l 608 892 b 604 860 592 885 590 872 l 644 833 b 640 810 660 824 657 813 l 593 801 b 576 781 579 799 572 789 b 700 469 650 743 700 608 l 719 497 b 647 721 713 586 688 668 b 728 513 688 678 717 599 b 768 631 747 547 757 586 b 688 711 717 636 688 664 b 771 792 688 758 729 792 b 860 699 824 792 860 751 b 474 256 860 519 674 256 b 346 346 392 256 346 293 b 411 421 346 389 374 421 b 482 353 457 421 482 390 b 504 326 482 338 489 328 l 504 336 b 492 374 504 350 501 363 b 514 325 507 361 514 344 l 519 325 b 583 350 560 325 572 336 b 515 635 583 433 551 565 l 506 636 b 486 614 489 642 479 631 l 501 568 b 482 551 507 551 499 543 l 439 571 b 414 553 424 579 411 571 l 419 506 b 399 493 424 488 414 482 l 360 522 b 331 510 346 533 333 528 l 328 463 b 304 454 326 444 317 440 l 272 490 b 242 485 261 504 247 501 l 229 438 b 204 435 224 421 213 418 l 182 478 b 157 486 175 489 165 493 b 149 478 156 485 153 481 l 110 450 b 115 425 94 440 96 429 l 161 417 b 172 386 181 414 183 400 l 138 353 b 149 329 126 340 129 329 l 197 332 b 213 304 215 332 222 319 l 186 263 b 201 242 176 247 183 239 l 249 254 b 269 231 265 260 276 247 l 254 185 b 272 168 247 168 256 160 l 314 189 b 342 169 331 197 343 189 l 335 124 b 357 111 331 104 342 100 l 393 140 b 424 126 408 151 422 144 l 426 79 b 450 71 429 61 439 58 l 482 108 b 513 101 494 121 507 119 l 526 56 b 551 53 531 38 543 38 l 572 94 b 604 94 583 111 596 111 l 628 53 b 653 56 636 38 649 38 l 667 101 b 697 108 672 119 685 121 l 729 71 b 753 79 740 58 751 61 l 756 126 b 785 140 757 144 771 151 l 824 111 b 844 124 838 100 846 104 l 838 169 b 864 189 836 189 849 197 l 907 168 b 925 185 924 160 932 168 l 910 231 b 931 254 904 247 914 260 l 978 242 b 993 263 996 239 1003 247 l 968 304 b 982 332 957 319 964 332 l 1031 329 b 1042 353 1050 329 1053 340 l 1008 386 b 1018 417 996 400 999 414 l 1065 425 b 1069 450 1083 429 1085 440 l 1031 478 b 1035 510 1017 488 1017 503 z m 506 228 b 422 246 471 228 442 233 b 490 233 440 238 464 233 b 763 390 593 233 690 301 b 881 682 833 479 881 590 b 864 739 881 704 875 722 b 892 671 882 722 892 697 b 506 228 892 490 706 228 z "},"%":{"ha":1014,"x_min":0,"x_max":0,"o":"m 1035 510 l 1078 528 b 1078 553 1094 535 1094 546 l 1035 571 b 1031 601 1017 578 1017 592 l 1069 628 b 1065 654 1085 640 1083 650 l 1018 663 b 1008 692 999 665 996 679 l 1042 728 b 1031 751 1053 740 1050 751 l 982 749 b 968 776 964 747 957 761 l 993 817 b 978 836 1003 833 996 842 l 931 826 b 910 850 914 821 904 832 l 925 893 b 907 913 932 913 924 919 l 864 890 b 838 908 849 882 836 890 l 844 956 b 824 969 846 974 838 981 l 785 940 b 756 953 771 929 757 933 l 753 1001 b 729 1008 751 1019 740 1022 l 697 972 b 667 979 685 957 672 961 l 653 1025 b 628 1026 649 1042 636 1043 l 604 985 b 594 974 603 979 600 976 b 608 954 593 965 596 960 l 651 936 b 651 911 671 929 671 917 l 608 892 b 604 860 592 885 590 872 l 644 833 b 640 810 660 824 657 813 l 593 801 b 576 781 579 799 572 789 b 700 469 650 743 700 608 l 719 497 b 647 721 713 586 688 668 b 728 513 688 678 717 599 b 768 631 747 547 757 586 b 688 711 717 636 688 664 b 771 792 688 758 729 792 b 860 699 824 792 860 751 b 474 256 860 519 674 256 b 346 346 392 256 346 293 b 411 421 346 389 374 421 b 482 353 457 421 482 390 b 504 326 482 338 489 328 l 504 336 b 492 374 504 350 501 363 b 514 325 507 361 514 344 l 519 325 b 583 350 560 325 572 336 b 515 635 583 433 551 565 l 506 636 b 486 614 489 642 479 631 l 501 568 b 482 551 507 551 499 543 l 439 571 b 414 553 424 579 411 571 l 419 506 b 399 493 424 488 414 482 l 360 522 b 331 510 346 533 333 528 l 328 463 b 304 454 326 444 317 440 l 272 490 b 242 485 261 504 247 501 l 229 438 b 204 435 224 421 213 418 l 182 478 b 157 486 175 489 165 493 b 149 478 156 485 153 481 l 110 450 b 115 425 94 440 96 429 l 161 417 b 172 386 181 414 183 400 l 138 353 b 149 329 126 340 129 329 l 197 332 b 213 304 215 332 222 319 l 186 263 b 201 242 176 247 183 239 l 249 254 b 269 231 265 260 276 247 l 254 185 b 272 168 247 168 256 160 l 314 189 b 342 169 331 197 343 189 l 335 124 b 357 111 331 104 342 100 l 393 140 b 424 126 408 151 422 144 l 426 79 b 450 71 429 61 439 58 l 482 108 b 513 101 494 121 507 119 l 526 56 b 551 53 531 38 543 38 l 572 94 b 604 94 583 111 596 111 l 628 53 b 653 56 636 38 649 38 l 667 101 b 697 108 672 119 685 121 l 729 71 b 753 79 740 58 751 61 l 756 126 b 785 140 757 144 771 151 l 824 111 b 844 124 838 100 846 104 l 838 169 b 864 189 836 189 849 197 l 907 168 b 925 185 924 160 932 168 l 910 231 b 931 254 904 247 914 260 l 978 242 b 993 263 996 239 1003 247 l 968 304 b 982 332 957 319 964 332 l 1031 329 b 1042 353 1050 329 1053 340 l 1008 386 b 1018 417 996 400 999 414 l 1065 425 b 1069 450 1083 429 1085 440 l 1031 478 b 1035 510 1017 488 1017 503 z m 506 228 b 422 246 471 228 442 233 b 490 233 440 238 464 233 b 763 390 593 233 690 301 b 881 682 833 479 881 590 b 864 739 881 704 875 722 b 892 671 882 722 892 697 b 506 228 892 490 706 228 z "},"&":{"ha":1006,"x_min":0,"x_max":0,"o":"m 865 656 b 689 528 901 561 865 554 b 361 254 496 496 383 454 l 481 254 b 596 365 489 310 501 346 b 372 158 593 260 510 158 b 185 335 242 158 185 247 b 357 515 185 436 263 515 b 465 478 422 515 465 478 l 560 617 b 489 764 506 663 489 718 b 631 914 489 856 558 914 b 718 804 690 914 735 867 b 642 853 704 833 675 853 b 550 771 594 853 556 818 b 688 624 538 701 586 624 b 885 831 799 624 885 718 b 629 1063 885 938 806 1063 b 318 765 454 1063 318 938 b 331 685 318 735 322 711 b 1 332 150 675 1 522 b 369 -18 1 143 149 -18 b 782 386 610 -18 776 175 b 1001 707 1040 419 1086 532 z "},"'":{"ha":360,"x_min":0,"x_max":0,"o":"m 1035 510 l 1078 528 b 1078 553 1094 535 1094 546 l 1035 571 b 1031 601 1017 578 1017 592 l 1069 628 b 1065 654 1085 640 1083 650 l 1018 663 b 1008 692 999 665 996 679 l 1042 728 b 1031 751 1053 740 1050 751 l 982 749 b 968 776 964 747 957 761 l 993 817 b 978 836 1003 833 996 842 l 931 826 b 910 850 914 821 904 832 l 925 893 b 907 913 932 913 924 919 l 864 890 b 838 908 849 882 836 890 l 844 956 b 824 969 846 974 838 981 l 785 940 b 756 953 771 929 757 933 l 753 1001 b 729 1008 751 1019 740 1022 l 697 972 b 667 979 685 957 672 961 l 653 1025 b 628 1026 649 1042 636 1043 l 604 985 b 594 974 603 979 600 976 b 608 954 593 965 596 960 l 651 936 b 651 911 671 929 671 917 l 608 892 b 604 860 592 885 590 872 l 644 833 b 640 810 660 824 657 813 l 593 801 b 576 781 579 799 572 789 b 700 469 650 743 700 608 l 719 497 b 647 721 713 586 688 668 b 728 513 688 678 717 599 b 768 631 747 547 757 586 b 688 711 717 636 688 664 b 771 792 688 758 729 792 b 860 699 824 792 860 751 b 474 256 860 519 674 256 b 346 346 392 256 346 293 b 411 421 346 389 374 421 b 482 353 457 421 482 390 b 504 326 482 338 489 328 l 504 336 b 492 374 504 350 501 363 b 514 325 507 361 514 344 l 519 325 b 583 350 560 325 572 336 b 515 635 583 433 551 565 l 506 636 b 486 614 489 642 479 631 l 501 568 b 482 551 507 551 499 543 l 439 571 b 414 553 424 579 411 571 l 419 506 b 399 493 424 488 414 482 l 360 522 b 331 510 346 533 333 528 l 328 463 b 304 454 326 444 317 440 l 272 490 b 242 485 261 504 247 501 l 229 438 b 204 435 224 421 213 418 l 182 478 b 157 486 175 489 165 493 b 149 478 156 485 153 481 l 110 450 b 115 425 94 440 96 429 l 161 417 b 172 386 181 414 183 400 l 138 353 b 149 329 126 340 129 329 l 197 332 b 213 304 215 332 222 319 l 186 263 b 201 242 176 247 183 239 l 249 254 b 269 231 265 260 276 247 l 254 185 b 272 168 247 168 256 160 l 314 189 b 342 169 331 197 343 189 l 335 124 b 357 111 331 104 342 100 l 393 140 b 424 126 408 151 422 144 l 426 79 b 450 71 429 61 439 58 l 482 108 b 513 101 494 121 507 119 l 526 56 b 551 53 531 38 543 38 l 572 94 b 604 94 583 111 596 111 l 628 53 b 653 56 636 38 649 38 l 667 101 b 697 108 672 119 685 121 l 729 71 b 753 79 740 58 751 61 l 756 126 b 785 140 757 144 771 151 l 824 111 b 844 124 838 100 846 104 l 838 169 b 864 189 836 189 849 197 l 907 168 b 925 185 924 160 932 168 l 910 231 b 931 254 904 247 914 260 l 978 242 b 993 263 996 239 1003 247 l 968 304 b 982 332 957 319 964 332 l 1031 329 b 1042 353 1050 329 1053 340 l 1008 386 b 1018 417 996 400 999 414 l 1065 425 b 1069 450 1083 429 1085 440 l 1031 478 b 1035 510 1017 488 1017 503 z m 506 228 b 422 246 471 228 442 233 b 490 233 440 238 464 233 b 763 390 593 233 690 301 b 881 682 833 479 881 590 b 864 739 881 704 875 722 b 892 671 882 722 892 697 b 506 228 892 490 706 228 z "},"(":{"ha":610,"x_min":0,"x_max":0,"o":"m 1035 510 l 1078 528 b 1078 553 1094 535 1094 546 l 1035 571 b 1031 601 1017 578 1017 592 l 1069 628 b 1065 654 1085 640 1083 650 l 1018 663 b 1008 692 999 665 996 679 l 1042 728 b 1031 751 1053 740 1050 751 l 982 749 b 968 776 964 747 957 761 l 993 817 b 978 836 1003 833 996 842 l 931 826 b 910 850 914 821 904 832 l 925 893 b 907 913 932 913 924 919 l 864 890 b 838 908 849 882 836 890 l 844 956 b 824 969 846 974 838 981 l 785 940 b 756 953 771 929 757 933 l 753 1001 b 729 1008 751 1019 740 1022 l 697 972 b 667 979 685 957 672 961 l 653 1025 b 628 1026 649 1042 636 1043 l 604 985 b 594 974 603 979 600 976 b 608 954 593 965 596 960 l 651 936 b 651 911 671 929 671 917 l 608 892 b 604 860 592 885 590 872 l 644 833 b 640 810 660 824 657 813 l 593 801 b 576 781 579 799 572 789 b 700 469 650 743 700 608 l 719 497 b 647 721 713 586 688 668 b 728 513 688 678 717 599 b 768 631 747 547 757 586 b 688 711 717 636 688 664 b 771 792 688 758 729 792 b 860 699 824 792 860 751 b 474 256 860 519 674 256 b 346 346 392 256 346 293 b 411 421 346 389 374 421 b 482 353 457 421 482 390 b 504 326 482 338 489 328 l 504 336 b 492 374 504 350 501 363 b 514 325 507 361 514 344 l 519 325 b 583 350 560 325 572 336 b 515 635 583 433 551 565 l 506 636 b 486 614 489 642 479 631 l 501 568 b 482 551 507 551 499 543 l 439 571 b 414 553 424 579 411 571 l 419 506 b 399 493 424 488 414 482 l 360 522 b 331 510 346 533 333 528 l 328 463 b 304 454 326 444 317 440 l 272 490 b 242 485 261 504 247 501 l 229 438 b 204 435 224 421 213 418 l 182 478 b 157 486 175 489 165 493 b 149 478 156 485 153 481 l 110 450 b 115 425 94 440 96 429 l 161 417 b 172 386 181 414 183 400 l 138 353 b 149 329 126 340 129 329 l 197 332 b 213 304 215 332 222 319 l 186 263 b 201 242 176 247 183 239 l 249 254 b 269 231 265 260 276 247 l 254 185 b 272 168 247 168 256 160 l 314 189 b 342 169 331 197 343 189 l 335 124 b 357 111 331 104 342 100 l 393 140 b 424 126 408 151 422 144 l 426 79 b 450 71 429 61 439 58 l 482 108 b 513 101 494 121 507 119 l 526 56 b 551 53 531 38 543 38 l 572 94 b 604 94 583 111 596 111 l 628 53 b 653 56 636 38 649 38 l 667 101 b 697 108 672 119 685 121 l 729 71 b 753 79 740 58 751 61 l 756 126 b 785 140 757 144 771 151 l 824 111 b 844 124 838 100 846 104 l 838 169 b 864 189 836 189 849 197 l 907 168 b 925 185 924 160 932 168 l 910 231 b 931 254 904 247 914 260 l 978 242 b 993 263 996 239 1003 247 l 968 304 b 982 332 957 319 964 332 l 1031 329 b 1042 353 1050 329 1053 340 l 1008 386 b 1018 417 996 400 999 414 l 1065 425 b 1069 450 1083 429 1085 440 l 1031 478 b 1035 510 1017 488 1017 503 z m 506 228 b 422 246 471 228 442 233 b 490 233 440 238 464 233 b 763 390 593 233 690 301 b 881 682 833 479 881 590 b 864 739 881 704 875 722 b 892 671 882 722 892 697 b 506 228 892 490 706 228 z "},")":{"ha":610,"x_min":0,"x_max":0,"o":"m 1035 510 l 1078 528 b 1078 553 1094 535 1094 546 l 1035 571 b 1031 601 1017 578 1017 592 l 1069 628 b 1065 654 1085 640 1083 650 l 1018 663 b 1008 692 999 665 996 679 l 1042 728 b 1031 751 1053 740 1050 751 l 982 749 b 968 776 964 747 957 761 l 993 817 b 978 836 1003 833 996 842 l 931 826 b 910 850 914 821 904 832 l 925 893 b 907 913 932 913 924 919 l 864 890 b 838 908 849 882 836 890 l 844 956 b 824 969 846 974 838 981 l 785 940 b 756 953 771 929 757 933 l 753 1001 b 729 1008 751 1019 740 1022 l 697 972 b 667 979 685 957 672 961 l 653 1025 b 628 1026 649 1042 636 1043 l 604 985 b 594 974 603 979 600 976 b 608 954 593 965 596 960 l 651 936 b 651 911 671 929 671 917 l 608 892 b 604 860 592 885 590 872 l 644 833 b 640 810 660 824 657 813 l 593 801 b 576 781 579 799 572 789 b 700 469 650 743 700 608 l 719 497 b 647 721 713 586 688 668 b 728 513 688 678 717 599 b 768 631 747 547 757 586 b 688 711 717 636 688 664 b 771 792 688 758 729 792 b 860 699 824 792 860 751 b 474 256 860 519 674 256 b 346 346 392 256 346 293 b 411 421 346 389 374 421 b 482 353 457 421 482 390 b 504 326 482 338 489 328 l 504 336 b 492 374 504 350 501 363 b 514 325 507 361 514 344 l 519 325 b 583 350 560 325 572 336 b 515 635 583 433 551 565 l 506 636 b 486 614 489 642 479 631 l 501 568 b 482 551 507 551 499 543 l 439 571 b 414 553 424 579 411 571 l 419 506 b 399 493 424 488 414 482 l 360 522 b 331 510 346 533 333 528 l 328 463 b 304 454 326 444 317 440 l 272 490 b 242 485 261 504 247 501 l 229 438 b 204 435 224 421 213 418 l 182 478 b 157 486 175 489 165 493 b 149 478 156 485 153 481 l 110 450 b 115 425 94 440 96 429 l 161 417 b 172 386 181 414 183 400 l 138 353 b 149 329 126 340 129 329 l 197 332 b 213 304 215 332 222 319 l 186 263 b 201 242 176 247 183 239 l 249 254 b 269 231 265 260 276 247 l 254 185 b 272 168 247 168 256 160 l 314 189 b 342 169 331 197 343 189 l 335 124 b 357 111 331 104 342 100 l 393 140 b 424 126 408 151 422 144 l 426 79 b 450 71 429 61 439 58 l 482 108 b 513 101 494 121 507 119 l 526 56 b 551 53 531 38 543 38 l 572 94 b 604 94 583 111 596 111 l 628 53 b 653 56 636 38 649 38 l 667 101 b 697 108 672 119 685 121 l 729 71 b 753 79 740 58 751 61 l 756 126 b 785 140 757 144 771 151 l 824 111 b 844 124 838 100 846 104 l 838 169 b 864 189 836 189 849 197 l 907 168 b 925 185 924 160 932 168 l 910 231 b 931 254 904 247 914 260 l 978 242 b 993 263 996 239 1003 247 l 968 304 b 982 332 957 319 964 332 l 1031 329 b 1042 353 1050 329 1053 340 l 1008 386 b 1018 417 996 400 999 414 l 1065 425 b 1069 450 1083 429 1085 440 l 1031 478 b 1035 510 1017 488 1017 503 z m 506 228 b 422 246 471 228 442 233 b 490 233 440 238 464 233 b 763 390 593 233 690 301 b 881 682 833 479 881 590 b 864 739 881 704 875 722 b 892 671 882 722 892 697 b 506 228 892 490 706 228 z "},"*":{"ha":588,"x_min":0,"x_max":0,"o":"m 236 938 b 101 928 196 971 135 967 b 117 793 69 888 75 829 b 207 753 125 785 165 768 b 111 725 164 743 122 731 b 78 593 65 694 51 638 b 210 565 106 550 165 536 b 276 639 221 571 250 604 b 275 539 274 594 271 551 b 389 468 289 488 339 456 b 456 585 439 481 469 532 b 406 671 451 596 429 635 b 501 638 447 653 488 639 b 604 725 554 633 600 672 b 514 824 608 776 568 821 b 417 803 501 824 458 815 b 478 883 446 838 471 868 b 426 1008 497 933 475 989 b 304 953 379 1028 325 1003 b 292 854 299 942 294 897 b 236 938 271 892 246 928 z "},"+":{"ha":838,"x_min":0,"x_max":0,"o":"m 1035 510 l 1078 528 b 1078 553 1094 535 1094 546 l 1035 571 b 1031 601 1017 578 1017 592 l 1069 628 b 1065 654 1085 640 1083 650 l 1018 663 b 1008 692 999 665 996 679 l 1042 728 b 1031 751 1053 740 1050 751 l 982 749 b 968 776 964 747 957 761 l 993 817 b 978 836 1003 833 996 842 l 931 826 b 910 850 914 821 904 832 l 925 893 b 907 913 932 913 924 919 l 864 890 b 838 908 849 882 836 890 l 844 956 b 824 969 846 974 838 981 l 785 940 b 756 953 771 929 757 933 l 753 1001 b 729 1008 751 1019 740 1022 l 697 972 b 667 979 685 957 672 961 l 653 1025 b 628 1026 649 1042 636 1043 l 604 985 b 594 974 603 979 600 976 b 608 954 593 965 596 960 l 651 936 b 651 911 671 929 671 917 l 608 892 b 604 860 592 885 590 872 l 644 833 b 640 810 660 824 657 813 l 593 801 b 576 781 579 799 572 789 b 700 469 650 743 700 608 l 719 497 b 647 721 713 586 688 668 b 728 513 688 678 717 599 b 768 631 747 547 757 586 b 688 711 717 636 688 664 b 771 792 688 758 729 792 b 860 699 824 792 860 751 b 474 256 860 519 674 256 b 346 346 392 256 346 293 b 411 421 346 389 374 421 b 482 353 457 421 482 390 b 504 326 482 338 489 328 l 504 336 b 492 374 504 350 501 363 b 514 325 507 361 514 344 l 519 325 b 583 350 560 325 572 336 b 515 635 583 433 551 565 l 506 636 b 486 614 489 642 479 631 l 501 568 b 482 551 507 551 499 543 l 439 571 b 414 553 424 579 411 571 l 419 506 b 399 493 424 488 414 482 l 360 522 b 331 510 346 533 333 528 l 328 463 b 304 454 326 444 317 440 l 272 490 b 242 485 261 504 247 501 l 229 438 b 204 435 224 421 213 418 l 182 478 b 157 486 175 489 165 493 b 149 478 156 485 153 481 l 110 450 b 115 425 94 440 96 429 l 161 417 b 172 386 181 414 183 400 l 138 353 b 149 329 126 340 129 329 l 197 332 b 213 304 215 332 222 319 l 186 263 b 201 242 176 247 183 239 l 249 254 b 269 231 265 260 276 247 l 254 185 b 272 168 247 168 256 160 l 314 189 b 342 169 331 197 343 189 l 335 124 b 357 111 331 104 342 100 l 393 140 b 424 126 408 151 422 144 l 426 79 b 450 71 429 61 439 58 l 482 108 b 513 101 494 121 507 119 l 526 56 b 551 53 531 38 543 38 l 572 94 b 604 94 583 111 596 111 l 628 53 b 653 56 636 38 649 38 l 667 101 b 697 108 672 119 685 121 l 729 71 b 753 79 740 58 751 61 l 756 126 b 785 140 757 144 771 151 l 824 111 b 844 124 838 100 846 104 l 838 169 b 864 189 836 189 849 197 l 907 168 b 925 185 924 160 932 168 l 910 231 b 931 254 904 247 914 260 l 978 242 b 993 263 996 239 1003 247 l 968 304 b 982 332 957 319 964 332 l 1031 329 b 1042 353 1050 329 1053 340 l 1008 386 b 1018 417 996 400 999 414 l 1065 425 b 1069 450 1083 429 1085 440 l 1031 478 b 1035 510 1017 488 1017 503 z m 506 228 b 422 246 471 228 442 233 b 490 233 440 238 464 233 b 763 390 593 233 690 301 b 881 682 833 479 881 590 b 864 739 881 704 875 722 b 892 671 882 722 892 697 b 506 228 892 490 706 228 z "},",":{"ha":479,"x_min":0,"x_max":0,"o":"m 374 113 b 231 265 374 221 297 265 b 89 124 151 265 89 203 b 183 -10 89 61 128 10 b 22 -186 178 -32 150 -90 l 78 -275 b 374 113 182 -212 374 -58 z "},"-":{"ha":729,"x_min":0,"x_max":0,"o":"m 1035 510 l 1078 528 b 1078 553 1094 535 1094 546 l 1035 571 b 1031 601 1017 578 1017 592 l 1069 628 b 1065 654 1085 640 1083 650 l 1018 663 b 1008 692 999 665 996 679 l 1042 728 b 1031 751 1053 740 1050 751 l 982 749 b 968 776 964 747 957 761 l 993 817 b 978 836 1003 833 996 842 l 931 826 b 910 850 914 821 904 832 l 925 893 b 907 913 932 913 924 919 l 864 890 b 838 908 849 882 836 890 l 844 956 b 824 969 846 974 838 981 l 785 940 b 756 953 771 929 757 933 l 753 1001 b 729 1008 751 1019 740 1022 l 697 972 b 667 979 685 957 672 961 l 653 1025 b 628 1026 649 1042 636 1043 l 604 985 b 594 974 603 979 600 976 b 608 954 593 965 596 960 l 651 936 b 651 911 671 929 671 917 l 608 892 b 604 860 592 885 590 872 l 644 833 b 640 810 660 824 657 813 l 593 801 b 576 781 579 799 572 789 b 700 469 650 743 700 608 l 719 497 b 647 721 713 586 688 668 b 728 513 688 678 717 599 b 768 631 747 547 757 586 b 688 711 717 636 688 664 b 771 792 688 758 729 792 b 860 699 824 792 860 751 b 474 256 860 519 674 256 b 346 346 392 256 346 293 b 411 421 346 389 374 421 b 482 353 457 421 482 390 b 504 326 482 338 489 328 l 504 336 b 492 374 504 350 501 363 b 514 325 507 361 514 344 l 519 325 b 583 350 560 325 572 336 b 515 635 583 433 551 565 l 506 636 b 486 614 489 642 479 631 l 501 568 b 482 551 507 551 499 543 l 439 571 b 414 553 424 579 411 571 l 419 506 b 399 493 424 488 414 482 l 360 522 b 331 510 346 533 333 528 l 328 463 b 304 454 326 444 317 440 l 272 490 b 242 485 261 504 247 501 l 229 438 b 204 435 224 421 213 418 l 182 478 b 157 486 175 489 165 493 b 149 478 156 485 153 481 l 110 450 b 115 425 94 440 96 429 l 161 417 b 172 386 181 414 183 400 l 138 353 b 149 329 126 340 129 329 l 197 332 b 213 304 215 332 222 319 l 186 263 b 201 242 176 247 183 239 l 249 254 b 269 231 265 260 276 247 l 254 185 b 272 168 247 168 256 160 l 314 189 b 342 169 331 197 343 189 l 335 124 b 357 111 331 104 342 100 l 393 140 b 424 126 408 151 422 144 l 426 79 b 450 71 429 61 439 58 l 482 108 b 513 101 494 121 507 119 l 526 56 b 551 53 531 38 543 38 l 572 94 b 604 94 583 111 596 111 l 628 53 b 653 56 636 38 649 38 l 667 101 b 697 108 672 119 685 121 l 729 71 b 753 79 740 58 751 61 l 756 126 b 785 140 757 144 771 151 l 824 111 b 844 124 838 100 846 104 l 838 169 b 864 189 836 189 849 197 l 907 168 b 925 185 924 160 932 168 l 910 231 b 931 254 904 247 914 260 l 978 242 b 993 263 996 239 1003 247 l 968 304 b 982 332 957 319 964 332 l 1031 329 b 1042 353 1050 329 1053 340 l 1008 386 b 1018 417 996 400 999 414 l 1065 425 b 1069 450 1083 429 1085 440 l 1031 478 b 1035 510 1017 488 1017 503 z m 506 228 b 422 246 471 228 442 233 b 490 233 440 238 464 233 b 763 390 593 233 690 301 b 881 682 833 479 881 590 b 864 739 881 704 875 722 b 892 671 882 722 892 697 b 506 228 892 490 706 228 z "},".":{"ha":479,"x_min":0,"x_max":0,"o":"m 231 -18 b 374 124 310 -18 374 44 b 231 265 374 203 310 265 b 89 124 151 265 89 203 b 231 -18 89 44 151 -18 z "},"/":{"ha":643,"x_min":0,"x_max":0,"o":"m 1035 510 l 1078 528 b 1078 553 1094 535 1094 546 l 1035 571 b 1031 601 1017 578 1017 592 l 1069 628 b 1065 654 1085 640 1083 650 l 1018 663 b 1008 692 999 665 996 679 l 1042 728 b 1031 751 1053 740 1050 751 l 982 749 b 968 776 964 747 957 761 l 993 817 b 978 836 1003 833 996 842 l 931 826 b 910 850 914 821 904 832 l 925 893 b 907 913 932 913 924 919 l 864 890 b 838 908 849 882 836 890 l 844 956 b 824 969 846 974 838 981 l 785 940 b 756 953 771 929 757 933 l 753 1001 b 729 1008 751 1019 740 1022 l 697 972 b 667 979 685 957 672 961 l 653 1025 b 628 1026 649 1042 636 1043 l 604 985 b 594 974 603 979 600 976 b 608 954 593 965 596 960 l 651 936 b 651 911 671 929 671 917 l 608 892 b 604 860 592 885 590 872 l 644 833 b 640 810 660 824 657 813 l 593 801 b 576 781 579 799 572 789 b 700 469 650 743 700 608 l 719 497 b 647 721 713 586 688 668 b 728 513 688 678 717 599 b 768 631 747 547 757 586 b 688 711 717 636 688 664 b 771 792 688 758 729 792 b 860 699 824 792 860 751 b 474 256 860 519 674 256 b 346 346 392 256 346 293 b 411 421 346 389 374 421 b 482 353 457 421 482 390 b 504 326 482 338 489 328 l 504 336 b 492 374 504 350 501 363 b 514 325 507 361 514 344 l 519 325 b 583 350 560 325 572 336 b 515 635 583 433 551 565 l 506 636 b 486 614 489 642 479 631 l 501 568 b 482 551 507 551 499 543 l 439 571 b 414 553 424 579 411 571 l 419 506 b 399 493 424 488 414 482 l 360 522 b 331 510 346 533 333 528 l 328 463 b 304 454 326 444 317 440 l 272 490 b 242 485 261 504 247 501 l 229 438 b 204 435 224 421 213 418 l 182 478 b 157 486 175 489 165 493 b 149 478 156 485 153 481 l 110 450 b 115 425 94 440 96 429 l 161 417 b 172 386 181 414 183 400 l 138 353 b 149 329 126 340 129 329 l 197 332 b 213 304 215 332 222 319 l 186 263 b 201 242 176 247 183 239 l 249 254 b 269 231 265 260 276 247 l 254 185 b 272 168 247 168 256 160 l 314 189 b 342 169 331 197 343 189 l 335 124 b 357 111 331 104 342 100 l 393 140 b 424 126 408 151 422 144 l 426 79 b 450 71 429 61 439 58 l 482 108 b 513 101 494 121 507 119 l 526 56 b 551 53 531 38 543 38 l 572 94 b 604 94 583 111 596 111 l 628 53 b 653 56 636 38 649 38 l 667 101 b 697 108 672 119 685 121 l 729 71 b 753 79 740 58 751 61 l 756 126 b 785 140 757 144 771 151 l 824 111 b 844 124 838 100 846 104 l 838 169 b 864 189 836 189 849 197 l 907 168 b 925 185 924 160 932 168 l 910 231 b 931 254 904 247 914 260 l 978 242 b 993 263 996 239 1003 247 l 968 304 b 982 332 957 319 964 332 l 1031 329 b 1042 353 1050 329 1053 340 l 1008 386 b 1018 417 996 400 999 414 l 1065 425 b 1069 450 1083 429 1085 440 l 1031 478 b 1035 510 1017 488 1017 503 z m 506 228 b 422 246 471 228 442 233 b 490 233 440 238 464 233 b 763 390 593 233 690 301 b 881 682 833 479 881 590 b 864 739 881 704 875 722 b 892 671 882 722 892 697 b 506 228 892 490 706 228 z "},":":{"ha":499,"x_min":0,"x_max":0,"o":"m 378 347 b 519 488 457 347 519 408 b 378 631 519 567 457 631 b 236 488 299 631 236 567 b 378 347 236 408 299 347 z m 231 -18 b 374 124 310 -18 374 44 b 231 265 374 203 310 265 b 89 124 151 265 89 203 b 231 -18 89 44 151 -18 z "},";":{"ha":499,"x_min":0,"x_max":0,"o":"m 378 347 b 519 488 457 347 519 408 b 378 631 519 567 457 631 b 236 488 299 631 236 567 b 378 347 236 408 299 347 z m 374 122 b 231 265 374 204 308 265 b 89 124 151 265 89 203 b 183 -10 89 61 128 10 b 22 -186 178 -32 151 -90 l 79 -275 b 374 122 181 -211 374 -68 z "},"<":{"ha":907,"x_min":0,"x_max":0,"o":"m 1035 510 l 1078 528 b 1078 553 1094 535 1094 546 l 1035 571 b 1031 601 1017 578 1017 592 l 1069 628 b 1065 654 1085 640 1083 650 l 1018 663 b 1008 692 999 665 996 679 l 1042 728 b 1031 751 1053 740 1050 751 l 982 749 b 968 776 964 747 957 761 l 993 817 b 978 836 1003 833 996 842 l 931 826 b 910 850 914 821 904 832 l 925 893 b 907 913 932 913 924 919 l 864 890 b 838 908 849 882 836 890 l 844 956 b 824 969 846 974 838 981 l 785 940 b 756 953 771 929 757 933 l 753 1001 b 729 1008 751 1019 740 1022 l 697 972 b 667 979 685 957 672 961 l 653 1025 b 628 1026 649 1042 636 1043 l 604 985 b 594 974 603 979 600 976 b 608 954 593 965 596 960 l 651 936 b 651 911 671 929 671 917 l 608 892 b 604 860 592 885 590 872 l 644 833 b 640 810 660 824 657 813 l 593 801 b 576 781 579 799 572 789 b 700 469 650 743 700 608 l 719 497 b 647 721 713 586 688 668 b 728 513 688 678 717 599 b 768 631 747 547 757 586 b 688 711 717 636 688 664 b 771 792 688 758 729 792 b 860 699 824 792 860 751 b 474 256 860 519 674 256 b 346 346 392 256 346 293 b 411 421 346 389 374 421 b 482 353 457 421 482 390 b 504 326 482 338 489 328 l 504 336 b 492 374 504 350 501 363 b 514 325 507 361 514 344 l 519 325 b 583 350 560 325 572 336 b 515 635 583 433 551 565 l 506 636 b 486 614 489 642 479 631 l 501 568 b 482 551 507 551 499 543 l 439 571 b 414 553 424 579 411 571 l 419 506 b 399 493 424 488 414 482 l 360 522 b 331 510 346 533 333 528 l 328 463 b 304 454 326 444 317 440 l 272 490 b 242 485 261 504 247 501 l 229 438 b 204 435 224 421 213 418 l 182 478 b 157 486 175 489 165 493 b 149 478 156 485 153 481 l 110 450 b 115 425 94 440 96 429 l 161 417 b 172 386 181 414 183 400 l 138 353 b 149 329 126 340 129 329 l 197 332 b 213 304 215 332 222 319 l 186 263 b 201 242 176 247 183 239 l 249 254 b 269 231 265 260 276 247 l 254 185 b 272 168 247 168 256 160 l 314 189 b 342 169 331 197 343 189 l 335 124 b 357 111 331 104 342 100 l 393 140 b 424 126 408 151 422 144 l 426 79 b 450 71 429 61 439 58 l 482 108 b 513 101 494 121 507 119 l 526 56 b 551 53 531 38 543 38 l 572 94 b 604 94 583 111 596 111 l 628 53 b 653 56 636 38 649 38 l 667 101 b 697 108 672 119 685 121 l 729 71 b 753 79 740 58 751 61 l 756 126 b 785 140 757 144 771 151 l 824 111 b 844 124 838 100 846 104 l 838 169 b 864 189 836 189 849 197 l 907 168 b 925 185 924 160 932 168 l 910 231 b 931 254 904 247 914 260 l 978 242 b 993 263 996 239 1003 247 l 968 304 b 982 332 957 319 964 332 l 1031 329 b 1042 353 1050 329 1053 340 l 1008 386 b 1018 417 996 400 999 414 l 1065 425 b 1069 450 1083 429 1085 440 l 1031 478 b 1035 510 1017 488 1017 503 z m 506 228 b 422 246 471 228 442 233 b 490 233 440 238 464 233 b 763 390 593 233 690 301 b 881 682 833 479 881 590 b 864 739 881 704 875 722 b 892 671 882 722 892 697 b 506 228 892 490 706 228 z "},"=":{"ha":863,"x_min":0,"x_max":0,"o":"m 1035 510 l 1078 528 b 1078 553 1094 535 1094 546 l 1035 571 b 1031 601 1017 578 1017 592 l 1069 628 b 1065 654 1085 640 1083 650 l 1018 663 b 1008 692 999 665 996 679 l 1042 728 b 1031 751 1053 740 1050 751 l 982 749 b 968 776 964 747 957 761 l 993 817 b 978 836 1003 833 996 842 l 931 826 b 910 850 914 821 904 832 l 925 893 b 907 913 932 913 924 919 l 864 890 b 838 908 849 882 836 890 l 844 956 b 824 969 846 974 838 981 l 785 940 b 756 953 771 929 757 933 l 753 1001 b 729 1008 751 1019 740 1022 l 697 972 b 667 979 685 957 672 961 l 653 1025 b 628 1026 649 1042 636 1043 l 604 985 b 594 974 603 979 600 976 b 608 954 593 965 596 960 l 651 936 b 651 911 671 929 671 917 l 608 892 b 604 860 592 885 590 872 l 644 833 b 640 810 660 824 657 813 l 593 801 b 576 781 579 799 572 789 b 700 469 650 743 700 608 l 719 497 b 647 721 713 586 688 668 b 728 513 688 678 717 599 b 768 631 747 547 757 586 b 688 711 717 636 688 664 b 771 792 688 758 729 792 b 860 699 824 792 860 751 b 474 256 860 519 674 256 b 346 346 392 256 346 293 b 411 421 346 389 374 421 b 482 353 457 421 482 390 b 504 326 482 338 489 328 l 504 336 b 492 374 504 350 501 363 b 514 325 507 361 514 344 l 519 325 b 583 350 560 325 572 336 b 515 635 583 433 551 565 l 506 636 b 486 614 489 642 479 631 l 501 568 b 482 551 507 551 499 543 l 439 571 b 414 553 424 579 411 571 l 419 506 b 399 493 424 488 414 482 l 360 522 b 331 510 346 533 333 528 l 328 463 b 304 454 326 444 317 440 l 272 490 b 242 485 261 504 247 501 l 229 438 b 204 435 224 421 213 418 l 182 478 b 157 486 175 489 165 493 b 149 478 156 485 153 481 l 110 450 b 115 425 94 440 96 429 l 161 417 b 172 386 181 414 183 400 l 138 353 b 149 329 126 340 129 329 l 197 332 b 213 304 215 332 222 319 l 186 263 b 201 242 176 247 183 239 l 249 254 b 269 231 265 260 276 247 l 254 185 b 272 168 247 168 256 160 l 314 189 b 342 169 331 197 343 189 l 335 124 b 357 111 331 104 342 100 l 393 140 b 424 126 408 151 422 144 l 426 79 b 450 71 429 61 439 58 l 482 108 b 513 101 494 121 507 119 l 526 56 b 551 53 531 38 543 38 l 572 94 b 604 94 583 111 596 111 l 628 53 b 653 56 636 38 649 38 l 667 101 b 697 108 672 119 685 121 l 729 71 b 753 79 740 58 751 61 l 756 126 b 785 140 757 144 771 151 l 824 111 b 844 124 838 100 846 104 l 838 169 b 864 189 836 189 849 197 l 907 168 b 925 185 924 160 932 168 l 910 231 b 931 254 904 247 914 260 l 978 242 b 993 263 996 239 1003 247 l 968 304 b 982 332 957 319 964 332 l 1031 329 b 1042 353 1050 329 1053 340 l 1008 386 b 1018 417 996 400 999 414 l 1065 425 b 1069 450 1083 429 1085 440 l 1031 478 b 1035 510 1017 488 1017 503 z m 506 228 b 422 246 471 228 442 233 b 490 233 440 238 464 233 b 763 390 593 233 690 301 b 881 682 833 479 881 590 b 864 739 881 704 875 722 b 892 671 882 722 892 697 b 506 228 892 490 706 228 z "},">":{"ha":899,"x_min":0,"x_max":0,"o":"m 1035 510 l 1078 528 b 1078 553 1094 535 1094 546 l 1035 571 b 1031 601 1017 578 1017 592 l 1069 628 b 1065 654 1085 640 1083 650 l 1018 663 b 1008 692 999 665 996 679 l 1042 728 b 1031 751 1053 740 1050 751 l 982 749 b 968 776 964 747 957 761 l 993 817 b 978 836 1003 833 996 842 l 931 826 b 910 850 914 821 904 832 l 925 893 b 907 913 932 913 924 919 l 864 890 b 838 908 849 882 836 890 l 844 956 b 824 969 846 974 838 981 l 785 940 b 756 953 771 929 757 933 l 753 1001 b 729 1008 751 1019 740 1022 l 697 972 b 667 979 685 957 672 961 l 653 1025 b 628 1026 649 1042 636 1043 l 604 985 b 594 974 603 979 600 976 b 608 954 593 965 596 960 l 651 936 b 651 911 671 929 671 917 l 608 892 b 604 860 592 885 590 872 l 644 833 b 640 810 660 824 657 813 l 593 801 b 576 781 579 799 572 789 b 700 469 650 743 700 608 l 719 497 b 647 721 713 586 688 668 b 728 513 688 678 717 599 b 768 631 747 547 757 586 b 688 711 717 636 688 664 b 771 792 688 758 729 792 b 860 699 824 792 860 751 b 474 256 860 519 674 256 b 346 346 392 256 346 293 b 411 421 346 389 374 421 b 482 353 457 421 482 390 b 504 326 482 338 489 328 l 504 336 b 492 374 504 350 501 363 b 514 325 507 361 514 344 l 519 325 b 583 350 560 325 572 336 b 515 635 583 433 551 565 l 506 636 b 486 614 489 642 479 631 l 501 568 b 482 551 507 551 499 543 l 439 571 b 414 553 424 579 411 571 l 419 506 b 399 493 424 488 414 482 l 360 522 b 331 510 346 533 333 528 l 328 463 b 304 454 326 444 317 440 l 272 490 b 242 485 261 504 247 501 l 229 438 b 204 435 224 421 213 418 l 182 478 b 157 486 175 489 165 493 b 149 478 156 485 153 481 l 110 450 b 115 425 94 440 96 429 l 161 417 b 172 386 181 414 183 400 l 138 353 b 149 329 126 340 129 329 l 197 332 b 213 304 215 332 222 319 l 186 263 b 201 242 176 247 183 239 l 249 254 b 269 231 265 260 276 247 l 254 185 b 272 168 247 168 256 160 l 314 189 b 342 169 331 197 343 189 l 335 124 b 357 111 331 104 342 100 l 393 140 b 424 126 408 151 422 144 l 426 79 b 450 71 429 61 439 58 l 482 108 b 513 101 494 121 507 119 l 526 56 b 551 53 531 38 543 38 l 572 94 b 604 94 583 111 596 111 l 628 53 b 653 56 636 38 649 38 l 667 101 b 697 108 672 119 685 121 l 729 71 b 753 79 740 58 751 61 l 756 126 b 785 140 757 144 771 151 l 824 111 b 844 124 838 100 846 104 l 838 169 b 864 189 836 189 849 197 l 907 168 b 925 185 924 160 932 168 l 910 231 b 931 254 904 247 914 260 l 978 242 b 993 263 996 239 1003 247 l 968 304 b 982 332 957 319 964 332 l 1031 329 b 1042 353 1050 329 1053 340 l 1008 386 b 1018 417 996 400 999 414 l 1065 425 b 1069 450 1083 429 1085 440 l 1031 478 b 1035 510 1017 488 1017 503 z m 506 228 b 422 246 471 228 442 233 b 490 233 440 238 464 233 b 763 390 593 233 690 301 b 881 682 833 479 881 590 b 864 739 881 704 875 722 b 892 671 882 722 892 697 b 506 228 892 490 706 228 z "},"?":{"ha":719,"x_min":0,"x_max":0,"o":"m 1035 510 l 1078 528 b 1078 553 1094 535 1094 546 l 1035 571 b 1031 601 1017 578 1017 592 l 1069 628 b 1065 654 1085 640 1083 650 l 1018 663 b 1008 692 999 665 996 679 l 1042 728 b 1031 751 1053 740 1050 751 l 982 749 b 968 776 964 747 957 761 l 993 817 b 978 836 1003 833 996 842 l 931 826 b 910 850 914 821 904 832 l 925 893 b 907 913 932 913 924 919 l 864 890 b 838 908 849 882 836 890 l 844 956 b 824 969 846 974 838 981 l 785 940 b 756 953 771 929 757 933 l 753 1001 b 729 1008 751 1019 740 1022 l 697 972 b 667 979 685 957 672 961 l 653 1025 b 628 1026 649 1042 636 1043 l 604 985 b 594 974 603 979 600 976 b 608 954 593 965 596 960 l 651 936 b 651 911 671 929 671 917 l 608 892 b 604 860 592 885 590 872 l 644 833 b 640 810 660 824 657 813 l 593 801 b 576 781 579 799 572 789 b 700 469 650 743 700 608 l 719 497 b 647 721 713 586 688 668 b 728 513 688 678 717 599 b 768 631 747 547 757 586 b 688 711 717 636 688 664 b 771 792 688 758 729 792 b 860 699 824 792 860 751 b 474 256 860 519 674 256 b 346 346 392 256 346 293 b 411 421 346 389 374 421 b 482 353 457 421 482 390 b 504 326 482 338 489 328 l 504 336 b 492 374 504 350 501 363 b 514 325 507 361 514 344 l 519 325 b 583 350 560 325 572 336 b 515 635 583 433 551 565 l 506 636 b 486 614 489 642 479 631 l 501 568 b 482 551 507 551 499 543 l 439 571 b 414 553 424 579 411 571 l 419 506 b 399 493 424 488 414 482 l 360 522 b 331 510 346 533 333 528 l 328 463 b 304 454 326 444 317 440 l 272 490 b 242 485 261 504 247 501 l 229 438 b 204 435 224 421 213 418 l 182 478 b 157 486 175 489 165 493 b 149 478 156 485 153 481 l 110 450 b 115 425 94 440 96 429 l 161 417 b 172 386 181 414 183 400 l 138 353 b 149 329 126 340 129 329 l 197 332 b 213 304 215 332 222 319 l 186 263 b 201 242 176 247 183 239 l 249 254 b 269 231 265 260 276 247 l 254 185 b 272 168 247 168 256 160 l 314 189 b 342 169 331 197 343 189 l 335 124 b 357 111 331 104 342 100 l 393 140 b 424 126 408 151 422 144 l 426 79 b 450 71 429 61 439 58 l 482 108 b 513 101 494 121 507 119 l 526 56 b 551 53 531 38 543 38 l 572 94 b 604 94 583 111 596 111 l 628 53 b 653 56 636 38 649 38 l 667 101 b 697 108 672 119 685 121 l 729 71 b 753 79 740 58 751 61 l 756 126 b 785 140 757 144 771 151 l 824 111 b 844 124 838 100 846 104 l 838 169 b 864 189 836 189 849 197 l 907 168 b 925 185 924 160 932 168 l 910 231 b 931 254 904 247 914 260 l 978 242 b 993 263 996 239 1003 247 l 968 304 b 982 332 957 319 964 332 l 1031 329 b 1042 353 1050 329 1053 340 l 1008 386 b 1018 417 996 400 999 414 l 1065 425 b 1069 450 1083 429 1085 440 l 1031 478 b 1035 510 1017 488 1017 503 z m 506 228 b 422 246 471 228 442 233 b 490 233 440 238 464 233 b 763 390 593 233 690 301 b 881 682 833 479 881 590 b 864 739 881 704 875 722 b 892 671 882 722 892 697 b 506 228 892 490 706 228 z "},"@":{"ha":1468,"x_min":0,"x_max":0,"o":"m 1103 643 l 889 565 b 750 658 889 565 863 658 b 433 181 529 658 433 303 b 564 32 433 90 486 32 b 746 128 665 32 746 128 b 928 -21 746 128 751 -21 b 1353 492 1158 -21 1353 235 b 857 944 1353 715 1206 944 b 153 210 399 944 153 547 b 674 -282 153 -115 379 -282 b 1061 -160 825 -282 960 -239 l 989 -53 b 707 -135 897 -111 785 -135 b 325 219 439 -135 325 18 b 856 793 325 493 544 793 b 1188 496 1039 793 1188 675 b 961 114 1188 344 1083 114 b 964 300 900 114 911 172 z m 838 443 l 763 260 b 649 178 763 260 710 178 b 611 219 622 178 611 192 b 785 508 611 292 696 508 b 838 443 810 508 836 492 z "},"A":{"ha":1257,"x_min":0,"x_max":0,"o":"m 1285 386 b 1038 217 1172 210 1100 215 l 1218 900 b 1033 1153 1254 1042 1168 1153 b 763 897 892 1153 842 1031 l 501 456 b 232 522 415 494 326 522 b -92 233 19 522 -92 379 b 197 -26 -92 93 13 -26 b 589 228 372 -26 493 81 b 797 128 654 193 725 157 l 728 -125 l 919 -232 l 999 71 b 1361 331 1167 53 1244 125 b 1285 386 1351 357 1314 383 z m 674 368 l 996 907 l 1010 901 l 840 282 b 674 368 786 307 726 339 z m 204 154 b 96 242 154 154 96 182 b 239 350 96 293 136 350 b 414 310 293 350 354 333 b 204 154 319 168 228 154 z "},"B":{"ha":1213,"x_min":0,"x_max":0,"o":"m 206 240 b 324 192 244 240 281 222 b 199 121 288 150 246 121 b 125 178 163 121 125 139 b 206 240 125 211 154 240 z m 775 115 b 569 200 700 115 633 153 b 638 339 597 250 621 299 b 714 522 665 400 690 464 b 946 292 931 475 946 333 b 775 115 946 210 893 115 z m 206 -51 b 475 72 321 -51 408 1 b 824 -78 594 -18 701 -78 b 1153 283 1047 -78 1153 117 b 1024 558 1153 468 1024 558 b 1235 832 1024 558 1235 607 b 806 1185 1235 1029 1072 1185 b 268 708 475 1185 268 953 b 332 478 268 575 332 478 l 479 588 b 447 714 479 588 447 650 b 800 1013 447 839 572 1013 b 1038 829 961 1013 1038 926 b 769 663 1038 690 885 625 l 786 704 b 899 833 832 811 899 833 l 858 953 b 585 751 719 953 624 847 l 450 417 b 404 315 440 393 425 356 b 203 383 326 364 272 383 b -40 165 24 383 -40 258 b 206 -51 -40 65 36 -51 z "},"C":{"ha":1043,"x_min":0,"x_max":0,"o":"m 1069 386 b 608 69 936 158 725 69 b 475 221 492 69 475 156 b 493 358 475 260 481 308 l 497 358 b 917 489 685 358 821 417 b 1140 892 1069 603 1140 764 b 896 1161 1140 1033 1061 1161 b 325 561 640 1161 428 853 b 189 747 196 607 189 717 b 288 915 189 874 285 914 l 182 1069 b 0 749 78 1010 0 893 b 276 389 0 581 97 447 b 257 221 264 328 257 271 b 556 -79 257 44 346 -79 b 1147 331 797 -79 1006 85 b 1069 386 1136 357 1100 383 z m 860 942 b 917 874 903 942 917 908 b 792 640 917 819 883 719 b 549 542 735 592 656 551 b 860 942 629 744 758 942 z "},"D":{"ha":1364,"x_min":0,"x_max":0,"o":"m 196 383 b -42 164 25 383 -42 258 b 218 -51 -42 74 19 -51 b 493 50 331 -51 422 -11 b 789 -78 583 -26 657 -78 b 1364 651 1171 -78 1364 338 b 849 1161 1364 950 1190 1161 b 290 671 486 1161 290 918 b 354 439 290 532 354 439 l 501 549 b 469 676 501 549 469 610 b 835 990 469 810 592 990 b 1144 654 1056 990 1144 842 b 778 101 1144 406 992 101 b 599 172 710 101 653 132 b 682 335 632 224 661 279 b 819 674 682 336 819 674 b 932 804 860 774 932 804 l 892 922 b 617 721 753 922 656 817 l 483 392 b 436 294 469 358 454 325 b 196 383 342 358 271 383 z m 206 121 b 124 176 158 121 124 138 b 204 240 124 210 151 240 b 342 176 243 240 282 222 b 206 121 301 142 257 121 z "},"E":{"ha":889,"x_min":0,"x_max":0,"o":"m 799 690 b 1064 931 965 690 1064 806 b 799 1161 1064 1039 988 1161 b 574 1092 711 1161 635 1133 b 565 1200 567 1125 564 1161 l 424 1219 b 458 967 419 1132 431 1044 b 404 763 422 906 404 835 b 418 665 404 703 418 665 b 0 258 211 685 0 508 b 408 -150 0 33 169 -150 b 793 399 678 -150 894 90 l 608 346 b 415 44 667 210 576 44 b 213 264 288 44 213 144 b 411 472 213 389 292 472 b 576 415 511 472 576 415 l 682 572 b 601 757 674 578 604 639 b 799 690 654 715 721 690 z m 785 972 b 876 911 838 972 876 947 b 786 851 876 872 833 851 b 653 914 735 851 690 874 b 785 972 689 953 738 972 z "},"F":{"ha":1021,"x_min":0,"x_max":0,"o":"m 1047 879 b 1160 1008 1089 981 1160 1008 l 1119 1128 b 943 1061 1056 1128 990 1103 b 415 1129 789 1032 597 1129 b 97 849 196 1129 97 990 b 353 601 97 689 224 601 b 551 678 475 601 551 678 l 463 813 b 365 771 463 813 422 771 b 278 853 322 771 278 797 b 419 958 278 904 317 958 b 829 885 529 958 683 896 l 706 578 l 582 578 l 536 467 l 660 467 l 617 357 b 322 46 538 168 447 46 b 189 175 256 46 189 96 b 344 294 189 224 214 304 l 344 478 b 0 175 132 494 0 346 b 340 -137 0 18 108 -137 b 792 244 467 -137 658 -89 l 881 467 l 1008 467 l 1053 578 l 926 578 z "},"G":{"ha":1181,"x_min":0,"x_max":0,"o":"m 1207 386 b 919 99 1154 289 1054 188 l 1054 432 l 815 383 l 792 325 b 539 150 726 235 614 150 b 471 244 483 150 471 194 b 490 381 471 282 478 328 b 518 379 500 379 508 379 b 981 504 686 379 853 425 b 1235 900 1125 593 1235 729 b 964 1161 1235 1046 1146 1161 b 336 582 669 1161 446 863 b 189 767 204 629 189 728 b 288 915 189 864 285 914 l 182 1069 b 0 754 82 1014 0 897 b 283 411 0 594 100 468 b 261 244 269 349 261 293 b 478 -18 261 93 335 -18 b 689 69 574 -18 644 31 l 643 -43 b 478 -114 581 -71 519 -93 b 301 -324 406 -147 301 -210 b 490 -506 300 -401 347 -506 b 850 -69 724 -506 788 -231 b 1285 331 1025 25 1181 147 b 1207 386 1274 357 1238 383 z m 856 647 b 556 557 771 594 664 564 b 932 942 644 753 790 942 b 1011 868 992 942 1011 908 b 856 647 1011 775 939 700 z m 496 -231 b 583 -190 518 -218 547 -206 b 465 -351 536 -304 504 -351 b 426 -317 449 -351 426 -343 b 496 -231 426 -282 461 -250 z "},"H":{"ha":1349,"x_min":0,"x_max":0,"o":"m 1376 386 b 1100 218 1254 200 1183 213 l 1421 1008 l 1199 1008 l 908 292 b 740 385 854 322 794 354 l 939 879 b 1051 1008 979 976 1051 1008 l 1011 1128 b 815 1042 931 1128 864 1090 b 371 1100 675 1026 529 1100 b 63 821 146 1100 63 950 b 318 576 63 661 188 576 b 517 653 442 576 517 653 l 428 786 b 326 746 428 786 388 746 b 242 821 283 746 242 767 b 386 924 242 863 268 924 b 714 869 488 924 581 878 l 556 474 b 325 522 482 503 404 522 b 0 233 110 522 0 379 b 294 -26 0 93 110 -26 b 674 235 493 -26 600 100 b 849 144 736 204 790 172 l 742 -124 l 911 -250 l 1042 74 b 1453 331 1239 32 1336 119 b 1376 386 1443 357 1406 383 z m 299 154 b 188 242 236 154 188 190 b 329 350 188 293 229 350 b 489 317 378 350 433 336 b 299 154 431 192 356 154 z "},"I":{"ha":879,"x_min":0,"x_max":0,"o":"m 544 357 b 244 46 467 168 374 46 b 104 176 167 46 104 106 b 260 294 104 222 129 304 l 260 478 b -85 175 50 494 -85 349 b 253 -137 -85 18 25 -137 b 719 244 399 -137 594 -72 l 992 921 b 1104 1050 1033 1022 1104 1050 l 1064 1169 b 861 1076 981 1169 911 1129 b 228 643 557 971 228 917 b 511 388 226 493 342 388 l 511 568 b 414 651 476 568 414 585 b 746 857 414 756 569 801 z "},"J":{"ha":811,"x_min":0,"x_max":0,"o":"m 839 386 b 597 211 782 292 703 242 l 867 879 b 979 1008 907 979 979 1008 l 939 1128 b 733 1032 853 1128 782 1086 b 56 504 419 881 56 788 b 347 233 54 339 176 233 l 347 414 b 242 511 313 414 242 431 b 608 786 242 633 422 699 l 356 160 b -211 -231 68 108 -211 24 b 25 -458 -211 -362 -103 -458 b 532 43 264 -458 397 -301 b 915 331 757 106 839 197 b 839 386 906 357 868 383 z m 46 -275 b -24 -207 4 -275 -24 -251 b 283 -14 -24 -108 107 -58 b 46 -275 206 -192 129 -275 z "},"K":{"ha":1244,"x_min":0,"x_max":0,"o":"m 789 375 b 861 76 872 321 896 256 l 831 -106 b 1129 -389 804 -282 911 -426 l 1129 -231 b 1039 -101 1040 -232 1029 -200 l 1075 107 b 1003 392 1092 204 1099 329 b 1324 719 1136 415 1244 525 l 1382 860 b 1558 967 1432 979 1485 974 l 1594 1124 b 1183 918 1353 1171 1239 1057 l 1097 706 b 826 510 1018 524 928 485 l 976 879 b 1089 1008 1018 981 1089 1008 l 1049 1128 b 846 1035 965 1128 896 1088 b 228 643 543 932 228 917 b 511 388 226 493 342 388 l 511 568 b 414 651 476 568 414 585 b 731 818 414 756 558 769 l 544 357 b 244 46 467 168 379 46 b 104 176 167 46 104 106 b 260 294 104 222 129 304 l 260 478 b -85 175 50 494 -85 349 b 254 -137 -85 18 25 -137 b 719 244 399 -137 594 -72 l 772 378 z "},"L":{"ha":1118,"x_min":0,"x_max":0,"o":"m 153 357 b -90 121 -14 357 -90 222 b 165 -99 -90 26 -22 -99 b 413 3 271 -99 351 -58 b 697 -254 543 -117 615 -189 b 951 -365 782 -321 860 -365 b 1260 -221 1047 -365 1160 -317 l 1133 -78 b 949 -176 1067 -142 1007 -176 b 807 -108 910 -176 875 -161 b 519 147 736 -50 597 75 b 611 358 556 214 586 289 b 1050 489 813 356 954 417 b 1275 892 1204 603 1275 764 b 1022 1161 1275 1069 1151 1161 b 475 556 739 1161 600 860 b 317 747 326 600 317 715 b 415 915 317 874 413 914 l 310 1069 b 128 749 206 1010 128 893 b 407 389 128 581 228 447 b 358 285 390 354 375 318 b 153 357 296 328 232 357 z m 985 942 b 1050 868 1029 942 1050 915 b 925 640 1050 819 1017 719 b 683 542 868 592 790 551 b 985 942 788 789 889 942 z m 149 71 b 81 129 111 71 81 93 b 149 196 81 164 107 196 b 263 136 179 196 217 176 b 149 71 228 96 189 71 z "},"M":{"ha":1578,"x_min":0,"x_max":0,"o":"m 683 1072 b 0 621 363 953 0 908 b 283 365 -1 471 114 365 l 283 546 b 186 629 249 546 186 563 b 599 860 186 746 385 789 l 246 -18 l 467 -18 l 769 738 b 960 854 840 810 917 854 b 997 822 985 854 997 842 b 933 639 997 793 968 722 l 669 -18 l 890 -18 l 1189 728 b 1386 854 1260 807 1342 854 b 1422 822 1410 854 1422 842 b 1358 639 1422 793 1393 722 l 1118 43 b 1308 -337 1060 -114 1092 -265 l 1376 -169 b 1324 3 1296 -128 1294 -78 l 1614 722 b 1665 915 1647 806 1665 867 b 1528 1060 1665 994 1618 1060 b 1242 924 1457 1060 1338 1018 b 1103 1060 1239 999 1189 1060 b 858 961 1036 1060 938 1025 z "},"N":{"ha":1197,"x_min":0,"x_max":0,"o":"m 683 1072 b 0 621 363 953 0 908 b 283 365 -1 471 114 365 l 283 546 b 186 629 249 546 186 563 b 599 860 186 746 385 789 l 246 -18 l 467 -18 l 740 665 b 1010 854 819 750 957 854 b 1042 822 1028 854 1042 842 b 978 639 1042 793 1013 726 l 738 43 b 928 -337 679 -114 711 -265 l 996 -169 b 943 3 915 -128 914 -78 l 1232 722 b 1285 914 1265 806 1285 863 b 1147 1060 1285 994 1238 1060 b 832 893 1047 1060 929 981 z "},"O":{"ha":1010,"x_min":0,"x_max":0,"o":"m 1036 386 b 813 246 1006 335 939 239 b 976 821 918 431 976 651 b 707 1157 976 1068 843 1157 b 475 1042 607 1157 531 1111 b 0 232 167 915 0 494 b 306 -125 0 44 85 -125 b 738 132 478 -125 625 -18 b 1114 331 918 94 1054 228 b 1036 386 1103 357 1065 383 z m 546 218 b 319 46 476 117 397 46 b 206 218 236 46 206 128 b 360 706 206 354 278 558 b 546 218 342 358 546 218 z m 533 656 b 682 935 533 836 608 935 b 764 806 733 935 764 888 b 626 351 764 700 708 513 b 533 656 568 425 533 532 z "},"P":{"ha":971,"x_min":0,"x_max":0,"o":"m 539 704 b 651 833 581 804 651 833 l 611 953 b 336 751 472 953 375 847 l 26 -18 l 247 -18 l 397 357 b 1043 758 771 203 1043 469 b 557 1185 1043 968 899 1185 b -4 688 156 1185 -4 888 b 64 453 -4 557 64 453 l 211 563 b 179 690 211 563 179 624 b 557 1013 179 826 310 1013 b 832 757 771 1013 832 869 b 454 497 832 543 618 406 z "},"Q":{"ha":993,"x_min":0,"x_max":0,"o":"m 997 767 b 625 1157 997 911 942 1157 b 67 624 290 1157 67 883 b 388 331 67 454 161 324 l 422 481 b 276 614 392 482 276 472 b 597 971 276 767 413 971 b 782 764 721 971 782 879 b 496 178 782 592 649 342 b 211 293 413 244 322 293 b -49 57 24 293 -49 157 b 210 -162 -49 -69 65 -162 b 497 -60 303 -162 403 -124 b 776 -318 625 -175 675 -239 b 1033 -429 857 -379 939 -429 b 1340 -285 1128 -429 1242 -379 l 1214 -140 b 1029 -239 1147 -204 1088 -239 b 888 -171 990 -239 951 -222 b 638 53 821 -118 717 -21 b 997 767 840 249 997 542 z m 218 7 b 122 71 172 7 122 26 b 196 126 122 101 147 126 b 357 57 247 126 304 99 b 218 7 308 25 260 7 z "},"R":{"ha":964,"x_min":0,"x_max":0,"o":"m 539 704 b 651 833 579 803 651 833 l 611 953 b 336 751 472 953 375 847 l 26 -18 l 247 -18 l 424 418 b 501 389 428 417 460 401 b 550 76 579 335 582 243 l 518 -106 b 824 -389 492 -282 600 -426 l 824 -231 b 733 -101 735 -232 724 -200 l 769 107 b 708 371 783 194 792 304 b 1043 772 918 401 1043 592 b 556 1185 1043 965 899 1185 b -4 686 156 1185 -4 886 b 64 453 -4 557 64 453 l 211 563 b 179 690 211 563 179 624 b 557 1013 179 826 311 1013 b 832 768 771 1013 832 868 b 481 558 832 593 643 457 z "},"S":{"ha":946,"x_min":0,"x_max":0,"o":"m 169 304 b 447 486 169 460 304 558 l 514 654 b -28 296 271 779 -28 615 b 51 42 -28 196 1 110 b -62 -329 -40 -79 -83 -210 l 82 -329 b 163 -58 63 -221 93 -140 b 417 -125 233 -100 319 -125 b 878 331 681 -125 878 51 b 847 581 878 407 864 494 b 1090 967 975 706 1090 832 b 874 1178 1090 1064 1028 1178 b 596 847 708 1178 596 1051 b 632 588 596 767 613 675 b 196 192 489 458 310 299 b 169 304 178 225 169 263 z m 671 342 b 414 67 671 188 567 67 b 310 89 376 67 340 74 b 665 411 411 181 542 296 b 671 342 667 386 671 363 z m 800 867 b 872 992 800 899 804 992 b 917 940 908 992 917 964 b 811 761 917 892 885 838 b 800 867 804 800 800 836 z "},"T":{"ha":924,"x_min":0,"x_max":0,"o":"m 1497 1017 l 1382 1081 b 1214 1040 1382 1081 1342 1040 b 404 1168 981 1040 631 1168 b 74 890 165 1168 74 1029 b 329 640 74 726 199 640 b 528 717 453 640 528 717 l 439 851 b 343 810 439 851 397 810 b 253 890 300 810 253 836 b 392 982 253 942 294 982 b 810 908 488 982 647 944 l 617 431 b 325 119 536 236 456 119 b 189 247 254 119 189 168 b 344 368 189 297 214 378 l 344 551 b 0 249 128 568 0 417 b 339 -64 0 92 110 -64 b 793 318 465 -64 661 -15 l 1017 869 b 1221 854 1078 860 1172 854 b 1497 1017 1474 854 1497 1017 z "},"U":{"ha":1242,"x_min":0,"x_max":0,"o":"m 1269 386 b 1043 142 1172 219 1107 142 b 1036 301 1014 142 982 160 l 1318 1008 l 1097 1008 l 854 400 b 560 142 788 272 640 142 b 575 335 544 142 500 146 l 782 847 b 894 978 824 950 894 978 l 854 1097 b 635 985 760 1097 683 1047 b 0 551 329 879 0 824 b 283 294 -1 401 114 294 l 283 476 b 186 560 249 476 186 492 b 529 768 186 665 347 710 l 369 372 b 479 -53 250 82 331 -53 b 797 149 606 -53 715 47 b 951 -18 785 25 869 -18 b 1346 331 1113 -18 1240 146 b 1269 386 1336 357 1299 383 z "},"V":{"ha":1163,"x_min":0,"x_max":0,"o":"m 785 869 b 907 1008 814 992 907 1008 l 867 1128 b 625 1001 746 1128 668 1067 b 0 572 324 897 0 843 b 283 315 -1 422 114 315 l 283 496 b 186 579 249 496 186 513 b 556 797 186 690 363 735 l 375 -18 l 590 -18 b 1342 1161 1233 349 1324 935 l 1136 1133 b 647 240 1115 911 1003 514 z "},"W":{"ha":1482,"x_min":0,"x_max":0,"o":"m 1200 419 b 958 135 1132 264 1026 135 b 974 317 931 135 908 156 l 1253 1008 l 1031 1008 l 792 418 b 550 135 721 260 617 135 b 565 317 522 135 500 156 b 790 878 565 317 586 372 b 903 1008 832 981 903 1008 l 863 1128 b 635 1004 763 1128 685 1071 b 0 572 331 899 0 846 b 283 315 -1 422 114 315 l 283 496 b 186 579 249 496 186 513 b 535 790 186 686 351 732 l 367 374 b 482 -51 251 90 319 -51 b 772 99 611 -51 719 39 b 947 -51 768 36 808 -51 b 1406 376 1178 -51 1328 183 l 1600 860 b 1776 967 1650 979 1703 974 l 1813 1124 b 1403 919 1572 1171 1460 1060 z "},"X":{"ha":1099,"x_min":0,"x_max":0,"o":"m 1158 1053 l 883 665 l 868 894 b 983 1050 863 992 946 1036 l 943 1169 b 693 1036 838 1169 744 1131 b 89 614 399 938 89 878 b 372 357 88 464 203 357 l 372 538 b 275 619 339 538 275 554 b 671 847 275 736 468 781 l 700 407 l 547 193 b 229 -51 496 121 357 -51 b 128 32 189 -51 128 -35 b 257 125 128 76 157 125 l 257 300 b -56 22 -3 300 -56 118 b 232 -235 -56 -124 63 -235 b 696 65 456 -235 631 -28 l 718 99 l 733 -121 b 1093 -392 754 -425 967 -431 l 1060 -221 b 933 -103 992 -240 942 -240 l 903 358 l 1311 932 b 1514 997 1388 1038 1444 1021 l 1586 1143 b 1158 1053 1375 1233 1247 1178 z "},"Y":{"ha":1201,"x_min":0,"x_max":0,"o":"m 1228 386 b 950 94 1156 257 1067 167 l 1319 1008 l 1099 1008 l 854 400 b 560 142 788 276 643 142 b 575 335 542 142 501 149 l 782 847 b 894 978 824 950 894 978 l 854 1097 b 635 985 760 1097 683 1047 b 0 551 329 879 0 825 b 283 294 -1 401 114 294 l 283 476 b 186 560 249 476 186 492 b 531 768 186 665 347 710 l 369 372 b 476 -53 250 83 332 -53 b 721 69 564 -53 650 0 l 675 -43 b 511 -114 613 -71 550 -94 b 333 -324 438 -147 335 -210 b 524 -506 333 -401 379 -506 b 883 -72 754 -506 818 -232 b 1306 331 1043 11 1178 110 b 1228 386 1294 357 1257 383 z m 499 -351 b 460 -317 482 -351 460 -343 b 529 -231 460 -282 494 -250 b 617 -189 549 -218 579 -206 b 499 -351 569 -303 536 -351 z "},"Z":{"ha":928,"x_min":0,"x_max":0,"o":"m 494 354 b 403 244 465 317 433 279 b 142 358 324 308 243 358 b -104 122 -29 358 -104 221 b 147 -99 -104 26 -33 -99 b 413 -3 246 -99 332 -61 b 689 -256 535 -115 621 -201 b 943 -365 758 -311 846 -362 b 1253 -221 1033 -368 1147 -322 l 1126 -78 b 940 -176 1060 -142 1000 -176 b 800 -108 903 -176 868 -161 b 544 117 735 -56 624 44 b 714 324 604 181 658 251 l 1178 933 b 1290 1008 1226 990 1288 1007 l 1250 1128 b 1072 1065 1172 1128 1119 1103 b 521 1129 915 1025 710 1129 b 203 849 301 1129 203 990 b 458 601 203 688 328 601 b 657 678 581 601 657 678 l 568 813 b 471 771 568 813 528 771 b 382 853 428 771 382 797 b 525 958 382 904 422 958 b 900 889 625 958 764 906 z m 138 71 b 67 129 96 69 67 93 b 133 196 67 165 93 196 b 269 125 174 196 218 168 b 138 71 219 90 175 71 z "},"[":{"ha":610,"x_min":0,"x_max":0,"o":"m 1035 510 l 1078 528 b 1078 553 1094 535 1094 546 l 1035 571 b 1031 601 1017 578 1017 592 l 1069 628 b 1065 654 1085 640 1083 650 l 1018 663 b 1008 692 999 665 996 679 l 1042 728 b 1031 751 1053 740 1050 751 l 982 749 b 968 776 964 747 957 761 l 993 817 b 978 836 1003 833 996 842 l 931 826 b 910 850 914 821 904 832 l 925 893 b 907 913 932 913 924 919 l 864 890 b 838 908 849 882 836 890 l 844 956 b 824 969 846 974 838 981 l 785 940 b 756 953 771 929 757 933 l 753 1001 b 729 1008 751 1019 740 1022 l 697 972 b 667 979 685 957 672 961 l 653 1025 b 628 1026 649 1042 636 1043 l 604 985 b 594 974 603 979 600 976 b 608 954 593 965 596 960 l 651 936 b 651 911 671 929 671 917 l 608 892 b 604 860 592 885 590 872 l 644 833 b 640 810 660 824 657 813 l 593 801 b 576 781 579 799 572 789 b 700 469 650 743 700 608 l 719 497 b 647 721 713 586 688 668 b 728 513 688 678 717 599 b 768 631 747 547 757 586 b 688 711 717 636 688 664 b 771 792 688 758 729 792 b 860 699 824 792 860 751 b 474 256 860 519 674 256 b 346 346 392 256 346 293 b 411 421 346 389 374 421 b 482 353 457 421 482 390 b 504 326 482 338 489 328 l 504 336 b 492 374 504 350 501 363 b 514 325 507 361 514 344 l 519 325 b 583 350 560 325 572 336 b 515 635 583 433 551 565 l 506 636 b 486 614 489 642 479 631 l 501 568 b 482 551 507 551 499 543 l 439 571 b 414 553 424 579 411 571 l 419 506 b 399 493 424 488 414 482 l 360 522 b 331 510 346 533 333 528 l 328 463 b 304 454 326 444 317 440 l 272 490 b 242 485 261 504 247 501 l 229 438 b 204 435 224 421 213 418 l 182 478 b 157 486 175 489 165 493 b 149 478 156 485 153 481 l 110 450 b 115 425 94 440 96 429 l 161 417 b 172 386 181 414 183 400 l 138 353 b 149 329 126 340 129 329 l 197 332 b 213 304 215 332 222 319 l 186 263 b 201 242 176 247 183 239 l 249 254 b 269 231 265 260 276 247 l 254 185 b 272 168 247 168 256 160 l 314 189 b 342 169 331 197 343 189 l 335 124 b 357 111 331 104 342 100 l 393 140 b 424 126 408 151 422 144 l 426 79 b 450 71 429 61 439 58 l 482 108 b 513 101 494 121 507 119 l 526 56 b 551 53 531 38 543 38 l 572 94 b 604 94 583 111 596 111 l 628 53 b 653 56 636 38 649 38 l 667 101 b 697 108 672 119 685 121 l 729 71 b 753 79 740 58 751 61 l 756 126 b 785 140 757 144 771 151 l 824 111 b 844 124 838 100 846 104 l 838 169 b 864 189 836 189 849 197 l 907 168 b 925 185 924 160 932 168 l 910 231 b 931 254 904 247 914 260 l 978 242 b 993 263 996 239 1003 247 l 968 304 b 982 332 957 319 964 332 l 1031 329 b 1042 353 1050 329 1053 340 l 1008 386 b 1018 417 996 400 999 414 l 1065 425 b 1069 450 1083 429 1085 440 l 1031 478 b 1035 510 1017 488 1017 503 z m 506 228 b 422 246 471 228 442 233 b 490 233 440 238 464 233 b 763 390 593 233 690 301 b 881 682 833 479 881 590 b 864 739 881 704 875 722 b 892 671 882 722 892 697 b 506 228 892 490 706 228 z "},"\\":{"ha":533,"x_min":0,"x_max":0,"o":"m 1035 510 l 1078 528 b 1078 553 1094 535 1094 546 l 1035 571 b 1031 601 1017 578 1017 592 l 1069 628 b 1065 654 1085 640 1083 650 l 1018 663 b 1008 692 999 665 996 679 l 1042 728 b 1031 751 1053 740 1050 751 l 982 749 b 968 776 964 747 957 761 l 993 817 b 978 836 1003 833 996 842 l 931 826 b 910 850 914 821 904 832 l 925 893 b 907 913 932 913 924 919 l 864 890 b 838 908 849 882 836 890 l 844 956 b 824 969 846 974 838 981 l 785 940 b 756 953 771 929 757 933 l 753 1001 b 729 1008 751 1019 740 1022 l 697 972 b 667 979 685 957 672 961 l 653 1025 b 628 1026 649 1042 636 1043 l 604 985 b 594 974 603 979 600 976 b 608 954 593 965 596 960 l 651 936 b 651 911 671 929 671 917 l 608 892 b 604 860 592 885 590 872 l 644 833 b 640 810 660 824 657 813 l 593 801 b 576 781 579 799 572 789 b 700 469 650 743 700 608 l 719 497 b 647 721 713 586 688 668 b 728 513 688 678 717 599 b 768 631 747 547 757 586 b 688 711 717 636 688 664 b 771 792 688 758 729 792 b 860 699 824 792 860 751 b 474 256 860 519 674 256 b 346 346 392 256 346 293 b 411 421 346 389 374 421 b 482 353 457 421 482 390 b 504 326 482 338 489 328 l 504 336 b 492 374 504 350 501 363 b 514 325 507 361 514 344 l 519 325 b 583 350 560 325 572 336 b 515 635 583 433 551 565 l 506 636 b 486 614 489 642 479 631 l 501 568 b 482 551 507 551 499 543 l 439 571 b 414 553 424 579 411 571 l 419 506 b 399 493 424 488 414 482 l 360 522 b 331 510 346 533 333 528 l 328 463 b 304 454 326 444 317 440 l 272 490 b 242 485 261 504 247 501 l 229 438 b 204 435 224 421 213 418 l 182 478 b 157 486 175 489 165 493 b 149 478 156 485 153 481 l 110 450 b 115 425 94 440 96 429 l 161 417 b 172 386 181 414 183 400 l 138 353 b 149 329 126 340 129 329 l 197 332 b 213 304 215 332 222 319 l 186 263 b 201 242 176 247 183 239 l 249 254 b 269 231 265 260 276 247 l 254 185 b 272 168 247 168 256 160 l 314 189 b 342 169 331 197 343 189 l 335 124 b 357 111 331 104 342 100 l 393 140 b 424 126 408 151 422 144 l 426 79 b 450 71 429 61 439 58 l 482 108 b 513 101 494 121 507 119 l 526 56 b 551 53 531 38 543 38 l 572 94 b 604 94 583 111 596 111 l 628 53 b 653 56 636 38 649 38 l 667 101 b 697 108 672 119 685 121 l 729 71 b 753 79 740 58 751 61 l 756 126 b 785 140 757 144 771 151 l 824 111 b 844 124 838 100 846 104 l 838 169 b 864 189 836 189 849 197 l 907 168 b 925 185 924 160 932 168 l 910 231 b 931 254 904 247 914 260 l 978 242 b 993 263 996 239 1003 247 l 968 304 b 982 332 957 319 964 332 l 1031 329 b 1042 353 1050 329 1053 340 l 1008 386 b 1018 417 996 400 999 414 l 1065 425 b 1069 450 1083 429 1085 440 l 1031 478 b 1035 510 1017 488 1017 503 z m 506 228 b 422 246 471 228 442 233 b 490 233 440 238 464 233 b 763 390 593 233 690 301 b 881 682 833 479 881 590 b 864 739 881 704 875 722 b 892 671 882 722 892 697 b 506 228 892 490 706 228 z "},"]":{"ha":608,"x_min":0,"x_max":0,"o":"m 1035 510 l 1078 528 b 1078 553 1094 535 1094 546 l 1035 571 b 1031 601 1017 578 1017 592 l 1069 628 b 1065 654 1085 640 1083 650 l 1018 663 b 1008 692 999 665 996 679 l 1042 728 b 1031 751 1053 740 1050 751 l 982 749 b 968 776 964 747 957 761 l 993 817 b 978 836 1003 833 996 842 l 931 826 b 910 850 914 821 904 832 l 925 893 b 907 913 932 913 924 919 l 864 890 b 838 908 849 882 836 890 l 844 956 b 824 969 846 974 838 981 l 785 940 b 756 953 771 929 757 933 l 753 1001 b 729 1008 751 1019 740 1022 l 697 972 b 667 979 685 957 672 961 l 653 1025 b 628 1026 649 1042 636 1043 l 604 985 b 594 974 603 979 600 976 b 608 954 593 965 596 960 l 651 936 b 651 911 671 929 671 917 l 608 892 b 604 860 592 885 590 872 l 644 833 b 640 810 660 824 657 813 l 593 801 b 576 781 579 799 572 789 b 700 469 650 743 700 608 l 719 497 b 647 721 713 586 688 668 b 728 513 688 678 717 599 b 768 631 747 547 757 586 b 688 711 717 636 688 664 b 771 792 688 758 729 792 b 860 699 824 792 860 751 b 474 256 860 519 674 256 b 346 346 392 256 346 293 b 411 421 346 389 374 421 b 482 353 457 421 482 390 b 504 326 482 338 489 328 l 504 336 b 492 374 504 350 501 363 b 514 325 507 361 514 344 l 519 325 b 583 350 560 325 572 336 b 515 635 583 433 551 565 l 506 636 b 486 614 489 642 479 631 l 501 568 b 482 551 507 551 499 543 l 439 571 b 414 553 424 579 411 571 l 419 506 b 399 493 424 488 414 482 l 360 522 b 331 510 346 533 333 528 l 328 463 b 304 454 326 444 317 440 l 272 490 b 242 485 261 504 247 501 l 229 438 b 204 435 224 421 213 418 l 182 478 b 157 486 175 489 165 493 b 149 478 156 485 153 481 l 110 450 b 115 425 94 440 96 429 l 161 417 b 172 386 181 414 183 400 l 138 353 b 149 329 126 340 129 329 l 197 332 b 213 304 215 332 222 319 l 186 263 b 201 242 176 247 183 239 l 249 254 b 269 231 265 260 276 247 l 254 185 b 272 168 247 168 256 160 l 314 189 b 342 169 331 197 343 189 l 335 124 b 357 111 331 104 342 100 l 393 140 b 424 126 408 151 422 144 l 426 79 b 450 71 429 61 439 58 l 482 108 b 513 101 494 121 507 119 l 526 56 b 551 53 531 38 543 38 l 572 94 b 604 94 583 111 596 111 l 628 53 b 653 56 636 38 649 38 l 667 101 b 697 108 672 119 685 121 l 729 71 b 753 79 740 58 751 61 l 756 126 b 785 140 757 144 771 151 l 824 111 b 844 124 838 100 846 104 l 838 169 b 864 189 836 189 849 197 l 907 168 b 925 185 924 160 932 168 l 910 231 b 931 254 904 247 914 260 l 978 242 b 993 263 996 239 1003 247 l 968 304 b 982 332 957 319 964 332 l 1031 329 b 1042 353 1050 329 1053 340 l 1008 386 b 1018 417 996 400 999 414 l 1065 425 b 1069 450 1083 429 1085 440 l 1031 478 b 1035 510 1017 488 1017 503 z m 506 228 b 422 246 471 228 442 233 b 490 233 440 238 464 233 b 763 390 593 233 690 301 b 881 682 833 479 881 590 b 864 739 881 704 875 722 b 892 671 882 722 892 697 b 506 228 892 490 706 228 z "},"^":{"ha":724,"x_min":0,"x_max":0,"o":"m 0 422 l 249 422 l 465 689 l 465 422 l 656 422 l 656 996 l 472 996 z "},"_":{"ha":774,"x_min":0,"x_max":0,"o":"m 1035 510 l 1078 528 b 1078 553 1094 535 1094 546 l 1035 571 b 1031 601 1017 578 1017 592 l 1069 628 b 1065 654 1085 640 1083 650 l 1018 663 b 1008 692 999 665 996 679 l 1042 728 b 1031 751 1053 740 1050 751 l 982 749 b 968 776 964 747 957 761 l 993 817 b 978 836 1003 833 996 842 l 931 826 b 910 850 914 821 904 832 l 925 893 b 907 913 932 913 924 919 l 864 890 b 838 908 849 882 836 890 l 844 956 b 824 969 846 974 838 981 l 785 940 b 756 953 771 929 757 933 l 753 1001 b 729 1008 751 1019 740 1022 l 697 972 b 667 979 685 957 672 961 l 653 1025 b 628 1026 649 1042 636 1043 l 604 985 b 594 974 603 979 600 976 b 608 954 593 965 596 960 l 651 936 b 651 911 671 929 671 917 l 608 892 b 604 860 592 885 590 872 l 644 833 b 640 810 660 824 657 813 l 593 801 b 576 781 579 799 572 789 b 700 469 650 743 700 608 l 719 497 b 647 721 713 586 688 668 b 728 513 688 678 717 599 b 768 631 747 547 757 586 b 688 711 717 636 688 664 b 771 792 688 758 729 792 b 860 699 824 792 860 751 b 474 256 860 519 674 256 b 346 346 392 256 346 293 b 411 421 346 389 374 421 b 482 353 457 421 482 390 b 504 326 482 338 489 328 l 504 336 b 492 374 504 350 501 363 b 514 325 507 361 514 344 l 519 325 b 583 350 560 325 572 336 b 515 635 583 433 551 565 l 506 636 b 486 614 489 642 479 631 l 501 568 b 482 551 507 551 499 543 l 439 571 b 414 553 424 579 411 571 l 419 506 b 399 493 424 488 414 482 l 360 522 b 331 510 346 533 333 528 l 328 463 b 304 454 326 444 317 440 l 272 490 b 242 485 261 504 247 501 l 229 438 b 204 435 224 421 213 418 l 182 478 b 157 486 175 489 165 493 b 149 478 156 485 153 481 l 110 450 b 115 425 94 440 96 429 l 161 417 b 172 386 181 414 183 400 l 138 353 b 149 329 126 340 129 329 l 197 332 b 213 304 215 332 222 319 l 186 263 b 201 242 176 247 183 239 l 249 254 b 269 231 265 260 276 247 l 254 185 b 272 168 247 168 256 160 l 314 189 b 342 169 331 197 343 189 l 335 124 b 357 111 331 104 342 100 l 393 140 b 424 126 408 151 422 144 l 426 79 b 450 71 429 61 439 58 l 482 108 b 513 101 494 121 507 119 l 526 56 b 551 53 531 38 543 38 l 572 94 b 604 94 583 111 596 111 l 628 53 b 653 56 636 38 649 38 l 667 101 b 697 108 672 119 685 121 l 729 71 b 753 79 740 58 751 61 l 756 126 b 785 140 757 144 771 151 l 824 111 b 844 124 838 100 846 104 l 838 169 b 864 189 836 189 849 197 l 907 168 b 925 185 924 160 932 168 l 910 231 b 931 254 904 247 914 260 l 978 242 b 993 263 996 239 1003 247 l 968 304 b 982 332 957 319 964 332 l 1031 329 b 1042 353 1050 329 1053 340 l 1008 386 b 1018 417 996 400 999 414 l 1065 425 b 1069 450 1083 429 1085 440 l 1031 478 b 1035 510 1017 488 1017 503 z m 506 228 b 422 246 471 228 442 233 b 490 233 440 238 464 233 b 763 390 593 233 690 301 b 881 682 833 479 881 590 b 864 739 881 704 875 722 b 892 671 882 722 892 697 b 506 228 892 490 706 228 z "},"`":{"ha":514,"x_min":0,"x_max":0,"o":"m 1035 510 l 1078 528 b 1078 553 1094 535 1094 546 l 1035 571 b 1031 601 1017 578 1017 592 l 1069 628 b 1065 654 1085 640 1083 650 l 1018 663 b 1008 692 999 665 996 679 l 1042 728 b 1031 751 1053 740 1050 751 l 982 749 b 968 776 964 747 957 761 l 993 817 b 978 836 1003 833 996 842 l 931 826 b 910 850 914 821 904 832 l 925 893 b 907 913 932 913 924 919 l 864 890 b 838 908 849 882 836 890 l 844 956 b 824 969 846 974 838 981 l 785 940 b 756 953 771 929 757 933 l 753 1001 b 729 1008 751 1019 740 1022 l 697 972 b 667 979 685 957 672 961 l 653 1025 b 628 1026 649 1042 636 1043 l 604 985 b 594 974 603 979 600 976 b 608 954 593 965 596 960 l 651 936 b 651 911 671 929 671 917 l 608 892 b 604 860 592 885 590 872 l 644 833 b 640 810 660 824 657 813 l 593 801 b 576 781 579 799 572 789 b 700 469 650 743 700 608 l 719 497 b 647 721 713 586 688 668 b 728 513 688 678 717 599 b 768 631 747 547 757 586 b 688 711 717 636 688 664 b 771 792 688 758 729 792 b 860 699 824 792 860 751 b 474 256 860 519 674 256 b 346 346 392 256 346 293 b 411 421 346 389 374 421 b 482 353 457 421 482 390 b 504 326 482 338 489 328 l 504 336 b 492 374 504 350 501 363 b 514 325 507 361 514 344 l 519 325 b 583 350 560 325 572 336 b 515 635 583 433 551 565 l 506 636 b 486 614 489 642 479 631 l 501 568 b 482 551 507 551 499 543 l 439 571 b 414 553 424 579 411 571 l 419 506 b 399 493 424 488 414 482 l 360 522 b 331 510 346 533 333 528 l 328 463 b 304 454 326 444 317 440 l 272 490 b 242 485 261 504 247 501 l 229 438 b 204 435 224 421 213 418 l 182 478 b 157 486 175 489 165 493 b 149 478 156 485 153 481 l 110 450 b 115 425 94 440 96 429 l 161 417 b 172 386 181 414 183 400 l 138 353 b 149 329 126 340 129 329 l 197 332 b 213 304 215 332 222 319 l 186 263 b 201 242 176 247 183 239 l 249 254 b 269 231 265 260 276 247 l 254 185 b 272 168 247 168 256 160 l 314 189 b 342 169 331 197 343 189 l 335 124 b 357 111 331 104 342 100 l 393 140 b 424 126 408 151 422 144 l 426 79 b 450 71 429 61 439 58 l 482 108 b 513 101 494 121 507 119 l 526 56 b 551 53 531 38 543 38 l 572 94 b 604 94 583 111 596 111 l 628 53 b 653 56 636 38 649 38 l 667 101 b 697 108 672 119 685 121 l 729 71 b 753 79 740 58 751 61 l 756 126 b 785 140 757 144 771 151 l 824 111 b 844 124 838 100 846 104 l 838 169 b 864 189 836 189 849 197 l 907 168 b 925 185 924 160 932 168 l 910 231 b 931 254 904 247 914 260 l 978 242 b 993 263 996 239 1003 247 l 968 304 b 982 332 957 319 964 332 l 1031 329 b 1042 353 1050 329 1053 340 l 1008 386 b 1018 417 996 400 999 414 l 1065 425 b 1069 450 1083 429 1085 440 l 1031 478 b 1035 510 1017 488 1017 503 z m 506 228 b 422 246 471 228 442 233 b 490 233 440 238 464 233 b 763 390 593 233 690 301 b 881 682 833 479 881 590 b 864 739 881 704 875 722 b 892 671 882 722 892 697 b 506 228 892 490 706 228 z "},"a":{"ha":826,"x_min":0,"x_max":0,"o":"m 853 386 b 603 118 753 215 658 118 b 617 296 578 118 554 139 l 789 721 l 529 626 b 364 739 529 626 499 739 b -19 164 99 739 -19 313 b 138 -18 -19 64 33 -18 b 356 97 260 -18 356 97 b 518 -18 356 97 374 -18 b 931 331 688 -18 822 142 b 853 386 919 357 882 383 z m 240 158 b 196 210 213 158 196 174 b 408 558 196 299 299 558 b 471 481 469 558 471 481 l 381 258 b 240 158 381 258 317 158 z "},"b":{"ha":769,"x_min":0,"x_max":0,"o":"m 796 386 b 581 208 750 307 690 229 b 693 576 665 351 693 514 b 531 739 693 672 632 739 b 349 653 419 739 349 653 l 488 996 l 267 996 b 50 460 267 996 56 474 b 221 -18 -78 144 6 -18 b 506 108 344 -18 436 33 b 874 331 704 111 803 207 b 796 386 863 357 825 383 z m 403 558 b 465 496 451 558 465 525 b 374 238 465 458 429 331 b 276 396 314 271 276 326 b 403 558 276 503 358 558 z m 243 126 b 206 282 178 126 186 211 b 314 161 228 231 267 189 b 243 126 292 139 268 126 z "},"c":{"ha":711,"x_min":0,"x_max":0,"o":"m 738 386 b 349 118 639 211 489 118 b 207 222 299 118 207 132 b 424 564 207 315 304 564 b 383 365 468 564 463 528 l 604 365 b 433 739 722 600 631 739 b -1 228 140 739 -1 414 b 285 -18 -1 76 92 -18 b 815 331 551 -18 721 164 b 738 386 804 357 767 383 z "},"d":{"ha":825,"x_min":0,"x_max":0,"o":"m 851 386 b 601 118 751 215 657 118 b 615 296 578 118 551 138 l 899 996 l 678 996 l 528 626 b 364 739 528 626 496 739 b -22 163 110 739 -22 317 b 135 -18 -22 67 31 -18 b 354 97 258 -18 354 97 b 518 -18 354 97 372 -18 b 929 331 686 -18 821 142 b 851 386 918 357 881 383 z m 239 158 b 194 210 211 158 194 174 b 407 558 194 299 297 558 b 469 481 468 558 469 481 l 379 258 b 239 158 379 258 317 158 z "},"e":{"ha":710,"x_min":0,"x_max":0,"o":"m 736 386 b 346 118 638 211 488 118 b 210 263 169 118 210 263 b 636 436 467 229 578 310 b 435 739 725 636 592 739 b -3 228 138 739 -3 413 b 283 -18 -3 76 90 -18 b 814 331 550 -18 719 164 b 736 386 803 357 765 383 z m 424 563 b 444 483 471 563 463 525 b 247 382 417 418 375 360 b 424 563 247 382 321 563 z "},"f":{"ha":606,"x_min":0,"x_max":0,"o":"m 632 386 b 285 146 536 218 431 146 b 164 190 229 146 190 167 l 189 250 b 499 449 369 256 428 318 b 669 865 615 661 654 806 b 510 1107 700 981 661 1107 b 194 813 375 1107 279 1028 l -192 -147 b -61 -436 -264 -326 -199 -436 b 175 -286 47 -436 122 -371 b 263 -29 222 -207 251 -110 b 265 51 268 13 265 51 b 710 331 463 44 607 143 b 632 386 699 357 661 383 z m 525 939 b 532 846 554 939 543 885 b 376 492 515 789 479 683 b 229 350 326 400 299 360 l 390 747 b 525 939 429 843 476 939 z m 157 -22 b -3 -300 138 -114 81 -301 b -4 -226 -24 -300 -26 -286 l 124 89 b 157 -22 154 79 172 51 z "},"g":{"ha":813,"x_min":0,"x_max":0,"o":"m 839 386 b 517 53 740 214 647 119 l 789 721 l 529 626 b 364 739 526 635 492 739 b -21 165 100 739 -21 314 b 135 -18 -21 64 33 -18 b 307 78 232 -18 307 78 l 269 -17 b 110 -90 239 -33 154 -69 b -49 -286 35 -126 -47 -189 b 124 -439 -49 -367 6 -439 b 431 -162 290 -439 374 -300 b 461 -83 440 -135 461 -83 b 917 331 625 -7 774 81 b 839 386 906 357 868 383 z m 240 158 b 196 210 213 158 196 174 b 408 558 196 299 299 558 b 469 481 468 558 469 481 l 379 258 b 240 158 379 258 317 158 z m 58 -271 b 114 -203 58 -243 86 -219 b 218 -146 147 -181 178 -169 b 93 -306 171 -272 124 -306 b 58 -271 75 -306 58 -294 z "},"h":{"ha":813,"x_min":0,"x_max":0,"o":"m 839 386 b 589 118 740 215 644 118 b 603 296 565 118 539 136 l 671 461 b 713 618 700 533 713 581 b 579 739 713 692 667 739 b 351 647 456 739 351 647 l 492 996 l 271 996 l -132 0 l 89 0 l 276 463 b 432 561 335 529 399 561 b 471 531 454 561 471 550 b 422 390 471 510 449 460 l 401 339 b 504 -18 304 96 360 -18 b 917 331 672 -18 804 135 b 839 386 906 357 868 383 z "},"i":{"ha":418,"x_min":0,"x_max":0,"o":"m 342 779 b 464 901 407 779 464 836 b 342 1022 464 969 407 1022 b 219 901 274 1022 219 969 b 342 779 219 836 274 779 z m 444 386 b 194 118 346 215 250 118 b 210 296 171 118 146 138 l 381 721 l 160 721 l 3 333 b 117 -18 -99 82 -10 -18 b 522 331 276 -18 415 143 b 444 386 511 357 474 383 z "},"j":{"ha":458,"x_min":0,"x_max":0,"o":"m 394 779 b 517 901 460 779 517 836 b 394 1022 517 969 460 1022 b 274 901 326 1022 274 969 b 394 779 274 836 326 779 z m 485 386 b 164 53 386 214 294 119 l 435 721 l 213 721 b 26 386 207 710 85 488 b 63 346 26 386 33 368 l -85 -17 b -244 -90 -115 -33 -193 -65 b -403 -286 -317 -122 -401 -187 b -231 -439 -403 -365 -350 -439 b 76 -162 -64 -439 19 -300 b 108 -83 86 -137 108 -83 b 563 331 271 -7 419 81 b 485 386 551 357 514 383 z m -297 -271 b -242 -203 -297 -242 -267 -218 b -137 -146 -207 -181 -179 -169 b -261 -306 -185 -271 -231 -306 b -297 -271 -278 -306 -297 -294 z "},"k":{"ha":776,"x_min":0,"x_max":0,"o":"m 803 386 b 507 118 710 224 585 122 b 435 256 435 113 432 199 b 650 422 521 263 601 326 b 713 622 658 439 713 550 b 578 739 713 689 667 739 b 351 647 457 739 351 647 l 492 996 l 271 996 l -132 0 l 89 0 l 276 463 b 433 561 339 531 396 561 b 467 526 456 561 467 550 b 450 457 467 503 456 472 b 288 332 403 333 328 332 b 229 247 256 332 235 317 b 442 -18 217 92 313 -18 b 881 331 618 -18 797 186 b 803 386 869 357 832 383 z "},"l":{"ha":418,"x_min":0,"x_max":0,"o":"m 444 386 b 194 118 346 215 250 118 b 210 296 171 118 146 138 l 492 996 l 271 996 l 3 333 b 117 -18 -99 82 -10 -18 b 522 331 276 -18 415 143 b 444 386 511 357 474 383 z "},"m":{"ha":1208,"x_min":0,"x_max":0,"o":"m 1235 386 b 985 118 1135 215 1040 118 b 999 296 961 118 935 136 l 1067 461 b 1108 618 1094 533 1108 579 b 974 739 1108 690 1063 739 b 713 619 854 739 746 653 b 578 739 711 690 665 739 b 351 647 463 739 358 654 l 160 721 l -132 0 l 89 0 l 276 463 b 432 561 335 529 399 561 b 469 532 453 561 469 550 b 421 390 469 510 446 453 b 263 0 374 274 308 115 l 485 0 l 671 464 b 828 561 729 528 793 561 b 864 531 849 561 864 550 b 815 390 864 510 842 456 l 796 339 b 901 -18 696 92 757 -18 b 1313 331 1068 -18 1201 138 b 1235 386 1301 357 1264 383 z "},"n":{"ha":813,"x_min":0,"x_max":0,"o":"m 839 386 b 589 118 740 215 644 118 b 603 296 565 118 539 136 l 671 461 b 713 618 700 533 713 581 b 579 739 713 692 667 739 b 351 647 461 739 358 654 l 160 721 l -132 0 l 89 0 l 276 463 b 432 561 335 529 399 561 b 469 531 453 561 469 550 b 421 390 469 510 447 457 l 400 339 b 506 -18 301 93 361 -18 b 917 331 672 -18 806 138 b 839 386 906 357 868 383 z "},"o":{"ha":799,"x_min":0,"x_max":0,"o":"m 825 386 b 632 226 768 289 700 238 b 694 481 674 311 694 404 b 433 739 694 642 601 739 b 3 246 139 739 3 432 b 269 -18 3 88 97 -18 b 560 119 393 -18 490 39 b 903 331 701 108 828 201 b 825 386 892 357 854 383 z m 268 126 b 214 200 235 126 214 156 b 431 594 214 303 321 594 b 485 522 460 594 485 574 b 454 383 485 488 474 438 b 336 272 386 386 336 335 b 367 194 336 242 347 215 b 268 126 336 154 301 126 z "},"p":{"ha":776,"x_min":0,"x_max":0,"o":"m 803 386 b 506 92 707 222 618 142 b 693 546 553 146 693 367 b 533 739 693 646 649 739 b 356 661 429 739 356 661 l 160 721 l -243 -275 l -22 -275 l 269 446 b 426 563 314 510 375 563 b 469 504 456 563 469 544 b 257 104 469 378 333 104 b 211 133 232 104 211 133 l 140 68 b 365 -18 140 68 190 -18 b 881 331 608 -18 776 146 b 803 386 869 357 832 383 z "},"q":{"ha":849,"x_min":0,"x_max":0,"o":"m 875 386 b 542 108 783 228 658 78 l 789 721 l 531 626 b 364 739 528 635 494 739 b -18 172 104 739 -15 324 b 139 -18 -21 65 33 -18 b 293 39 199 -18 253 10 l 218 -147 b 358 -436 146 -326 215 -436 b 650 -128 529 -436 619 -274 b 642 14 664 -65 660 -24 b 953 331 771 51 874 192 b 875 386 942 357 904 383 z m 242 158 b 197 215 213 158 196 175 b 410 558 200 304 300 558 b 472 481 467 558 472 486 l 381 257 b 242 158 376 250 315 158 z m 543 -112 b 410 -300 510 -210 475 -303 b 406 -226 385 -300 383 -286 l 499 4 b 543 -112 535 -6 568 -42 z "},"r":{"ha":617,"x_min":0,"x_max":0,"o":"m 104 331 b 215 554 143 399 178 467 b 283 469 253 522 283 497 b 271 421 283 463 282 449 l 226 308 b 350 -18 126 63 242 -18 b 721 331 503 -18 614 146 b 643 386 710 357 672 383 b 431 118 536 204 469 118 b 442 296 411 118 378 140 l 481 394 b 497 464 493 426 497 447 b 269 696 497 568 326 646 l 314 807 l 224 857 b 93 693 167 839 93 764 b 136 608 93 658 111 635 b 26 386 96 519 57 440 b 104 331 38 360 75 333 z "},"s":{"ha":571,"x_min":0,"x_max":0,"o":"m 104 331 b 204 522 132 379 168 451 b 207 306 201 453 207 367 b 135 133 207 171 179 133 b 92 153 115 133 104 139 l -31 76 b 204 -18 -29 75 32 -18 b 675 331 438 -18 574 149 b 597 386 664 357 626 383 b 404 144 535 278 478 203 b 411 219 408 161 411 181 b 417 721 410 307 381 525 l 225 769 b 26 386 172 653 82 481 b 104 331 38 360 75 333 z "},"t":{"ha":442,"x_min":0,"x_max":0,"o":"m 468 386 b 206 118 368 217 274 118 b 210 296 175 118 144 138 l 381 721 l 490 721 l 536 832 l 425 832 l 492 996 l 271 996 l 204 832 l 90 832 l 44 721 l 160 721 l 3 333 b 126 -18 -97 85 -11 -18 b 546 331 301 -18 443 150 b 468 386 535 357 497 383 z "},"u":{"ha":797,"x_min":0,"x_max":0,"o":"m 824 386 b 578 118 724 214 636 118 b 589 296 550 118 526 142 l 760 721 l 539 721 l 390 353 b 199 138 307 213 253 138 b 208 296 171 138 151 157 l 379 721 l 158 721 l 1 333 b 115 -18 -100 82 -10 -18 b 340 107 204 -18 276 32 b 497 -18 356 19 421 -18 b 901 331 656 -18 796 144 b 824 386 890 357 853 383 z "},"v":{"ha":710,"x_min":0,"x_max":0,"o":"m 736 386 b 486 243 649 238 563 211 b 715 739 650 442 699 638 l 539 721 b 193 176 478 449 329 278 l 313 721 l 96 721 l -62 0 l 154 0 b 401 153 354 100 401 153 b 814 331 579 74 721 167 b 736 386 803 357 765 383 z "},"w":{"ha":1136,"x_min":0,"x_max":0,"o":"m 1163 386 b 901 228 1088 258 990 208 b 1103 739 986 349 1056 518 l 914 721 b 804 382 882 576 843 467 b 674 272 733 393 674 342 b 692 208 674 249 681 226 b 578 138 644 157 604 138 b 589 296 549 138 535 158 l 761 721 l 540 721 l 393 354 b 200 138 308 211 254 138 b 210 296 174 138 153 156 l 381 721 l 160 721 l 3 333 b 117 -18 -100 78 -7 -18 b 343 107 206 -18 279 33 b 517 -18 357 22 419 -18 b 826 133 621 -18 729 29 b 1240 331 999 81 1153 179 b 1163 386 1229 357 1192 383 z "},"x":{"ha":769,"x_min":0,"x_max":0,"o":"m 104 331 b 293 583 165 438 238 583 b 313 546 310 583 313 571 b 286 314 313 489 297 397 l -18 0 l 142 0 l 274 138 b 446 -18 289 29 354 -18 b 874 331 618 -18 771 149 b 796 386 863 357 825 383 b 522 118 703 225 585 118 b 481 186 485 118 481 158 b 506 376 481 236 494 306 l 786 668 l 700 747 l 522 561 b 372 739 522 672 475 739 b 26 386 204 739 128 558 b 104 331 38 360 75 333 z "},"y":{"ha":785,"x_min":0,"x_max":0,"o":"m 811 386 b 489 53 713 214 619 119 l 761 721 l 540 721 l 392 356 b 200 138 308 213 254 138 b 210 296 172 138 153 157 l 381 721 l 160 721 l 3 333 b 108 -18 -100 78 -3 -18 b 276 68 213 -18 276 68 l 242 -17 b 82 -90 211 -33 133 -65 b -75 -286 11 -122 -74 -187 b 96 -439 -76 -365 -22 -439 b 403 -162 263 -439 346 -300 b 435 -83 414 -135 435 -83 b 889 331 597 -7 746 81 b 811 386 878 357 840 383 z m 29 -267 b 82 -199 29 -243 50 -218 b 190 -146 119 -176 149 -165 b 67 -304 144 -269 97 -304 b 29 -267 43 -304 29 -287 z "},"z":{"ha":736,"x_min":0,"x_max":0,"o":"m 104 331 b 288 522 194 489 224 522 b 440 488 346 522 397 496 l 7 96 l 79 0 b 436 -18 225 119 264 -18 b 840 331 613 -18 724 131 b 763 386 829 357 792 383 b 547 193 668 222 599 193 b 361 254 476 193 425 244 l 768 625 l 696 721 b 342 739 560 669 456 739 b 26 386 175 739 143 589 b 104 331 38 360 75 333 z "},"{":{"ha":667,"x_min":0,"x_max":0,"o":"m 1035 510 l 1078 528 b 1078 553 1094 535 1094 546 l 1035 571 b 1031 601 1017 578 1017 592 l 1069 628 b 1065 654 1085 640 1083 650 l 1018 663 b 1008 692 999 665 996 679 l 1042 728 b 1031 751 1053 740 1050 751 l 982 749 b 968 776 964 747 957 761 l 993 817 b 978 836 1003 833 996 842 l 931 826 b 910 850 914 821 904 832 l 925 893 b 907 913 932 913 924 919 l 864 890 b 838 908 849 882 836 890 l 844 956 b 824 969 846 974 838 981 l 785 940 b 756 953 771 929 757 933 l 753 1001 b 729 1008 751 1019 740 1022 l 697 972 b 667 979 685 957 672 961 l 653 1025 b 628 1026 649 1042 636 1043 l 604 985 b 594 974 603 979 600 976 b 608 954 593 965 596 960 l 651 936 b 651 911 671 929 671 917 l 608 892 b 604 860 592 885 590 872 l 644 833 b 640 810 660 824 657 813 l 593 801 b 576 781 579 799 572 789 b 700 469 650 743 700 608 l 719 497 b 647 721 713 586 688 668 b 728 513 688 678 717 599 b 768 631 747 547 757 586 b 688 711 717 636 688 664 b 771 792 688 758 729 792 b 860 699 824 792 860 751 b 474 256 860 519 674 256 b 346 346 392 256 346 293 b 411 421 346 389 374 421 b 482 353 457 421 482 390 b 504 326 482 338 489 328 l 504 336 b 492 374 504 350 501 363 b 514 325 507 361 514 344 l 519 325 b 583 350 560 325 572 336 b 515 635 583 433 551 565 l 506 636 b 486 614 489 642 479 631 l 501 568 b 482 551 507 551 499 543 l 439 571 b 414 553 424 579 411 571 l 419 506 b 399 493 424 488 414 482 l 360 522 b 331 510 346 533 333 528 l 328 463 b 304 454 326 444 317 440 l 272 490 b 242 485 261 504 247 501 l 229 438 b 204 435 224 421 213 418 l 182 478 b 157 486 175 489 165 493 b 149 478 156 485 153 481 l 110 450 b 115 425 94 440 96 429 l 161 417 b 172 386 181 414 183 400 l 138 353 b 149 329 126 340 129 329 l 197 332 b 213 304 215 332 222 319 l 186 263 b 201 242 176 247 183 239 l 249 254 b 269 231 265 260 276 247 l 254 185 b 272 168 247 168 256 160 l 314 189 b 342 169 331 197 343 189 l 335 124 b 357 111 331 104 342 100 l 393 140 b 424 126 408 151 422 144 l 426 79 b 450 71 429 61 439 58 l 482 108 b 513 101 494 121 507 119 l 526 56 b 551 53 531 38 543 38 l 572 94 b 604 94 583 111 596 111 l 628 53 b 653 56 636 38 649 38 l 667 101 b 697 108 672 119 685 121 l 729 71 b 753 79 740 58 751 61 l 756 126 b 785 140 757 144 771 151 l 824 111 b 844 124 838 100 846 104 l 838 169 b 864 189 836 189 849 197 l 907 168 b 925 185 924 160 932 168 l 910 231 b 931 254 904 247 914 260 l 978 242 b 993 263 996 239 1003 247 l 968 304 b 982 332 957 319 964 332 l 1031 329 b 1042 353 1050 329 1053 340 l 1008 386 b 1018 417 996 400 999 414 l 1065 425 b 1069 450 1083 429 1085 440 l 1031 478 b 1035 510 1017 488 1017 503 z m 506 228 b 422 246 471 228 442 233 b 490 233 440 238 464 233 b 763 390 593 233 690 301 b 881 682 833 479 881 590 b 864 739 881 704 875 722 b 892 671 882 722 892 697 b 506 228 892 490 706 228 z "},"|":{"ha":532,"x_min":0,"x_max":0,"o":"m 1035 510 l 1078 528 b 1078 553 1094 535 1094 546 l 1035 571 b 1031 601 1017 578 1017 592 l 1069 628 b 1065 654 1085 640 1083 650 l 1018 663 b 1008 692 999 665 996 679 l 1042 728 b 1031 751 1053 740 1050 751 l 982 749 b 968 776 964 747 957 761 l 993 817 b 978 836 1003 833 996 842 l 931 826 b 910 850 914 821 904 832 l 925 893 b 907 913 932 913 924 919 l 864 890 b 838 908 849 882 836 890 l 844 956 b 824 969 846 974 838 981 l 785 940 b 756 953 771 929 757 933 l 753 1001 b 729 1008 751 1019 740 1022 l 697 972 b 667 979 685 957 672 961 l 653 1025 b 628 1026 649 1042 636 1043 l 604 985 b 594 974 603 979 600 976 b 608 954 593 965 596 960 l 651 936 b 651 911 671 929 671 917 l 608 892 b 604 860 592 885 590 872 l 644 833 b 640 810 660 824 657 813 l 593 801 b 576 781 579 799 572 789 b 700 469 650 743 700 608 l 719 497 b 647 721 713 586 688 668 b 728 513 688 678 717 599 b 768 631 747 547 757 586 b 688 711 717 636 688 664 b 771 792 688 758 729 792 b 860 699 824 792 860 751 b 474 256 860 519 674 256 b 346 346 392 256 346 293 b 411 421 346 389 374 421 b 482 353 457 421 482 390 b 504 326 482 338 489 328 l 504 336 b 492 374 504 350 501 363 b 514 325 507 361 514 344 l 519 325 b 583 350 560 325 572 336 b 515 635 583 433 551 565 l 506 636 b 486 614 489 642 479 631 l 501 568 b 482 551 507 551 499 543 l 439 571 b 414 553 424 579 411 571 l 419 506 b 399 493 424 488 414 482 l 360 522 b 331 510 346 533 333 528 l 328 463 b 304 454 326 444 317 440 l 272 490 b 242 485 261 504 247 501 l 229 438 b 204 435 224 421 213 418 l 182 478 b 157 486 175 489 165 493 b 149 478 156 485 153 481 l 110 450 b 115 425 94 440 96 429 l 161 417 b 172 386 181 414 183 400 l 138 353 b 149 329 126 340 129 329 l 197 332 b 213 304 215 332 222 319 l 186 263 b 201 242 176 247 183 239 l 249 254 b 269 231 265 260 276 247 l 254 185 b 272 168 247 168 256 160 l 314 189 b 342 169 331 197 343 189 l 335 124 b 357 111 331 104 342 100 l 393 140 b 424 126 408 151 422 144 l 426 79 b 450 71 429 61 439 58 l 482 108 b 513 101 494 121 507 119 l 526 56 b 551 53 531 38 543 38 l 572 94 b 604 94 583 111 596 111 l 628 53 b 653 56 636 38 649 38 l 667 101 b 697 108 672 119 685 121 l 729 71 b 753 79 740 58 751 61 l 756 126 b 785 140 757 144 771 151 l 824 111 b 844 124 838 100 846 104 l 838 169 b 864 189 836 189 849 197 l 907 168 b 925 185 924 160 932 168 l 910 231 b 931 254 904 247 914 260 l 978 242 b 993 263 996 239 1003 247 l 968 304 b 982 332 957 319 964 332 l 1031 329 b 1042 353 1050 329 1053 340 l 1008 386 b 1018 417 996 400 999 414 l 1065 425 b 1069 450 1083 429 1085 440 l 1031 478 b 1035 510 1017 488 1017 503 z m 506 228 b 422 246 471 228 442 233 b 490 233 440 238 464 233 b 763 390 593 233 690 301 b 881 682 833 479 881 590 b 864 739 881 704 875 722 b 892 671 882 722 892 697 b 506 228 892 490 706 228 z "},"}":{"ha":660,"x_min":0,"x_max":0,"o":"m 1035 510 l 1078 528 b 1078 553 1094 535 1094 546 l 1035 571 b 1031 601 1017 578 1017 592 l 1069 628 b 1065 654 1085 640 1083 650 l 1018 663 b 1008 692 999 665 996 679 l 1042 728 b 1031 751 1053 740 1050 751 l 982 749 b 968 776 964 747 957 761 l 993 817 b 978 836 1003 833 996 842 l 931 826 b 910 850 914 821 904 832 l 925 893 b 907 913 932 913 924 919 l 864 890 b 838 908 849 882 836 890 l 844 956 b 824 969 846 974 838 981 l 785 940 b 756 953 771 929 757 933 l 753 1001 b 729 1008 751 1019 740 1022 l 697 972 b 667 979 685 957 672 961 l 653 1025 b 628 1026 649 1042 636 1043 l 604 985 b 594 974 603 979 600 976 b 608 954 593 965 596 960 l 651 936 b 651 911 671 929 671 917 l 608 892 b 604 860 592 885 590 872 l 644 833 b 640 810 660 824 657 813 l 593 801 b 576 781 579 799 572 789 b 700 469 650 743 700 608 l 719 497 b 647 721 713 586 688 668 b 728 513 688 678 717 599 b 768 631 747 547 757 586 b 688 711 717 636 688 664 b 771 792 688 758 729 792 b 860 699 824 792 860 751 b 474 256 860 519 674 256 b 346 346 392 256 346 293 b 411 421 346 389 374 421 b 482 353 457 421 482 390 b 504 326 482 338 489 328 l 504 336 b 492 374 504 350 501 363 b 514 325 507 361 514 344 l 519 325 b 583 350 560 325 572 336 b 515 635 583 433 551 565 l 506 636 b 486 614 489 642 479 631 l 501 568 b 482 551 507 551 499 543 l 439 571 b 414 553 424 579 411 571 l 419 506 b 399 493 424 488 414 482 l 360 522 b 331 510 346 533 333 528 l 328 463 b 304 454 326 444 317 440 l 272 490 b 242 485 261 504 247 501 l 229 438 b 204 435 224 421 213 418 l 182 478 b 157 486 175 489 165 493 b 149 478 156 485 153 481 l 110 450 b 115 425 94 440 96 429 l 161 417 b 172 386 181 414 183 400 l 138 353 b 149 329 126 340 129 329 l 197 332 b 213 304 215 332 222 319 l 186 263 b 201 242 176 247 183 239 l 249 254 b 269 231 265 260 276 247 l 254 185 b 272 168 247 168 256 160 l 314 189 b 342 169 331 197 343 189 l 335 124 b 357 111 331 104 342 100 l 393 140 b 424 126 408 151 422 144 l 426 79 b 450 71 429 61 439 58 l 482 108 b 513 101 494 121 507 119 l 526 56 b 551 53 531 38 543 38 l 572 94 b 604 94 583 111 596 111 l 628 53 b 653 56 636 38 649 38 l 667 101 b 697 108 672 119 685 121 l 729 71 b 753 79 740 58 751 61 l 756 126 b 785 140 757 144 771 151 l 824 111 b 844 124 838 100 846 104 l 838 169 b 864 189 836 189 849 197 l 907 168 b 925 185 924 160 932 168 l 910 231 b 931 254 904 247 914 260 l 978 242 b 993 263 996 239 1003 247 l 968 304 b 982 332 957 319 964 332 l 1031 329 b 1042 353 1050 329 1053 340 l 1008 386 b 1018 417 996 400 999 414 l 1065 425 b 1069 450 1083 429 1085 440 l 1031 478 b 1035 510 1017 488 1017 503 z m 506 228 b 422 246 471 228 442 233 b 490 233 440 238 464 233 b 763 390 593 233 690 301 b 881 682 833 479 881 590 b 864 739 881 704 875 722 b 892 671 882 722 892 697 b 506 228 892 490 706 228 z "},"~":{"ha":1047,"x_min":0,"x_max":0,"o":"m 1035 510 l 1078 528 b 1078 553 1094 535 1094 546 l 1035 571 b 1031 601 1017 578 1017 592 l 1069 628 b 1065 654 1085 640 1083 650 l 1018 663 b 1008 692 999 665 996 679 l 1042 728 b 1031 751 1053 740 1050 751 l 982 749 b 968 776 964 747 957 761 l 993 817 b 978 836 1003 833 996 842 l 931 826 b 910 850 914 821 904 832 l 925 893 b 907 913 932 913 924 919 l 864 890 b 838 908 849 882 836 890 l 844 956 b 824 969 846 974 838 981 l 785 940 b 756 953 771 929 757 933 l 753 1001 b 729 1008 751 1019 740 1022 l 697 972 b 667 979 685 957 672 961 l 653 1025 b 628 1026 649 1042 636 1043 l 604 985 b 594 974 603 979 600 976 b 608 954 593 965 596 960 l 651 936 b 651 911 671 929 671 917 l 608 892 b 604 860 592 885 590 872 l 644 833 b 640 810 660 824 657 813 l 593 801 b 576 781 579 799 572 789 b 700 469 650 743 700 608 l 719 497 b 647 721 713 586 688 668 b 728 513 688 678 717 599 b 768 631 747 547 757 586 b 688 711 717 636 688 664 b 771 792 688 758 729 792 b 860 699 824 792 860 751 b 474 256 860 519 674 256 b 346 346 392 256 346 293 b 411 421 346 389 374 421 b 482 353 457 421 482 390 b 504 326 482 338 489 328 l 504 336 b 492 374 504 350 501 363 b 514 325 507 361 514 344 l 519 325 b 583 350 560 325 572 336 b 515 635 583 433 551 565 l 506 636 b 486 614 489 642 479 631 l 501 568 b 482 551 507 551 499 543 l 439 571 b 414 553 424 579 411 571 l 419 506 b 399 493 424 488 414 482 l 360 522 b 331 510 346 533 333 528 l 328 463 b 304 454 326 444 317 440 l 272 490 b 242 485 261 504 247 501 l 229 438 b 204 435 224 421 213 418 l 182 478 b 157 486 175 489 165 493 b 149 478 156 485 153 481 l 110 450 b 115 425 94 440 96 429 l 161 417 b 172 386 181 414 183 400 l 138 353 b 149 329 126 340 129 329 l 197 332 b 213 304 215 332 222 319 l 186 263 b 201 242 176 247 183 239 l 249 254 b 269 231 265 260 276 247 l 254 185 b 272 168 247 168 256 160 l 314 189 b 342 169 331 197 343 189 l 335 124 b 357 111 331 104 342 100 l 393 140 b 424 126 408 151 422 144 l 426 79 b 450 71 429 61 439 58 l 482 108 b 513 101 494 121 507 119 l 526 56 b 551 53 531 38 543 38 l 572 94 b 604 94 583 111 596 111 l 628 53 b 653 56 636 38 649 38 l 667 101 b 697 108 672 119 685 121 l 729 71 b 753 79 740 58 751 61 l 756 126 b 785 140 757 144 771 151 l 824 111 b 844 124 838 100 846 104 l 838 169 b 864 189 836 189 849 197 l 907 168 b 925 185 924 160 932 168 l 910 231 b 931 254 904 247 914 260 l 978 242 b 993 263 996 239 1003 247 l 968 304 b 982 332 957 319 964 332 l 1031 329 b 1042 353 1050 329 1053 340 l 1008 386 b 1018 417 996 400 999 414 l 1065 425 b 1069 450 1083 429 1085 440 l 1031 478 b 1035 510 1017 488 1017 503 z m 506 228 b 422 246 471 228 442 233 b 490 233 440 238 464 233 b 763 390 593 233 690 301 b 881 682 833 479 881 590 b 864 739 881 704 875 722 b 892 671 882 722 892 697 b 506 228 892 490 706 228 z "},"¡":{"ha":538,"x_min":0,"x_max":0,"o":"m 1035 510 l 1078 528 b 1078 553 1094 535 1094 546 l 1035 571 b 1031 601 1017 578 1017 592 l 1069 628 b 1065 654 1085 640 1083 650 l 1018 663 b 1008 692 999 665 996 679 l 1042 728 b 1031 751 1053 740 1050 751 l 982 749 b 968 776 964 747 957 761 l 993 817 b 978 836 1003 833 996 842 l 931 826 b 910 850 914 821 904 832 l 925 893 b 907 913 932 913 924 919 l 864 890 b 838 908 849 882 836 890 l 844 956 b 824 969 846 974 838 981 l 785 940 b 756 953 771 929 757 933 l 753 1001 b 729 1008 751 1019 740 1022 l 697 972 b 667 979 685 957 672 961 l 653 1025 b 628 1026 649 1042 636 1043 l 604 985 b 594 974 603 979 600 976 b 608 954 593 965 596 960 l 651 936 b 651 911 671 929 671 917 l 608 892 b 604 860 592 885 590 872 l 644 833 b 640 810 660 824 657 813 l 593 801 b 576 781 579 799 572 789 b 700 469 650 743 700 608 l 719 497 b 647 721 713 586 688 668 b 728 513 688 678 717 599 b 768 631 747 547 757 586 b 688 711 717 636 688 664 b 771 792 688 758 729 792 b 860 699 824 792 860 751 b 474 256 860 519 674 256 b 346 346 392 256 346 293 b 411 421 346 389 374 421 b 482 353 457 421 482 390 b 504 326 482 338 489 328 l 504 336 b 492 374 504 350 501 363 b 514 325 507 361 514 344 l 519 325 b 583 350 560 325 572 336 b 515 635 583 433 551 565 l 506 636 b 486 614 489 642 479 631 l 501 568 b 482 551 507 551 499 543 l 439 571 b 414 553 424 579 411 571 l 419 506 b 399 493 424 488 414 482 l 360 522 b 331 510 346 533 333 528 l 328 463 b 304 454 326 444 317 440 l 272 490 b 242 485 261 504 247 501 l 229 438 b 204 435 224 421 213 418 l 182 478 b 157 486 175 489 165 493 b 149 478 156 485 153 481 l 110 450 b 115 425 94 440 96 429 l 161 417 b 172 386 181 414 183 400 l 138 353 b 149 329 126 340 129 329 l 197 332 b 213 304 215 332 222 319 l 186 263 b 201 242 176 247 183 239 l 249 254 b 269 231 265 260 276 247 l 254 185 b 272 168 247 168 256 160 l 314 189 b 342 169 331 197 343 189 l 335 124 b 357 111 331 104 342 100 l 393 140 b 424 126 408 151 422 144 l 426 79 b 450 71 429 61 439 58 l 482 108 b 513 101 494 121 507 119 l 526 56 b 551 53 531 38 543 38 l 572 94 b 604 94 583 111 596 111 l 628 53 b 653 56 636 38 649 38 l 667 101 b 697 108 672 119 685 121 l 729 71 b 753 79 740 58 751 61 l 756 126 b 785 140 757 144 771 151 l 824 111 b 844 124 838 100 846 104 l 838 169 b 864 189 836 189 849 197 l 907 168 b 925 185 924 160 932 168 l 910 231 b 931 254 904 247 914 260 l 978 242 b 993 263 996 239 1003 247 l 968 304 b 982 332 957 319 964 332 l 1031 329 b 1042 353 1050 329 1053 340 l 1008 386 b 1018 417 996 400 999 414 l 1065 425 b 1069 450 1083 429 1085 440 l 1031 478 b 1035 510 1017 488 1017 503 z m 506 228 b 422 246 471 228 442 233 b 490 233 440 238 464 233 b 763 390 593 233 690 301 b 881 682 833 479 881 590 b 864 739 881 704 875 722 b 892 671 882 722 892 697 b 506 228 892 490 706 228 z "},"¢":{"ha":663,"x_min":0,"x_max":0,"o":"m 1035 510 l 1078 528 b 1078 553 1094 535 1094 546 l 1035 571 b 1031 601 1017 578 1017 592 l 1069 628 b 1065 654 1085 640 1083 650 l 1018 663 b 1008 692 999 665 996 679 l 1042 728 b 1031 751 1053 740 1050 751 l 982 749 b 968 776 964 747 957 761 l 993 817 b 978 836 1003 833 996 842 l 931 826 b 910 850 914 821 904 832 l 925 893 b 907 913 932 913 924 919 l 864 890 b 838 908 849 882 836 890 l 844 956 b 824 969 846 974 838 981 l 785 940 b 756 953 771 929 757 933 l 753 1001 b 729 1008 751 1019 740 1022 l 697 972 b 667 979 685 957 672 961 l 653 1025 b 628 1026 649 1042 636 1043 l 604 985 b 594 974 603 979 600 976 b 608 954 593 965 596 960 l 651 936 b 651 911 671 929 671 917 l 608 892 b 604 860 592 885 590 872 l 644 833 b 640 810 660 824 657 813 l 593 801 b 576 781 579 799 572 789 b 700 469 650 743 700 608 l 719 497 b 647 721 713 586 688 668 b 728 513 688 678 717 599 b 768 631 747 547 757 586 b 688 711 717 636 688 664 b 771 792 688 758 729 792 b 860 699 824 792 860 751 b 474 256 860 519 674 256 b 346 346 392 256 346 293 b 411 421 346 389 374 421 b 482 353 457 421 482 390 b 504 326 482 338 489 328 l 504 336 b 492 374 504 350 501 363 b 514 325 507 361 514 344 l 519 325 b 583 350 560 325 572 336 b 515 635 583 433 551 565 l 506 636 b 486 614 489 642 479 631 l 501 568 b 482 551 507 551 499 543 l 439 571 b 414 553 424 579 411 571 l 419 506 b 399 493 424 488 414 482 l 360 522 b 331 510 346 533 333 528 l 328 463 b 304 454 326 444 317 440 l 272 490 b 242 485 261 504 247 501 l 229 438 b 204 435 224 421 213 418 l 182 478 b 157 486 175 489 165 493 b 149 478 156 485 153 481 l 110 450 b 115 425 94 440 96 429 l 161 417 b 172 386 181 414 183 400 l 138 353 b 149 329 126 340 129 329 l 197 332 b 213 304 215 332 222 319 l 186 263 b 201 242 176 247 183 239 l 249 254 b 269 231 265 260 276 247 l 254 185 b 272 168 247 168 256 160 l 314 189 b 342 169 331 197 343 189 l 335 124 b 357 111 331 104 342 100 l 393 140 b 424 126 408 151 422 144 l 426 79 b 450 71 429 61 439 58 l 482 108 b 513 101 494 121 507 119 l 526 56 b 551 53 531 38 543 38 l 572 94 b 604 94 583 111 596 111 l 628 53 b 653 56 636 38 649 38 l 667 101 b 697 108 672 119 685 121 l 729 71 b 753 79 740 58 751 61 l 756 126 b 785 140 757 144 771 151 l 824 111 b 844 124 838 100 846 104 l 838 169 b 864 189 836 189 849 197 l 907 168 b 925 185 924 160 932 168 l 910 231 b 931 254 904 247 914 260 l 978 242 b 993 263 996 239 1003 247 l 968 304 b 982 332 957 319 964 332 l 1031 329 b 1042 353 1050 329 1053 340 l 1008 386 b 1018 417 996 400 999 414 l 1065 425 b 1069 450 1083 429 1085 440 l 1031 478 b 1035 510 1017 488 1017 503 z m 506 228 b 422 246 471 228 442 233 b 490 233 440 238 464 233 b 763 390 593 233 690 301 b 881 682 833 479 881 590 b 864 739 881 704 875 722 b 892 671 882 722 892 697 b 506 228 892 490 706 228 z "},"£":{"ha":999,"x_min":0,"x_max":0,"o":"m 1035 510 l 1078 528 b 1078 553 1094 535 1094 546 l 1035 571 b 1031 601 1017 578 1017 592 l 1069 628 b 1065 654 1085 640 1083 650 l 1018 663 b 1008 692 999 665 996 679 l 1042 728 b 1031 751 1053 740 1050 751 l 982 749 b 968 776 964 747 957 761 l 993 817 b 978 836 1003 833 996 842 l 931 826 b 910 850 914 821 904 832 l 925 893 b 907 913 932 913 924 919 l 864 890 b 838 908 849 882 836 890 l 844 956 b 824 969 846 974 838 981 l 785 940 b 756 953 771 929 757 933 l 753 1001 b 729 1008 751 1019 740 1022 l 697 972 b 667 979 685 957 672 961 l 653 1025 b 628 1026 649 1042 636 1043 l 604 985 b 594 974 603 979 600 976 b 608 954 593 965 596 960 l 651 936 b 651 911 671 929 671 917 l 608 892 b 604 860 592 885 590 872 l 644 833 b 640 810 660 824 657 813 l 593 801 b 576 781 579 799 572 789 b 700 469 650 743 700 608 l 719 497 b 647 721 713 586 688 668 b 728 513 688 678 717 599 b 768 631 747 547 757 586 b 688 711 717 636 688 664 b 771 792 688 758 729 792 b 860 699 824 792 860 751 b 474 256 860 519 674 256 b 346 346 392 256 346 293 b 411 421 346 389 374 421 b 482 353 457 421 482 390 b 504 326 482 338 489 328 l 504 336 b 492 374 504 350 501 363 b 514 325 507 361 514 344 l 519 325 b 583 350 560 325 572 336 b 515 635 583 433 551 565 l 506 636 b 486 614 489 642 479 631 l 501 568 b 482 551 507 551 499 543 l 439 571 b 414 553 424 579 411 571 l 419 506 b 399 493 424 488 414 482 l 360 522 b 331 510 346 533 333 528 l 328 463 b 304 454 326 444 317 440 l 272 490 b 242 485 261 504 247 501 l 229 438 b 204 435 224 421 213 418 l 182 478 b 157 486 175 489 165 493 b 149 478 156 485 153 481 l 110 450 b 115 425 94 440 96 429 l 161 417 b 172 386 181 414 183 400 l 138 353 b 149 329 126 340 129 329 l 197 332 b 213 304 215 332 222 319 l 186 263 b 201 242 176 247 183 239 l 249 254 b 269 231 265 260 276 247 l 254 185 b 272 168 247 168 256 160 l 314 189 b 342 169 331 197 343 189 l 335 124 b 357 111 331 104 342 100 l 393 140 b 424 126 408 151 422 144 l 426 79 b 450 71 429 61 439 58 l 482 108 b 513 101 494 121 507 119 l 526 56 b 551 53 531 38 543 38 l 572 94 b 604 94 583 111 596 111 l 628 53 b 653 56 636 38 649 38 l 667 101 b 697 108 672 119 685 121 l 729 71 b 753 79 740 58 751 61 l 756 126 b 785 140 757 144 771 151 l 824 111 b 844 124 838 100 846 104 l 838 169 b 864 189 836 189 849 197 l 907 168 b 925 185 924 160 932 168 l 910 231 b 931 254 904 247 914 260 l 978 242 b 993 263 996 239 1003 247 l 968 304 b 982 332 957 319 964 332 l 1031 329 b 1042 353 1050 329 1053 340 l 1008 386 b 1018 417 996 400 999 414 l 1065 425 b 1069 450 1083 429 1085 440 l 1031 478 b 1035 510 1017 488 1017 503 z m 506 228 b 422 246 471 228 442 233 b 490 233 440 238 464 233 b 763 390 593 233 690 301 b 881 682 833 479 881 590 b 864 739 881 704 875 722 b 892 671 882 722 892 697 b 506 228 892 490 706 228 z "},"¤":{"ha":846,"x_min":0,"x_max":0,"o":"m 1035 510 l 1078 528 b 1078 553 1094 535 1094 546 l 1035 571 b 1031 601 1017 578 1017 592 l 1069 628 b 1065 654 1085 640 1083 650 l 1018 663 b 1008 692 999 665 996 679 l 1042 728 b 1031 751 1053 740 1050 751 l 982 749 b 968 776 964 747 957 761 l 993 817 b 978 836 1003 833 996 842 l 931 826 b 910 850 914 821 904 832 l 925 893 b 907 913 932 913 924 919 l 864 890 b 838 908 849 882 836 890 l 844 956 b 824 969 846 974 838 981 l 785 940 b 756 953 771 929 757 933 l 753 1001 b 729 1008 751 1019 740 1022 l 697 972 b 667 979 685 957 672 961 l 653 1025 b 628 1026 649 1042 636 1043 l 604 985 b 594 974 603 979 600 976 b 608 954 593 965 596 960 l 651 936 b 651 911 671 929 671 917 l 608 892 b 604 860 592 885 590 872 l 644 833 b 640 810 660 824 657 813 l 593 801 b 576 781 579 799 572 789 b 700 469 650 743 700 608 l 719 497 b 647 721 713 586 688 668 b 728 513 688 678 717 599 b 768 631 747 547 757 586 b 688 711 717 636 688 664 b 771 792 688 758 729 792 b 860 699 824 792 860 751 b 474 256 860 519 674 256 b 346 346 392 256 346 293 b 411 421 346 389 374 421 b 482 353 457 421 482 390 b 504 326 482 338 489 328 l 504 336 b 492 374 504 350 501 363 b 514 325 507 361 514 344 l 519 325 b 583 350 560 325 572 336 b 515 635 583 433 551 565 l 506 636 b 486 614 489 642 479 631 l 501 568 b 482 551 507 551 499 543 l 439 571 b 414 553 424 579 411 571 l 419 506 b 399 493 424 488 414 482 l 360 522 b 331 510 346 533 333 528 l 328 463 b 304 454 326 444 317 440 l 272 490 b 242 485 261 504 247 501 l 229 438 b 204 435 224 421 213 418 l 182 478 b 157 486 175 489 165 493 b 149 478 156 485 153 481 l 110 450 b 115 425 94 440 96 429 l 161 417 b 172 386 181 414 183 400 l 138 353 b 149 329 126 340 129 329 l 197 332 b 213 304 215 332 222 319 l 186 263 b 201 242 176 247 183 239 l 249 254 b 269 231 265 260 276 247 l 254 185 b 272 168 247 168 256 160 l 314 189 b 342 169 331 197 343 189 l 335 124 b 357 111 331 104 342 100 l 393 140 b 424 126 408 151 422 144 l 426 79 b 450 71 429 61 439 58 l 482 108 b 513 101 494 121 507 119 l 526 56 b 551 53 531 38 543 38 l 572 94 b 604 94 583 111 596 111 l 628 53 b 653 56 636 38 649 38 l 667 101 b 697 108 672 119 685 121 l 729 71 b 753 79 740 58 751 61 l 756 126 b 785 140 757 144 771 151 l 824 111 b 844 124 838 100 846 104 l 838 169 b 864 189 836 189 849 197 l 907 168 b 925 185 924 160 932 168 l 910 231 b 931 254 904 247 914 260 l 978 242 b 993 263 996 239 1003 247 l 968 304 b 982 332 957 319 964 332 l 1031 329 b 1042 353 1050 329 1053 340 l 1008 386 b 1018 417 996 400 999 414 l 1065 425 b 1069 450 1083 429 1085 440 l 1031 478 b 1035 510 1017 488 1017 503 z m 506 228 b 422 246 471 228 442 233 b 490 233 440 238 464 233 b 763 390 593 233 690 301 b 881 682 833 479 881 590 b 864 739 881 704 875 722 b 892 671 882 722 892 697 b 506 228 892 490 706 228 z "},"¥":{"ha":744,"x_min":0,"x_max":0,"o":"m 1035 510 l 1078 528 b 1078 553 1094 535 1094 546 l 1035 571 b 1031 601 1017 578 1017 592 l 1069 628 b 1065 654 1085 640 1083 650 l 1018 663 b 1008 692 999 665 996 679 l 1042 728 b 1031 751 1053 740 1050 751 l 982 749 b 968 776 964 747 957 761 l 993 817 b 978 836 1003 833 996 842 l 931 826 b 910 850 914 821 904 832 l 925 893 b 907 913 932 913 924 919 l 864 890 b 838 908 849 882 836 890 l 844 956 b 824 969 846 974 838 981 l 785 940 b 756 953 771 929 757 933 l 753 1001 b 729 1008 751 1019 740 1022 l 697 972 b 667 979 685 957 672 961 l 653 1025 b 628 1026 649 1042 636 1043 l 604 985 b 594 974 603 979 600 976 b 608 954 593 965 596 960 l 651 936 b 651 911 671 929 671 917 l 608 892 b 604 860 592 885 590 872 l 644 833 b 640 810 660 824 657 813 l 593 801 b 576 781 579 799 572 789 b 700 469 650 743 700 608 l 719 497 b 647 721 713 586 688 668 b 728 513 688 678 717 599 b 768 631 747 547 757 586 b 688 711 717 636 688 664 b 771 792 688 758 729 792 b 860 699 824 792 860 751 b 474 256 860 519 674 256 b 346 346 392 256 346 293 b 411 421 346 389 374 421 b 482 353 457 421 482 390 b 504 326 482 338 489 328 l 504 336 b 492 374 504 350 501 363 b 514 325 507 361 514 344 l 519 325 b 583 350 560 325 572 336 b 515 635 583 433 551 565 l 506 636 b 486 614 489 642 479 631 l 501 568 b 482 551 507 551 499 543 l 439 571 b 414 553 424 579 411 571 l 419 506 b 399 493 424 488 414 482 l 360 522 b 331 510 346 533 333 528 l 328 463 b 304 454 326 444 317 440 l 272 490 b 242 485 261 504 247 501 l 229 438 b 204 435 224 421 213 418 l 182 478 b 157 486 175 489 165 493 b 149 478 156 485 153 481 l 110 450 b 115 425 94 440 96 429 l 161 417 b 172 386 181 414 183 400 l 138 353 b 149 329 126 340 129 329 l 197 332 b 213 304 215 332 222 319 l 186 263 b 201 242 176 247 183 239 l 249 254 b 269 231 265 260 276 247 l 254 185 b 272 168 247 168 256 160 l 314 189 b 342 169 331 197 343 189 l 335 124 b 357 111 331 104 342 100 l 393 140 b 424 126 408 151 422 144 l 426 79 b 450 71 429 61 439 58 l 482 108 b 513 101 494 121 507 119 l 526 56 b 551 53 531 38 543 38 l 572 94 b 604 94 583 111 596 111 l 628 53 b 653 56 636 38 649 38 l 667 101 b 697 108 672 119 685 121 l 729 71 b 753 79 740 58 751 61 l 756 126 b 785 140 757 144 771 151 l 824 111 b 844 124 838 100 846 104 l 838 169 b 864 189 836 189 849 197 l 907 168 b 925 185 924 160 932 168 l 910 231 b 931 254 904 247 914 260 l 978 242 b 993 263 996 239 1003 247 l 968 304 b 982 332 957 319 964 332 l 1031 329 b 1042 353 1050 329 1053 340 l 1008 386 b 1018 417 996 400 999 414 l 1065 425 b 1069 450 1083 429 1085 440 l 1031 478 b 1035 510 1017 488 1017 503 z m 506 228 b 422 246 471 228 442 233 b 490 233 440 238 464 233 b 763 390 593 233 690 301 b 881 682 833 479 881 590 b 864 739 881 704 875 722 b 892 671 882 722 892 697 b 506 228 892 490 706 228 z "},"¦":{"ha":532,"x_min":0,"x_max":0,"o":"m 1035 510 l 1078 528 b 1078 553 1094 535 1094 546 l 1035 571 b 1031 601 1017 578 1017 592 l 1069 628 b 1065 654 1085 640 1083 650 l 1018 663 b 1008 692 999 665 996 679 l 1042 728 b 1031 751 1053 740 1050 751 l 982 749 b 968 776 964 747 957 761 l 993 817 b 978 836 1003 833 996 842 l 931 826 b 910 850 914 821 904 832 l 925 893 b 907 913 932 913 924 919 l 864 890 b 838 908 849 882 836 890 l 844 956 b 824 969 846 974 838 981 l 785 940 b 756 953 771 929 757 933 l 753 1001 b 729 1008 751 1019 740 1022 l 697 972 b 667 979 685 957 672 961 l 653 1025 b 628 1026 649 1042 636 1043 l 604 985 b 594 974 603 979 600 976 b 608 954 593 965 596 960 l 651 936 b 651 911 671 929 671 917 l 608 892 b 604 860 592 885 590 872 l 644 833 b 640 810 660 824 657 813 l 593 801 b 576 781 579 799 572 789 b 700 469 650 743 700 608 l 719 497 b 647 721 713 586 688 668 b 728 513 688 678 717 599 b 768 631 747 547 757 586 b 688 711 717 636 688 664 b 771 792 688 758 729 792 b 860 699 824 792 860 751 b 474 256 860 519 674 256 b 346 346 392 256 346 293 b 411 421 346 389 374 421 b 482 353 457 421 482 390 b 504 326 482 338 489 328 l 504 336 b 492 374 504 350 501 363 b 514 325 507 361 514 344 l 519 325 b 583 350 560 325 572 336 b 515 635 583 433 551 565 l 506 636 b 486 614 489 642 479 631 l 501 568 b 482 551 507 551 499 543 l 439 571 b 414 553 424 579 411 571 l 419 506 b 399 493 424 488 414 482 l 360 522 b 331 510 346 533 333 528 l 328 463 b 304 454 326 444 317 440 l 272 490 b 242 485 261 504 247 501 l 229 438 b 204 435 224 421 213 418 l 182 478 b 157 486 175 489 165 493 b 149 478 156 485 153 481 l 110 450 b 115 425 94 440 96 429 l 161 417 b 172 386 181 414 183 400 l 138 353 b 149 329 126 340 129 329 l 197 332 b 213 304 215 332 222 319 l 186 263 b 201 242 176 247 183 239 l 249 254 b 269 231 265 260 276 247 l 254 185 b 272 168 247 168 256 160 l 314 189 b 342 169 331 197 343 189 l 335 124 b 357 111 331 104 342 100 l 393 140 b 424 126 408 151 422 144 l 426 79 b 450 71 429 61 439 58 l 482 108 b 513 101 494 121 507 119 l 526 56 b 551 53 531 38 543 38 l 572 94 b 604 94 583 111 596 111 l 628 53 b 653 56 636 38 649 38 l 667 101 b 697 108 672 119 685 121 l 729 71 b 753 79 740 58 751 61 l 756 126 b 785 140 757 144 771 151 l 824 111 b 844 124 838 100 846 104 l 838 169 b 864 189 836 189 849 197 l 907 168 b 925 185 924 160 932 168 l 910 231 b 931 254 904 247 914 260 l 978 242 b 993 263 996 239 1003 247 l 968 304 b 982 332 957 319 964 332 l 1031 329 b 1042 353 1050 329 1053 340 l 1008 386 b 1018 417 996 400 999 414 l 1065 425 b 1069 450 1083 429 1085 440 l 1031 478 b 1035 510 1017 488 1017 503 z m 506 228 b 422 246 471 228 442 233 b 490 233 440 238 464 233 b 763 390 593 233 690 301 b 881 682 833 479 881 590 b 864 739 881 704 875 722 b 892 671 882 722 892 697 b 506 228 892 490 706 228 z "},"§":{"ha":814,"x_min":0,"x_max":0,"o":"m 539 657 b 629 568 539 607 579 568 b 526 906 794 568 794 906 b 294 694 358 906 301 782 b 125 489 168 664 125 567 b 315 201 125 325 315 289 b 236 110 315 171 293 110 b 182 147 207 110 190 125 b 233 231 211 161 233 192 b 143 319 233 281 193 319 b 246 -18 -22 319 -22 -18 b 476 193 415 -18 471 106 b 646 399 603 222 646 321 b 457 686 646 563 457 599 b 536 778 457 717 479 778 b 590 740 564 778 582 761 b 539 657 560 725 539 694 z m 493 389 b 440 311 493 350 471 325 b 278 499 383 386 278 417 b 331 575 278 536 300 561 b 493 389 389 500 493 469 z "},"¨":{"ha":590,"x_min":0,"x_max":0,"o":"m 1035 510 l 1078 528 b 1078 553 1094 535 1094 546 l 1035 571 b 1031 601 1017 578 1017 592 l 1069 628 b 1065 654 1085 640 1083 650 l 1018 663 b 1008 692 999 665 996 679 l 1042 728 b 1031 751 1053 740 1050 751 l 982 749 b 968 776 964 747 957 761 l 993 817 b 978 836 1003 833 996 842 l 931 826 b 910 850 914 821 904 832 l 925 893 b 907 913 932 913 924 919 l 864 890 b 838 908 849 882 836 890 l 844 956 b 824 969 846 974 838 981 l 785 940 b 756 953 771 929 757 933 l 753 1001 b 729 1008 751 1019 740 1022 l 697 972 b 667 979 685 957 672 961 l 653 1025 b 628 1026 649 1042 636 1043 l 604 985 b 594 974 603 979 600 976 b 608 954 593 965 596 960 l 651 936 b 651 911 671 929 671 917 l 608 892 b 604 860 592 885 590 872 l 644 833 b 640 810 660 824 657 813 l 593 801 b 576 781 579 799 572 789 b 700 469 650 743 700 608 l 719 497 b 647 721 713 586 688 668 b 728 513 688 678 717 599 b 768 631 747 547 757 586 b 688 711 717 636 688 664 b 771 792 688 758 729 792 b 860 699 824 792 860 751 b 474 256 860 519 674 256 b 346 346 392 256 346 293 b 411 421 346 389 374 421 b 482 353 457 421 482 390 b 504 326 482 338 489 328 l 504 336 b 492 374 504 350 501 363 b 514 325 507 361 514 344 l 519 325 b 583 350 560 325 572 336 b 515 635 583 433 551 565 l 506 636 b 486 614 489 642 479 631 l 501 568 b 482 551 507 551 499 543 l 439 571 b 414 553 424 579 411 571 l 419 506 b 399 493 424 488 414 482 l 360 522 b 331 510 346 533 333 528 l 328 463 b 304 454 326 444 317 440 l 272 490 b 242 485 261 504 247 501 l 229 438 b 204 435 224 421 213 418 l 182 478 b 157 486 175 489 165 493 b 149 478 156 485 153 481 l 110 450 b 115 425 94 440 96 429 l 161 417 b 172 386 181 414 183 400 l 138 353 b 149 329 126 340 129 329 l 197 332 b 213 304 215 332 222 319 l 186 263 b 201 242 176 247 183 239 l 249 254 b 269 231 265 260 276 247 l 254 185 b 272 168 247 168 256 160 l 314 189 b 342 169 331 197 343 189 l 335 124 b 357 111 331 104 342 100 l 393 140 b 424 126 408 151 422 144 l 426 79 b 450 71 429 61 439 58 l 482 108 b 513 101 494 121 507 119 l 526 56 b 551 53 531 38 543 38 l 572 94 b 604 94 583 111 596 111 l 628 53 b 653 56 636 38 649 38 l 667 101 b 697 108 672 119 685 121 l 729 71 b 753 79 740 58 751 61 l 756 126 b 785 140 757 144 771 151 l 824 111 b 844 124 838 100 846 104 l 838 169 b 864 189 836 189 849 197 l 907 168 b 925 185 924 160 932 168 l 910 231 b 931 254 904 247 914 260 l 978 242 b 993 263 996 239 1003 247 l 968 304 b 982 332 957 319 964 332 l 1031 329 b 1042 353 1050 329 1053 340 l 1008 386 b 1018 417 996 400 999 414 l 1065 425 b 1069 450 1083 429 1085 440 l 1031 478 b 1035 510 1017 488 1017 503 z m 506 228 b 422 246 471 228 442 233 b 490 233 440 238 464 233 b 763 390 593 233 690 301 b 881 682 833 479 881 590 b 864 739 881 704 875 722 b 892 671 882 722 892 697 b 506 228 892 490 706 228 z "},"©":{"ha":978,"x_min":0,"x_max":0,"o":"m 550 643 b 272 325 399 643 272 463 b 432 158 272 215 340 158 b 676 301 533 158 632 226 l 610 351 b 463 257 574 301 510 257 b 408 317 426 257 408 282 b 544 529 408 382 478 529 b 522 403 579 529 563 485 l 664 403 b 550 643 725 514 701 643 z m 564 814 b 69 328 310 814 69 583 b 418 -18 69 131 214 -18 b 914 468 672 -18 914 211 b 564 814 914 667 768 814 z m 563 708 b 810 464 717 708 810 597 b 421 83 810 275 617 83 b 174 326 281 83 174 182 b 563 708 174 518 361 708 z "},"ª":{"ha":718,"x_min":0,"x_max":0,"o":"m 640 532 b 603 518 626 522 614 518 b 610 658 579 518 560 533 l 746 999 l 540 925 b 408 1014 540 925 515 1014 b 97 546 196 1014 97 661 b 225 410 97 465 146 410 b 403 501 328 410 403 501 b 532 410 403 501 417 410 b 692 472 594 410 644 435 z m 310 551 b 275 590 288 551 275 563 b 443 869 275 660 356 869 b 492 807 490 869 492 807 l 421 628 b 310 551 421 628 369 551 z "},"«":{"ha":1178,"x_min":0,"x_max":0,"o":"m 1035 510 l 1078 528 b 1078 553 1094 535 1094 546 l 1035 571 b 1031 601 1017 578 1017 592 l 1069 628 b 1065 654 1085 640 1083 650 l 1018 663 b 1008 692 999 665 996 679 l 1042 728 b 1031 751 1053 740 1050 751 l 982 749 b 968 776 964 747 957 761 l 993 817 b 978 836 1003 833 996 842 l 931 826 b 910 850 914 821 904 832 l 925 893 b 907 913 932 913 924 919 l 864 890 b 838 908 849 882 836 890 l 844 956 b 824 969 846 974 838 981 l 785 940 b 756 953 771 929 757 933 l 753 1001 b 729 1008 751 1019 740 1022 l 697 972 b 667 979 685 957 672 961 l 653 1025 b 628 1026 649 1042 636 1043 l 604 985 b 594 974 603 979 600 976 b 608 954 593 965 596 960 l 651 936 b 651 911 671 929 671 917 l 608 892 b 604 860 592 885 590 872 l 644 833 b 640 810 660 824 657 813 l 593 801 b 576 781 579 799 572 789 b 700 469 650 743 700 608 l 719 497 b 647 721 713 586 688 668 b 728 513 688 678 717 599 b 768 631 747 547 757 586 b 688 711 717 636 688 664 b 771 792 688 758 729 792 b 860 699 824 792 860 751 b 474 256 860 519 674 256 b 346 346 392 256 346 293 b 411 421 346 389 374 421 b 482 353 457 421 482 390 b 504 326 482 338 489 328 l 504 336 b 492 374 504 350 501 363 b 514 325 507 361 514 344 l 519 325 b 583 350 560 325 572 336 b 515 635 583 433 551 565 l 506 636 b 486 614 489 642 479 631 l 501 568 b 482 551 507 551 499 543 l 439 571 b 414 553 424 579 411 571 l 419 506 b 399 493 424 488 414 482 l 360 522 b 331 510 346 533 333 528 l 328 463 b 304 454 326 444 317 440 l 272 490 b 242 485 261 504 247 501 l 229 438 b 204 435 224 421 213 418 l 182 478 b 157 486 175 489 165 493 b 149 478 156 485 153 481 l 110 450 b 115 425 94 440 96 429 l 161 417 b 172 386 181 414 183 400 l 138 353 b 149 329 126 340 129 329 l 197 332 b 213 304 215 332 222 319 l 186 263 b 201 242 176 247 183 239 l 249 254 b 269 231 265 260 276 247 l 254 185 b 272 168 247 168 256 160 l 314 189 b 342 169 331 197 343 189 l 335 124 b 357 111 331 104 342 100 l 393 140 b 424 126 408 151 422 144 l 426 79 b 450 71 429 61 439 58 l 482 108 b 513 101 494 121 507 119 l 526 56 b 551 53 531 38 543 38 l 572 94 b 604 94 583 111 596 111 l 628 53 b 653 56 636 38 649 38 l 667 101 b 697 108 672 119 685 121 l 729 71 b 753 79 740 58 751 61 l 756 126 b 785 140 757 144 771 151 l 824 111 b 844 124 838 100 846 104 l 838 169 b 864 189 836 189 849 197 l 907 168 b 925 185 924 160 932 168 l 910 231 b 931 254 904 247 914 260 l 978 242 b 993 263 996 239 1003 247 l 968 304 b 982 332 957 319 964 332 l 1031 329 b 1042 353 1050 329 1053 340 l 1008 386 b 1018 417 996 400 999 414 l 1065 425 b 1069 450 1083 429 1085 440 l 1031 478 b 1035 510 1017 488 1017 503 z m 506 228 b 422 246 471 228 442 233 b 490 233 440 238 464 233 b 763 390 593 233 690 301 b 881 682 833 479 881 590 b 864 739 881 704 875 722 b 892 671 882 722 892 697 b 506 228 892 490 706 228 z "},"¬":{"ha":846,"x_min":0,"x_max":0,"o":"m 1035 510 l 1078 528 b 1078 553 1094 535 1094 546 l 1035 571 b 1031 601 1017 578 1017 592 l 1069 628 b 1065 654 1085 640 1083 650 l 1018 663 b 1008 692 999 665 996 679 l 1042 728 b 1031 751 1053 740 1050 751 l 982 749 b 968 776 964 747 957 761 l 993 817 b 978 836 1003 833 996 842 l 931 826 b 910 850 914 821 904 832 l 925 893 b 907 913 932 913 924 919 l 864 890 b 838 908 849 882 836 890 l 844 956 b 824 969 846 974 838 981 l 785 940 b 756 953 771 929 757 933 l 753 1001 b 729 1008 751 1019 740 1022 l 697 972 b 667 979 685 957 672 961 l 653 1025 b 628 1026 649 1042 636 1043 l 604 985 b 594 974 603 979 600 976 b 608 954 593 965 596 960 l 651 936 b 651 911 671 929 671 917 l 608 892 b 604 860 592 885 590 872 l 644 833 b 640 810 660 824 657 813 l 593 801 b 576 781 579 799 572 789 b 700 469 650 743 700 608 l 719 497 b 647 721 713 586 688 668 b 728 513 688 678 717 599 b 768 631 747 547 757 586 b 688 711 717 636 688 664 b 771 792 688 758 729 792 b 860 699 824 792 860 751 b 474 256 860 519 674 256 b 346 346 392 256 346 293 b 411 421 346 389 374 421 b 482 353 457 421 482 390 b 504 326 482 338 489 328 l 504 336 b 492 374 504 350 501 363 b 514 325 507 361 514 344 l 519 325 b 583 350 560 325 572 336 b 515 635 583 433 551 565 l 506 636 b 486 614 489 642 479 631 l 501 568 b 482 551 507 551 499 543 l 439 571 b 414 553 424 579 411 571 l 419 506 b 399 493 424 488 414 482 l 360 522 b 331 510 346 533 333 528 l 328 463 b 304 454 326 444 317 440 l 272 490 b 242 485 261 504 247 501 l 229 438 b 204 435 224 421 213 418 l 182 478 b 157 486 175 489 165 493 b 149 478 156 485 153 481 l 110 450 b 115 425 94 440 96 429 l 161 417 b 172 386 181 414 183 400 l 138 353 b 149 329 126 340 129 329 l 197 332 b 213 304 215 332 222 319 l 186 263 b 201 242 176 247 183 239 l 249 254 b 269 231 265 260 276 247 l 254 185 b 272 168 247 168 256 160 l 314 189 b 342 169 331 197 343 189 l 335 124 b 357 111 331 104 342 100 l 393 140 b 424 126 408 151 422 144 l 426 79 b 450 71 429 61 439 58 l 482 108 b 513 101 494 121 507 119 l 526 56 b 551 53 531 38 543 38 l 572 94 b 604 94 583 111 596 111 l 628 53 b 653 56 636 38 649 38 l 667 101 b 697 108 672 119 685 121 l 729 71 b 753 79 740 58 751 61 l 756 126 b 785 140 757 144 771 151 l 824 111 b 844 124 838 100 846 104 l 838 169 b 864 189 836 189 849 197 l 907 168 b 925 185 924 160 932 168 l 910 231 b 931 254 904 247 914 260 l 978 242 b 993 263 996 239 1003 247 l 968 304 b 982 332 957 319 964 332 l 1031 329 b 1042 353 1050 329 1053 340 l 1008 386 b 1018 417 996 400 999 414 l 1065 425 b 1069 450 1083 429 1085 440 l 1031 478 b 1035 510 1017 488 1017 503 z m 506 228 b 422 246 471 228 442 233 b 490 233 440 238 464 233 b 763 390 593 233 690 301 b 881 682 833 479 881 590 b 864 739 881 704 875 722 b 892 671 882 722 892 697 b 506 228 892 490 706 228 z "},"®":{"ha":583,"x_min":0,"x_max":0,"o":"m 431 1014 b 81 668 251 1014 81 853 b 328 424 79 529 182 424 b 679 767 508 424 679 585 b 431 1014 679 907 578 1014 z m 497 575 b 463 565 486 564 463 549 b 472 636 463 576 472 615 b 442 686 472 672 443 685 b 528 783 501 697 528 740 b 400 890 528 843 476 890 b 247 753 314 890 247 829 b 253 717 247 733 253 717 l 318 732 b 313 754 318 732 313 743 b 396 829 313 781 336 829 b 454 783 435 829 454 810 b 406 726 454 757 432 728 l 435 799 l 356 799 l 268 578 l 344 578 l 388 686 b 401 653 396 681 401 665 b 390 557 401 635 390 586 b 399 521 390 532 399 521 b 333 511 399 521 375 511 b 168 669 226 511 168 578 b 431 926 168 808 301 926 b 592 768 529 926 592 858 b 497 575 592 656 497 575 z "},"¯":{"ha":514,"x_min":0,"x_max":0,"o":"m 1035 510 l 1078 528 b 1078 553 1094 535 1094 546 l 1035 571 b 1031 601 1017 578 1017 592 l 1069 628 b 1065 654 1085 640 1083 650 l 1018 663 b 1008 692 999 665 996 679 l 1042 728 b 1031 751 1053 740 1050 751 l 982 749 b 968 776 964 747 957 761 l 993 817 b 978 836 1003 833 996 842 l 931 826 b 910 850 914 821 904 832 l 925 893 b 907 913 932 913 924 919 l 864 890 b 838 908 849 882 836 890 l 844 956 b 824 969 846 974 838 981 l 785 940 b 756 953 771 929 757 933 l 753 1001 b 729 1008 751 1019 740 1022 l 697 972 b 667 979 685 957 672 961 l 653 1025 b 628 1026 649 1042 636 1043 l 604 985 b 594 974 603 979 600 976 b 608 954 593 965 596 960 l 651 936 b 651 911 671 929 671 917 l 608 892 b 604 860 592 885 590 872 l 644 833 b 640 810 660 824 657 813 l 593 801 b 576 781 579 799 572 789 b 700 469 650 743 700 608 l 719 497 b 647 721 713 586 688 668 b 728 513 688 678 717 599 b 768 631 747 547 757 586 b 688 711 717 636 688 664 b 771 792 688 758 729 792 b 860 699 824 792 860 751 b 474 256 860 519 674 256 b 346 346 392 256 346 293 b 411 421 346 389 374 421 b 482 353 457 421 482 390 b 504 326 482 338 489 328 l 504 336 b 492 374 504 350 501 363 b 514 325 507 361 514 344 l 519 325 b 583 350 560 325 572 336 b 515 635 583 433 551 565 l 506 636 b 486 614 489 642 479 631 l 501 568 b 482 551 507 551 499 543 l 439 571 b 414 553 424 579 411 571 l 419 506 b 399 493 424 488 414 482 l 360 522 b 331 510 346 533 333 528 l 328 463 b 304 454 326 444 317 440 l 272 490 b 242 485 261 504 247 501 l 229 438 b 204 435 224 421 213 418 l 182 478 b 157 486 175 489 165 493 b 149 478 156 485 153 481 l 110 450 b 115 425 94 440 96 429 l 161 417 b 172 386 181 414 183 400 l 138 353 b 149 329 126 340 129 329 l 197 332 b 213 304 215 332 222 319 l 186 263 b 201 242 176 247 183 239 l 249 254 b 269 231 265 260 276 247 l 254 185 b 272 168 247 168 256 160 l 314 189 b 342 169 331 197 343 189 l 335 124 b 357 111 331 104 342 100 l 393 140 b 424 126 408 151 422 144 l 426 79 b 450 71 429 61 439 58 l 482 108 b 513 101 494 121 507 119 l 526 56 b 551 53 531 38 543 38 l 572 94 b 604 94 583 111 596 111 l 628 53 b 653 56 636 38 649 38 l 667 101 b 697 108 672 119 685 121 l 729 71 b 753 79 740 58 751 61 l 756 126 b 785 140 757 144 771 151 l 824 111 b 844 124 838 100 846 104 l 838 169 b 864 189 836 189 849 197 l 907 168 b 925 185 924 160 932 168 l 910 231 b 931 254 904 247 914 260 l 978 242 b 993 263 996 239 1003 247 l 968 304 b 982 332 957 319 964 332 l 1031 329 b 1042 353 1050 329 1053 340 l 1008 386 b 1018 417 996 400 999 414 l 1065 425 b 1069 450 1083 429 1085 440 l 1031 478 b 1035 510 1017 488 1017 503 z m 506 228 b 422 246 471 228 442 233 b 490 233 440 238 464 233 b 763 390 593 233 690 301 b 881 682 833 479 881 590 b 864 739 881 704 875 722 b 892 671 882 722 892 697 b 506 228 892 490 706 228 z "},"°":{"ha":443,"x_min":0,"x_max":0,"o":"m 1035 510 l 1078 528 b 1078 553 1094 535 1094 546 l 1035 571 b 1031 601 1017 578 1017 592 l 1069 628 b 1065 654 1085 640 1083 650 l 1018 663 b 1008 692 999 665 996 679 l 1042 728 b 1031 751 1053 740 1050 751 l 982 749 b 968 776 964 747 957 761 l 993 817 b 978 836 1003 833 996 842 l 931 826 b 910 850 914 821 904 832 l 925 893 b 907 913 932 913 924 919 l 864 890 b 838 908 849 882 836 890 l 844 956 b 824 969 846 974 838 981 l 785 940 b 756 953 771 929 757 933 l 753 1001 b 729 1008 751 1019 740 1022 l 697 972 b 667 979 685 957 672 961 l 653 1025 b 628 1026 649 1042 636 1043 l 604 985 b 594 974 603 979 600 976 b 608 954 593 965 596 960 l 651 936 b 651 911 671 929 671 917 l 608 892 b 604 860 592 885 590 872 l 644 833 b 640 810 660 824 657 813 l 593 801 b 576 781 579 799 572 789 b 700 469 650 743 700 608 l 719 497 b 647 721 713 586 688 668 b 728 513 688 678 717 599 b 768 631 747 547 757 586 b 688 711 717 636 688 664 b 771 792 688 758 729 792 b 860 699 824 792 860 751 b 474 256 860 519 674 256 b 346 346 392 256 346 293 b 411 421 346 389 374 421 b 482 353 457 421 482 390 b 504 326 482 338 489 328 l 504 336 b 492 374 504 350 501 363 b 514 325 507 361 514 344 l 519 325 b 583 350 560 325 572 336 b 515 635 583 433 551 565 l 506 636 b 486 614 489 642 479 631 l 501 568 b 482 551 507 551 499 543 l 439 571 b 414 553 424 579 411 571 l 419 506 b 399 493 424 488 414 482 l 360 522 b 331 510 346 533 333 528 l 328 463 b 304 454 326 444 317 440 l 272 490 b 242 485 261 504 247 501 l 229 438 b 204 435 224 421 213 418 l 182 478 b 157 486 175 489 165 493 b 149 478 156 485 153 481 l 110 450 b 115 425 94 440 96 429 l 161 417 b 172 386 181 414 183 400 l 138 353 b 149 329 126 340 129 329 l 197 332 b 213 304 215 332 222 319 l 186 263 b 201 242 176 247 183 239 l 249 254 b 269 231 265 260 276 247 l 254 185 b 272 168 247 168 256 160 l 314 189 b 342 169 331 197 343 189 l 335 124 b 357 111 331 104 342 100 l 393 140 b 424 126 408 151 422 144 l 426 79 b 450 71 429 61 439 58 l 482 108 b 513 101 494 121 507 119 l 526 56 b 551 53 531 38 543 38 l 572 94 b 604 94 583 111 596 111 l 628 53 b 653 56 636 38 649 38 l 667 101 b 697 108 672 119 685 121 l 729 71 b 753 79 740 58 751 61 l 756 126 b 785 140 757 144 771 151 l 824 111 b 844 124 838 100 846 104 l 838 169 b 864 189 836 189 849 197 l 907 168 b 925 185 924 160 932 168 l 910 231 b 931 254 904 247 914 260 l 978 242 b 993 263 996 239 1003 247 l 968 304 b 982 332 957 319 964 332 l 1031 329 b 1042 353 1050 329 1053 340 l 1008 386 b 1018 417 996 400 999 414 l 1065 425 b 1069 450 1083 429 1085 440 l 1031 478 b 1035 510 1017 488 1017 503 z m 506 228 b 422 246 471 228 442 233 b 490 233 440 238 464 233 b 763 390 593 233 690 301 b 881 682 833 479 881 590 b 864 739 881 704 875 722 b 892 671 882 722 892 697 b 506 228 892 490 706 228 z "},"±":{"ha":856,"x_min":0,"x_max":0,"o":"m 1035 510 l 1078 528 b 1078 553 1094 535 1094 546 l 1035 571 b 1031 601 1017 578 1017 592 l 1069 628 b 1065 654 1085 640 1083 650 l 1018 663 b 1008 692 999 665 996 679 l 1042 728 b 1031 751 1053 740 1050 751 l 982 749 b 968 776 964 747 957 761 l 993 817 b 978 836 1003 833 996 842 l 931 826 b 910 850 914 821 904 832 l 925 893 b 907 913 932 913 924 919 l 864 890 b 838 908 849 882 836 890 l 844 956 b 824 969 846 974 838 981 l 785 940 b 756 953 771 929 757 933 l 753 1001 b 729 1008 751 1019 740 1022 l 697 972 b 667 979 685 957 672 961 l 653 1025 b 628 1026 649 1042 636 1043 l 604 985 b 594 974 603 979 600 976 b 608 954 593 965 596 960 l 651 936 b 651 911 671 929 671 917 l 608 892 b 604 860 592 885 590 872 l 644 833 b 640 810 660 824 657 813 l 593 801 b 576 781 579 799 572 789 b 700 469 650 743 700 608 l 719 497 b 647 721 713 586 688 668 b 728 513 688 678 717 599 b 768 631 747 547 757 586 b 688 711 717 636 688 664 b 771 792 688 758 729 792 b 860 699 824 792 860 751 b 474 256 860 519 674 256 b 346 346 392 256 346 293 b 411 421 346 389 374 421 b 482 353 457 421 482 390 b 504 326 482 338 489 328 l 504 336 b 492 374 504 350 501 363 b 514 325 507 361 514 344 l 519 325 b 583 350 560 325 572 336 b 515 635 583 433 551 565 l 506 636 b 486 614 489 642 479 631 l 501 568 b 482 551 507 551 499 543 l 439 571 b 414 553 424 579 411 571 l 419 506 b 399 493 424 488 414 482 l 360 522 b 331 510 346 533 333 528 l 328 463 b 304 454 326 444 317 440 l 272 490 b 242 485 261 504 247 501 l 229 438 b 204 435 224 421 213 418 l 182 478 b 157 486 175 489 165 493 b 149 478 156 485 153 481 l 110 450 b 115 425 94 440 96 429 l 161 417 b 172 386 181 414 183 400 l 138 353 b 149 329 126 340 129 329 l 197 332 b 213 304 215 332 222 319 l 186 263 b 201 242 176 247 183 239 l 249 254 b 269 231 265 260 276 247 l 254 185 b 272 168 247 168 256 160 l 314 189 b 342 169 331 197 343 189 l 335 124 b 357 111 331 104 342 100 l 393 140 b 424 126 408 151 422 144 l 426 79 b 450 71 429 61 439 58 l 482 108 b 513 101 494 121 507 119 l 526 56 b 551 53 531 38 543 38 l 572 94 b 604 94 583 111 596 111 l 628 53 b 653 56 636 38 649 38 l 667 101 b 697 108 672 119 685 121 l 729 71 b 753 79 740 58 751 61 l 756 126 b 785 140 757 144 771 151 l 824 111 b 844 124 838 100 846 104 l 838 169 b 864 189 836 189 849 197 l 907 168 b 925 185 924 160 932 168 l 910 231 b 931 254 904 247 914 260 l 978 242 b 993 263 996 239 1003 247 l 968 304 b 982 332 957 319 964 332 l 1031 329 b 1042 353 1050 329 1053 340 l 1008 386 b 1018 417 996 400 999 414 l 1065 425 b 1069 450 1083 429 1085 440 l 1031 478 b 1035 510 1017 488 1017 503 z m 506 228 b 422 246 471 228 442 233 b 490 233 440 238 464 233 b 763 390 593 233 690 301 b 881 682 833 479 881 590 b 864 739 881 704 875 722 b 892 671 882 722 892 697 b 506 228 892 490 706 228 z "},"²":{"ha":538,"x_min":0,"x_max":0,"o":"m 1035 510 l 1078 528 b 1078 553 1094 535 1094 546 l 1035 571 b 1031 601 1017 578 1017 592 l 1069 628 b 1065 654 1085 640 1083 650 l 1018 663 b 1008 692 999 665 996 679 l 1042 728 b 1031 751 1053 740 1050 751 l 982 749 b 968 776 964 747 957 761 l 993 817 b 978 836 1003 833 996 842 l 931 826 b 910 850 914 821 904 832 l 925 893 b 907 913 932 913 924 919 l 864 890 b 838 908 849 882 836 890 l 844 956 b 824 969 846 974 838 981 l 785 940 b 756 953 771 929 757 933 l 753 1001 b 729 1008 751 1019 740 1022 l 697 972 b 667 979 685 957 672 961 l 653 1025 b 628 1026 649 1042 636 1043 l 604 985 b 594 974 603 979 600 976 b 608 954 593 965 596 960 l 651 936 b 651 911 671 929 671 917 l 608 892 b 604 860 592 885 590 872 l 644 833 b 640 810 660 824 657 813 l 593 801 b 576 781 579 799 572 789 b 700 469 650 743 700 608 l 719 497 b 647 721 713 586 688 668 b 728 513 688 678 717 599 b 768 631 747 547 757 586 b 688 711 717 636 688 664 b 771 792 688 758 729 792 b 860 699 824 792 860 751 b 474 256 860 519 674 256 b 346 346 392 256 346 293 b 411 421 346 389 374 421 b 482 353 457 421 482 390 b 504 326 482 338 489 328 l 504 336 b 492 374 504 350 501 363 b 514 325 507 361 514 344 l 519 325 b 583 350 560 325 572 336 b 515 635 583 433 551 565 l 506 636 b 486 614 489 642 479 631 l 501 568 b 482 551 507 551 499 543 l 439 571 b 414 553 424 579 411 571 l 419 506 b 399 493 424 488 414 482 l 360 522 b 331 510 346 533 333 528 l 328 463 b 304 454 326 444 317 440 l 272 490 b 242 485 261 504 247 501 l 229 438 b 204 435 224 421 213 418 l 182 478 b 157 486 175 489 165 493 b 149 478 156 485 153 481 l 110 450 b 115 425 94 440 96 429 l 161 417 b 172 386 181 414 183 400 l 138 353 b 149 329 126 340 129 329 l 197 332 b 213 304 215 332 222 319 l 186 263 b 201 242 176 247 183 239 l 249 254 b 269 231 265 260 276 247 l 254 185 b 272 168 247 168 256 160 l 314 189 b 342 169 331 197 343 189 l 335 124 b 357 111 331 104 342 100 l 393 140 b 424 126 408 151 422 144 l 426 79 b 450 71 429 61 439 58 l 482 108 b 513 101 494 121 507 119 l 526 56 b 551 53 531 38 543 38 l 572 94 b 604 94 583 111 596 111 l 628 53 b 653 56 636 38 649 38 l 667 101 b 697 108 672 119 685 121 l 729 71 b 753 79 740 58 751 61 l 756 126 b 785 140 757 144 771 151 l 824 111 b 844 124 838 100 846 104 l 838 169 b 864 189 836 189 849 197 l 907 168 b 925 185 924 160 932 168 l 910 231 b 931 254 904 247 914 260 l 978 242 b 993 263 996 239 1003 247 l 968 304 b 982 332 957 319 964 332 l 1031 329 b 1042 353 1050 329 1053 340 l 1008 386 b 1018 417 996 400 999 414 l 1065 425 b 1069 450 1083 429 1085 440 l 1031 478 b 1035 510 1017 488 1017 503 z m 506 228 b 422 246 471 228 442 233 b 490 233 440 238 464 233 b 763 390 593 233 690 301 b 881 682 833 479 881 590 b 864 739 881 704 875 722 b 892 671 882 722 892 697 b 506 228 892 490 706 228 z "},"³":{"ha":525,"x_min":0,"x_max":0,"o":"m 1035 510 l 1078 528 b 1078 553 1094 535 1094 546 l 1035 571 b 1031 601 1017 578 1017 592 l 1069 628 b 1065 654 1085 640 1083 650 l 1018 663 b 1008 692 999 665 996 679 l 1042 728 b 1031 751 1053 740 1050 751 l 982 749 b 968 776 964 747 957 761 l 993 817 b 978 836 1003 833 996 842 l 931 826 b 910 850 914 821 904 832 l 925 893 b 907 913 932 913 924 919 l 864 890 b 838 908 849 882 836 890 l 844 956 b 824 969 846 974 838 981 l 785 940 b 756 953 771 929 757 933 l 753 1001 b 729 1008 751 1019 740 1022 l 697 972 b 667 979 685 957 672 961 l 653 1025 b 628 1026 649 1042 636 1043 l 604 985 b 594 974 603 979 600 976 b 608 954 593 965 596 960 l 651 936 b 651 911 671 929 671 917 l 608 892 b 604 860 592 885 590 872 l 644 833 b 640 810 660 824 657 813 l 593 801 b 576 781 579 799 572 789 b 700 469 650 743 700 608 l 719 497 b 647 721 713 586 688 668 b 728 513 688 678 717 599 b 768 631 747 547 757 586 b 688 711 717 636 688 664 b 771 792 688 758 729 792 b 860 699 824 792 860 751 b 474 256 860 519 674 256 b 346 346 392 256 346 293 b 411 421 346 389 374 421 b 482 353 457 421 482 390 b 504 326 482 338 489 328 l 504 336 b 492 374 504 350 501 363 b 514 325 507 361 514 344 l 519 325 b 583 350 560 325 572 336 b 515 635 583 433 551 565 l 506 636 b 486 614 489 642 479 631 l 501 568 b 482 551 507 551 499 543 l 439 571 b 414 553 424 579 411 571 l 419 506 b 399 493 424 488 414 482 l 360 522 b 331 510 346 533 333 528 l 328 463 b 304 454 326 444 317 440 l 272 490 b 242 485 261 504 247 501 l 229 438 b 204 435 224 421 213 418 l 182 478 b 157 486 175 489 165 493 b 149 478 156 485 153 481 l 110 450 b 115 425 94 440 96 429 l 161 417 b 172 386 181 414 183 400 l 138 353 b 149 329 126 340 129 329 l 197 332 b 213 304 215 332 222 319 l 186 263 b 201 242 176 247 183 239 l 249 254 b 269 231 265 260 276 247 l 254 185 b 272 168 247 168 256 160 l 314 189 b 342 169 331 197 343 189 l 335 124 b 357 111 331 104 342 100 l 393 140 b 424 126 408 151 422 144 l 426 79 b 450 71 429 61 439 58 l 482 108 b 513 101 494 121 507 119 l 526 56 b 551 53 531 38 543 38 l 572 94 b 604 94 583 111 596 111 l 628 53 b 653 56 636 38 649 38 l 667 101 b 697 108 672 119 685 121 l 729 71 b 753 79 740 58 751 61 l 756 126 b 785 140 757 144 771 151 l 824 111 b 844 124 838 100 846 104 l 838 169 b 864 189 836 189 849 197 l 907 168 b 925 185 924 160 932 168 l 910 231 b 931 254 904 247 914 260 l 978 242 b 993 263 996 239 1003 247 l 968 304 b 982 332 957 319 964 332 l 1031 329 b 1042 353 1050 329 1053 340 l 1008 386 b 1018 417 996 400 999 414 l 1065 425 b 1069 450 1083 429 1085 440 l 1031 478 b 1035 510 1017 488 1017 503 z m 506 228 b 422 246 471 228 442 233 b 490 233 440 238 464 233 b 763 390 593 233 690 301 b 881 682 833 479 881 590 b 864 739 881 704 875 722 b 892 671 882 722 892 697 b 506 228 892 490 706 228 z "},"´":{"ha":514,"x_min":0,"x_max":0,"o":"m 1035 510 l 1078 528 b 1078 553 1094 535 1094 546 l 1035 571 b 1031 601 1017 578 1017 592 l 1069 628 b 1065 654 1085 640 1083 650 l 1018 663 b 1008 692 999 665 996 679 l 1042 728 b 1031 751 1053 740 1050 751 l 982 749 b 968 776 964 747 957 761 l 993 817 b 978 836 1003 833 996 842 l 931 826 b 910 850 914 821 904 832 l 925 893 b 907 913 932 913 924 919 l 864 890 b 838 908 849 882 836 890 l 844 956 b 824 969 846 974 838 981 l 785 940 b 756 953 771 929 757 933 l 753 1001 b 729 1008 751 1019 740 1022 l 697 972 b 667 979 685 957 672 961 l 653 1025 b 628 1026 649 1042 636 1043 l 604 985 b 594 974 603 979 600 976 b 608 954 593 965 596 960 l 651 936 b 651 911 671 929 671 917 l 608 892 b 604 860 592 885 590 872 l 644 833 b 640 810 660 824 657 813 l 593 801 b 576 781 579 799 572 789 b 700 469 650 743 700 608 l 719 497 b 647 721 713 586 688 668 b 728 513 688 678 717 599 b 768 631 747 547 757 586 b 688 711 717 636 688 664 b 771 792 688 758 729 792 b 860 699 824 792 860 751 b 474 256 860 519 674 256 b 346 346 392 256 346 293 b 411 421 346 389 374 421 b 482 353 457 421 482 390 b 504 326 482 338 489 328 l 504 336 b 492 374 504 350 501 363 b 514 325 507 361 514 344 l 519 325 b 583 350 560 325 572 336 b 515 635 583 433 551 565 l 506 636 b 486 614 489 642 479 631 l 501 568 b 482 551 507 551 499 543 l 439 571 b 414 553 424 579 411 571 l 419 506 b 399 493 424 488 414 482 l 360 522 b 331 510 346 533 333 528 l 328 463 b 304 454 326 444 317 440 l 272 490 b 242 485 261 504 247 501 l 229 438 b 204 435 224 421 213 418 l 182 478 b 157 486 175 489 165 493 b 149 478 156 485 153 481 l 110 450 b 115 425 94 440 96 429 l 161 417 b 172 386 181 414 183 400 l 138 353 b 149 329 126 340 129 329 l 197 332 b 213 304 215 332 222 319 l 186 263 b 201 242 176 247 183 239 l 249 254 b 269 231 265 260 276 247 l 254 185 b 272 168 247 168 256 160 l 314 189 b 342 169 331 197 343 189 l 335 124 b 357 111 331 104 342 100 l 393 140 b 424 126 408 151 422 144 l 426 79 b 450 71 429 61 439 58 l 482 108 b 513 101 494 121 507 119 l 526 56 b 551 53 531 38 543 38 l 572 94 b 604 94 583 111 596 111 l 628 53 b 653 56 636 38 649 38 l 667 101 b 697 108 672 119 685 121 l 729 71 b 753 79 740 58 751 61 l 756 126 b 785 140 757 144 771 151 l 824 111 b 844 124 838 100 846 104 l 838 169 b 864 189 836 189 849 197 l 907 168 b 925 185 924 160 932 168 l 910 231 b 931 254 904 247 914 260 l 978 242 b 993 263 996 239 1003 247 l 968 304 b 982 332 957 319 964 332 l 1031 329 b 1042 353 1050 329 1053 340 l 1008 386 b 1018 417 996 400 999 414 l 1065 425 b 1069 450 1083 429 1085 440 l 1031 478 b 1035 510 1017 488 1017 503 z m 506 228 b 422 246 471 228 442 233 b 490 233 440 238 464 233 b 763 390 593 233 690 301 b 881 682 833 479 881 590 b 864 739 881 704 875 722 b 892 671 882 722 892 697 b 506 228 892 490 706 228 z "},"µ":{"ha":799,"x_min":0,"x_max":0,"o":"m 825 386 b 575 118 726 215 631 118 b 589 296 550 118 526 139 l 761 721 l 540 721 l 390 351 b 200 138 308 211 254 138 b 210 296 174 138 153 156 l 381 721 l 160 721 l -243 -275 l -22 -275 l 82 -14 b 117 -18 92 -17 101 -18 b 342 107 203 -18 278 32 b 497 -18 357 22 417 -18 b 903 331 661 -18 800 150 b 825 386 892 357 854 383 z "},"¶":{"ha":1056,"x_min":0,"x_max":0,"o":"m 1035 510 l 1078 528 b 1078 553 1094 535 1094 546 l 1035 571 b 1031 601 1017 578 1017 592 l 1069 628 b 1065 654 1085 640 1083 650 l 1018 663 b 1008 692 999 665 996 679 l 1042 728 b 1031 751 1053 740 1050 751 l 982 749 b 968 776 964 747 957 761 l 993 817 b 978 836 1003 833 996 842 l 931 826 b 910 850 914 821 904 832 l 925 893 b 907 913 932 913 924 919 l 864 890 b 838 908 849 882 836 890 l 844 956 b 824 969 846 974 838 981 l 785 940 b 756 953 771 929 757 933 l 753 1001 b 729 1008 751 1019 740 1022 l 697 972 b 667 979 685 957 672 961 l 653 1025 b 628 1026 649 1042 636 1043 l 604 985 b 594 974 603 979 600 976 b 608 954 593 965 596 960 l 651 936 b 651 911 671 929 671 917 l 608 892 b 604 860 592 885 590 872 l 644 833 b 640 810 660 824 657 813 l 593 801 b 576 781 579 799 572 789 b 700 469 650 743 700 608 l 719 497 b 647 721 713 586 688 668 b 728 513 688 678 717 599 b 768 631 747 547 757 586 b 688 711 717 636 688 664 b 771 792 688 758 729 792 b 860 699 824 792 860 751 b 474 256 860 519 674 256 b 346 346 392 256 346 293 b 411 421 346 389 374 421 b 482 353 457 421 482 390 b 504 326 482 338 489 328 l 504 336 b 492 374 504 350 501 363 b 514 325 507 361 514 344 l 519 325 b 583 350 560 325 572 336 b 515 635 583 433 551 565 l 506 636 b 486 614 489 642 479 631 l 501 568 b 482 551 507 551 499 543 l 439 571 b 414 553 424 579 411 571 l 419 506 b 399 493 424 488 414 482 l 360 522 b 331 510 346 533 333 528 l 328 463 b 304 454 326 444 317 440 l 272 490 b 242 485 261 504 247 501 l 229 438 b 204 435 224 421 213 418 l 182 478 b 157 486 175 489 165 493 b 149 478 156 485 153 481 l 110 450 b 115 425 94 440 96 429 l 161 417 b 172 386 181 414 183 400 l 138 353 b 149 329 126 340 129 329 l 197 332 b 213 304 215 332 222 319 l 186 263 b 201 242 176 247 183 239 l 249 254 b 269 231 265 260 276 247 l 254 185 b 272 168 247 168 256 160 l 314 189 b 342 169 331 197 343 189 l 335 124 b 357 111 331 104 342 100 l 393 140 b 424 126 408 151 422 144 l 426 79 b 450 71 429 61 439 58 l 482 108 b 513 101 494 121 507 119 l 526 56 b 551 53 531 38 543 38 l 572 94 b 604 94 583 111 596 111 l 628 53 b 653 56 636 38 649 38 l 667 101 b 697 108 672 119 685 121 l 729 71 b 753 79 740 58 751 61 l 756 126 b 785 140 757 144 771 151 l 824 111 b 844 124 838 100 846 104 l 838 169 b 864 189 836 189 849 197 l 907 168 b 925 185 924 160 932 168 l 910 231 b 931 254 904 247 914 260 l 978 242 b 993 263 996 239 1003 247 l 968 304 b 982 332 957 319 964 332 l 1031 329 b 1042 353 1050 329 1053 340 l 1008 386 b 1018 417 996 400 999 414 l 1065 425 b 1069 450 1083 429 1085 440 l 1031 478 b 1035 510 1017 488 1017 503 z m 506 228 b 422 246 471 228 442 233 b 490 233 440 238 464 233 b 763 390 593 233 690 301 b 881 682 833 479 881 590 b 864 739 881 704 875 722 b 892 671 882 722 892 697 b 506 228 892 490 706 228 z "},"·":{"ha":615,"x_min":0,"x_max":0,"o":"m 1035 510 l 1078 528 b 1078 553 1094 535 1094 546 l 1035 571 b 1031 601 1017 578 1017 592 l 1069 628 b 1065 654 1085 640 1083 650 l 1018 663 b 1008 692 999 665 996 679 l 1042 728 b 1031 751 1053 740 1050 751 l 982 749 b 968 776 964 747 957 761 l 993 817 b 978 836 1003 833 996 842 l 931 826 b 910 850 914 821 904 832 l 925 893 b 907 913 932 913 924 919 l 864 890 b 838 908 849 882 836 890 l 844 956 b 824 969 846 974 838 981 l 785 940 b 756 953 771 929 757 933 l 753 1001 b 729 1008 751 1019 740 1022 l 697 972 b 667 979 685 957 672 961 l 653 1025 b 628 1026 649 1042 636 1043 l 604 985 b 594 974 603 979 600 976 b 608 954 593 965 596 960 l 651 936 b 651 911 671 929 671 917 l 608 892 b 604 860 592 885 590 872 l 644 833 b 640 810 660 824 657 813 l 593 801 b 576 781 579 799 572 789 b 700 469 650 743 700 608 l 719 497 b 647 721 713 586 688 668 b 728 513 688 678 717 599 b 768 631 747 547 757 586 b 688 711 717 636 688 664 b 771 792 688 758 729 792 b 860 699 824 792 860 751 b 474 256 860 519 674 256 b 346 346 392 256 346 293 b 411 421 346 389 374 421 b 482 353 457 421 482 390 b 504 326 482 338 489 328 l 504 336 b 492 374 504 350 501 363 b 514 325 507 361 514 344 l 519 325 b 583 350 560 325 572 336 b 515 635 583 433 551 565 l 506 636 b 486 614 489 642 479 631 l 501 568 b 482 551 507 551 499 543 l 439 571 b 414 553 424 579 411 571 l 419 506 b 399 493 424 488 414 482 l 360 522 b 331 510 346 533 333 528 l 328 463 b 304 454 326 444 317 440 l 272 490 b 242 485 261 504 247 501 l 229 438 b 204 435 224 421 213 418 l 182 478 b 157 486 175 489 165 493 b 149 478 156 485 153 481 l 110 450 b 115 425 94 440 96 429 l 161 417 b 172 386 181 414 183 400 l 138 353 b 149 329 126 340 129 329 l 197 332 b 213 304 215 332 222 319 l 186 263 b 201 242 176 247 183 239 l 249 254 b 269 231 265 260 276 247 l 254 185 b 272 168 247 168 256 160 l 314 189 b 342 169 331 197 343 189 l 335 124 b 357 111 331 104 342 100 l 393 140 b 424 126 408 151 422 144 l 426 79 b 450 71 429 61 439 58 l 482 108 b 513 101 494 121 507 119 l 526 56 b 551 53 531 38 543 38 l 572 94 b 604 94 583 111 596 111 l 628 53 b 653 56 636 38 649 38 l 667 101 b 697 108 672 119 685 121 l 729 71 b 753 79 740 58 751 61 l 756 126 b 785 140 757 144 771 151 l 824 111 b 844 124 838 100 846 104 l 838 169 b 864 189 836 189 849 197 l 907 168 b 925 185 924 160 932 168 l 910 231 b 931 254 904 247 914 260 l 978 242 b 993 263 996 239 1003 247 l 968 304 b 982 332 957 319 964 332 l 1031 329 b 1042 353 1050 329 1053 340 l 1008 386 b 1018 417 996 400 999 414 l 1065 425 b 1069 450 1083 429 1085 440 l 1031 478 b 1035 510 1017 488 1017 503 z m 506 228 b 422 246 471 228 442 233 b 490 233 440 238 464 233 b 763 390 593 233 690 301 b 881 682 833 479 881 590 b 864 739 881 704 875 722 b 892 671 882 722 892 697 b 506 228 892 490 706 228 z "},"¸":{"ha":514,"x_min":0,"x_max":0,"o":"m 1035 510 l 1078 528 b 1078 553 1094 535 1094 546 l 1035 571 b 1031 601 1017 578 1017 592 l 1069 628 b 1065 654 1085 640 1083 650 l 1018 663 b 1008 692 999 665 996 679 l 1042 728 b 1031 751 1053 740 1050 751 l 982 749 b 968 776 964 747 957 761 l 993 817 b 978 836 1003 833 996 842 l 931 826 b 910 850 914 821 904 832 l 925 893 b 907 913 932 913 924 919 l 864 890 b 838 908 849 882 836 890 l 844 956 b 824 969 846 974 838 981 l 785 940 b 756 953 771 929 757 933 l 753 1001 b 729 1008 751 1019 740 1022 l 697 972 b 667 979 685 957 672 961 l 653 1025 b 628 1026 649 1042 636 1043 l 604 985 b 594 974 603 979 600 976 b 608 954 593 965 596 960 l 651 936 b 651 911 671 929 671 917 l 608 892 b 604 860 592 885 590 872 l 644 833 b 640 810 660 824 657 813 l 593 801 b 576 781 579 799 572 789 b 700 469 650 743 700 608 l 719 497 b 647 721 713 586 688 668 b 728 513 688 678 717 599 b 768 631 747 547 757 586 b 688 711 717 636 688 664 b 771 792 688 758 729 792 b 860 699 824 792 860 751 b 474 256 860 519 674 256 b 346 346 392 256 346 293 b 411 421 346 389 374 421 b 482 353 457 421 482 390 b 504 326 482 338 489 328 l 504 336 b 492 374 504 350 501 363 b 514 325 507 361 514 344 l 519 325 b 583 350 560 325 572 336 b 515 635 583 433 551 565 l 506 636 b 486 614 489 642 479 631 l 501 568 b 482 551 507 551 499 543 l 439 571 b 414 553 424 579 411 571 l 419 506 b 399 493 424 488 414 482 l 360 522 b 331 510 346 533 333 528 l 328 463 b 304 454 326 444 317 440 l 272 490 b 242 485 261 504 247 501 l 229 438 b 204 435 224 421 213 418 l 182 478 b 157 486 175 489 165 493 b 149 478 156 485 153 481 l 110 450 b 115 425 94 440 96 429 l 161 417 b 172 386 181 414 183 400 l 138 353 b 149 329 126 340 129 329 l 197 332 b 213 304 215 332 222 319 l 186 263 b 201 242 176 247 183 239 l 249 254 b 269 231 265 260 276 247 l 254 185 b 272 168 247 168 256 160 l 314 189 b 342 169 331 197 343 189 l 335 124 b 357 111 331 104 342 100 l 393 140 b 424 126 408 151 422 144 l 426 79 b 450 71 429 61 439 58 l 482 108 b 513 101 494 121 507 119 l 526 56 b 551 53 531 38 543 38 l 572 94 b 604 94 583 111 596 111 l 628 53 b 653 56 636 38 649 38 l 667 101 b 697 108 672 119 685 121 l 729 71 b 753 79 740 58 751 61 l 756 126 b 785 140 757 144 771 151 l 824 111 b 844 124 838 100 846 104 l 838 169 b 864 189 836 189 849 197 l 907 168 b 925 185 924 160 932 168 l 910 231 b 931 254 904 247 914 260 l 978 242 b 993 263 996 239 1003 247 l 968 304 b 982 332 957 319 964 332 l 1031 329 b 1042 353 1050 329 1053 340 l 1008 386 b 1018 417 996 400 999 414 l 1065 425 b 1069 450 1083 429 1085 440 l 1031 478 b 1035 510 1017 488 1017 503 z m 506 228 b 422 246 471 228 442 233 b 490 233 440 238 464 233 b 763 390 593 233 690 301 b 881 682 833 479 881 590 b 864 739 881 704 875 722 b 892 671 882 722 892 697 b 506 228 892 490 706 228 z "},"¹":{"ha":425,"x_min":0,"x_max":0,"o":"m 1035 510 l 1078 528 b 1078 553 1094 535 1094 546 l 1035 571 b 1031 601 1017 578 1017 592 l 1069 628 b 1065 654 1085 640 1083 650 l 1018 663 b 1008 692 999 665 996 679 l 1042 728 b 1031 751 1053 740 1050 751 l 982 749 b 968 776 964 747 957 761 l 993 817 b 978 836 1003 833 996 842 l 931 826 b 910 850 914 821 904 832 l 925 893 b 907 913 932 913 924 919 l 864 890 b 838 908 849 882 836 890 l 844 956 b 824 969 846 974 838 981 l 785 940 b 756 953 771 929 757 933 l 753 1001 b 729 1008 751 1019 740 1022 l 697 972 b 667 979 685 957 672 961 l 653 1025 b 628 1026 649 1042 636 1043 l 604 985 b 594 974 603 979 600 976 b 608 954 593 965 596 960 l 651 936 b 651 911 671 929 671 917 l 608 892 b 604 860 592 885 590 872 l 644 833 b 640 810 660 824 657 813 l 593 801 b 576 781 579 799 572 789 b 700 469 650 743 700 608 l 719 497 b 647 721 713 586 688 668 b 728 513 688 678 717 599 b 768 631 747 547 757 586 b 688 711 717 636 688 664 b 771 792 688 758 729 792 b 860 699 824 792 860 751 b 474 256 860 519 674 256 b 346 346 392 256 346 293 b 411 421 346 389 374 421 b 482 353 457 421 482 390 b 504 326 482 338 489 328 l 504 336 b 492 374 504 350 501 363 b 514 325 507 361 514 344 l 519 325 b 583 350 560 325 572 336 b 515 635 583 433 551 565 l 506 636 b 486 614 489 642 479 631 l 501 568 b 482 551 507 551 499 543 l 439 571 b 414 553 424 579 411 571 l 419 506 b 399 493 424 488 414 482 l 360 522 b 331 510 346 533 333 528 l 328 463 b 304 454 326 444 317 440 l 272 490 b 242 485 261 504 247 501 l 229 438 b 204 435 224 421 213 418 l 182 478 b 157 486 175 489 165 493 b 149 478 156 485 153 481 l 110 450 b 115 425 94 440 96 429 l 161 417 b 172 386 181 414 183 400 l 138 353 b 149 329 126 340 129 329 l 197 332 b 213 304 215 332 222 319 l 186 263 b 201 242 176 247 183 239 l 249 254 b 269 231 265 260 276 247 l 254 185 b 272 168 247 168 256 160 l 314 189 b 342 169 331 197 343 189 l 335 124 b 357 111 331 104 342 100 l 393 140 b 424 126 408 151 422 144 l 426 79 b 450 71 429 61 439 58 l 482 108 b 513 101 494 121 507 119 l 526 56 b 551 53 531 38 543 38 l 572 94 b 604 94 583 111 596 111 l 628 53 b 653 56 636 38 649 38 l 667 101 b 697 108 672 119 685 121 l 729 71 b 753 79 740 58 751 61 l 756 126 b 785 140 757 144 771 151 l 824 111 b 844 124 838 100 846 104 l 838 169 b 864 189 836 189 849 197 l 907 168 b 925 185 924 160 932 168 l 910 231 b 931 254 904 247 914 260 l 978 242 b 993 263 996 239 1003 247 l 968 304 b 982 332 957 319 964 332 l 1031 329 b 1042 353 1050 329 1053 340 l 1008 386 b 1018 417 996 400 999 414 l 1065 425 b 1069 450 1083 429 1085 440 l 1031 478 b 1035 510 1017 488 1017 503 z m 506 228 b 422 246 471 228 442 233 b 490 233 440 238 464 233 b 763 390 593 233 690 301 b 881 682 833 479 881 590 b 864 739 881 704 875 722 b 892 671 882 722 892 697 b 506 228 892 490 706 228 z "},"º":{"ha":632,"x_min":0,"x_max":0,"o":"m 1035 510 l 1078 528 b 1078 553 1094 535 1094 546 l 1035 571 b 1031 601 1017 578 1017 592 l 1069 628 b 1065 654 1085 640 1083 650 l 1018 663 b 1008 692 999 665 996 679 l 1042 728 b 1031 751 1053 740 1050 751 l 982 749 b 968 776 964 747 957 761 l 993 817 b 978 836 1003 833 996 842 l 931 826 b 910 850 914 821 904 832 l 925 893 b 907 913 932 913 924 919 l 864 890 b 838 908 849 882 836 890 l 844 956 b 824 969 846 974 838 981 l 785 940 b 756 953 771 929 757 933 l 753 1001 b 729 1008 751 1019 740 1022 l 697 972 b 667 979 685 957 672 961 l 653 1025 b 628 1026 649 1042 636 1043 l 604 985 b 594 974 603 979 600 976 b 608 954 593 965 596 960 l 651 936 b 651 911 671 929 671 917 l 608 892 b 604 860 592 885 590 872 l 644 833 b 640 810 660 824 657 813 l 593 801 b 576 781 579 799 572 789 b 700 469 650 743 700 608 l 719 497 b 647 721 713 586 688 668 b 728 513 688 678 717 599 b 768 631 747 547 757 586 b 688 711 717 636 688 664 b 771 792 688 758 729 792 b 860 699 824 792 860 751 b 474 256 860 519 674 256 b 346 346 392 256 346 293 b 411 421 346 389 374 421 b 482 353 457 421 482 390 b 504 326 482 338 489 328 l 504 336 b 492 374 504 350 501 363 b 514 325 507 361 514 344 l 519 325 b 583 350 560 325 572 336 b 515 635 583 433 551 565 l 506 636 b 486 614 489 642 479 631 l 501 568 b 482 551 507 551 499 543 l 439 571 b 414 553 424 579 411 571 l 419 506 b 399 493 424 488 414 482 l 360 522 b 331 510 346 533 333 528 l 328 463 b 304 454 326 444 317 440 l 272 490 b 242 485 261 504 247 501 l 229 438 b 204 435 224 421 213 418 l 182 478 b 157 486 175 489 165 493 b 149 478 156 485 153 481 l 110 450 b 115 425 94 440 96 429 l 161 417 b 172 386 181 414 183 400 l 138 353 b 149 329 126 340 129 329 l 197 332 b 213 304 215 332 222 319 l 186 263 b 201 242 176 247 183 239 l 249 254 b 269 231 265 260 276 247 l 254 185 b 272 168 247 168 256 160 l 314 189 b 342 169 331 197 343 189 l 335 124 b 357 111 331 104 342 100 l 393 140 b 424 126 408 151 422 144 l 426 79 b 450 71 429 61 439 58 l 482 108 b 513 101 494 121 507 119 l 526 56 b 551 53 531 38 543 38 l 572 94 b 604 94 583 111 596 111 l 628 53 b 653 56 636 38 649 38 l 667 101 b 697 108 672 119 685 121 l 729 71 b 753 79 740 58 751 61 l 756 126 b 785 140 757 144 771 151 l 824 111 b 844 124 838 100 846 104 l 838 169 b 864 189 836 189 849 197 l 907 168 b 925 185 924 160 932 168 l 910 231 b 931 254 904 247 914 260 l 978 242 b 993 263 996 239 1003 247 l 968 304 b 982 332 957 319 964 332 l 1031 329 b 1042 353 1050 329 1053 340 l 1008 386 b 1018 417 996 400 999 414 l 1065 425 b 1069 450 1083 429 1085 440 l 1031 478 b 1035 510 1017 488 1017 503 z m 506 228 b 422 246 471 228 442 233 b 490 233 440 238 464 233 b 763 390 593 233 690 301 b 881 682 833 479 881 590 b 864 739 881 704 875 722 b 892 671 882 722 892 697 b 506 228 892 490 706 228 z "},"»":{"ha":1178,"x_min":0,"x_max":0,"o":"m 1035 510 l 1078 528 b 1078 553 1094 535 1094 546 l 1035 571 b 1031 601 1017 578 1017 592 l 1069 628 b 1065 654 1085 640 1083 650 l 1018 663 b 1008 692 999 665 996 679 l 1042 728 b 1031 751 1053 740 1050 751 l 982 749 b 968 776 964 747 957 761 l 993 817 b 978 836 1003 833 996 842 l 931 826 b 910 850 914 821 904 832 l 925 893 b 907 913 932 913 924 919 l 864 890 b 838 908 849 882 836 890 l 844 956 b 824 969 846 974 838 981 l 785 940 b 756 953 771 929 757 933 l 753 1001 b 729 1008 751 1019 740 1022 l 697 972 b 667 979 685 957 672 961 l 653 1025 b 628 1026 649 1042 636 1043 l 604 985 b 594 974 603 979 600 976 b 608 954 593 965 596 960 l 651 936 b 651 911 671 929 671 917 l 608 892 b 604 860 592 885 590 872 l 644 833 b 640 810 660 824 657 813 l 593 801 b 576 781 579 799 572 789 b 700 469 650 743 700 608 l 719 497 b 647 721 713 586 688 668 b 728 513 688 678 717 599 b 768 631 747 547 757 586 b 688 711 717 636 688 664 b 771 792 688 758 729 792 b 860 699 824 792 860 751 b 474 256 860 519 674 256 b 346 346 392 256 346 293 b 411 421 346 389 374 421 b 482 353 457 421 482 390 b 504 326 482 338 489 328 l 504 336 b 492 374 504 350 501 363 b 514 325 507 361 514 344 l 519 325 b 583 350 560 325 572 336 b 515 635 583 433 551 565 l 506 636 b 486 614 489 642 479 631 l 501 568 b 482 551 507 551 499 543 l 439 571 b 414 553 424 579 411 571 l 419 506 b 399 493 424 488 414 482 l 360 522 b 331 510 346 533 333 528 l 328 463 b 304 454 326 444 317 440 l 272 490 b 242 485 261 504 247 501 l 229 438 b 204 435 224 421 213 418 l 182 478 b 157 486 175 489 165 493 b 149 478 156 485 153 481 l 110 450 b 115 425 94 440 96 429 l 161 417 b 172 386 181 414 183 400 l 138 353 b 149 329 126 340 129 329 l 197 332 b 213 304 215 332 222 319 l 186 263 b 201 242 176 247 183 239 l 249 254 b 269 231 265 260 276 247 l 254 185 b 272 168 247 168 256 160 l 314 189 b 342 169 331 197 343 189 l 335 124 b 357 111 331 104 342 100 l 393 140 b 424 126 408 151 422 144 l 426 79 b 450 71 429 61 439 58 l 482 108 b 513 101 494 121 507 119 l 526 56 b 551 53 531 38 543 38 l 572 94 b 604 94 583 111 596 111 l 628 53 b 653 56 636 38 649 38 l 667 101 b 697 108 672 119 685 121 l 729 71 b 753 79 740 58 751 61 l 756 126 b 785 140 757 144 771 151 l 824 111 b 844 124 838 100 846 104 l 838 169 b 864 189 836 189 849 197 l 907 168 b 925 185 924 160 932 168 l 910 231 b 931 254 904 247 914 260 l 978 242 b 993 263 996 239 1003 247 l 968 304 b 982 332 957 319 964 332 l 1031 329 b 1042 353 1050 329 1053 340 l 1008 386 b 1018 417 996 400 999 414 l 1065 425 b 1069 450 1083 429 1085 440 l 1031 478 b 1035 510 1017 488 1017 503 z m 506 228 b 422 246 471 228 442 233 b 490 233 440 238 464 233 b 763 390 593 233 690 301 b 881 682 833 479 881 590 b 864 739 881 704 875 722 b 892 671 882 722 892 697 b 506 228 892 490 706 228 z "},"¼":{"ha":1174,"x_min":0,"x_max":0,"o":"m 531 996 l 386 996 b 110 669 386 996 286 839 l 165 606 b 274 722 203 643 240 685 l 139 382 l 285 382 z m 781 150 l 719 0 l 865 0 l 925 150 b 1086 238 1038 150 1086 238 l 1028 301 b 979 282 1028 301 1011 285 l 1113 614 l 910 614 l 615 279 l 561 150 z m 736 279 l 914 485 l 833 279 z m 915 996 l 92 0 l 210 0 l 1035 996 z "},"½":{"ha":1201,"x_min":0,"x_max":0,"o":"m 531 996 l 386 996 b 110 669 386 996 286 839 l 165 606 b 274 722 203 643 240 685 l 139 382 l 285 382 z m 915 996 l 92 0 l 210 0 l 1035 996 z m 1165 475 b 986 625 1165 549 1119 625 b 739 367 790 625 740 457 l 883 367 b 971 510 885 438 922 510 b 1010 460 997 510 1010 486 b 658 140 1010 317 657 146 l 600 0 l 1007 0 l 1064 136 l 882 136 b 908 154 882 136 893 144 l 950 185 b 1165 475 1032 242 1164 349 z "},"¾":{"ha":1265,"x_min":0,"x_max":0,"o":"m 872 150 l 811 0 l 956 0 l 1017 150 b 1176 238 1128 150 1176 238 l 1119 301 b 1071 282 1119 301 1101 285 l 1203 614 l 1000 614 l 707 279 l 653 150 z m 828 279 l 1006 485 l 924 279 z m 1006 996 l 182 0 l 300 0 l 1125 996 z m 582 901 b 419 1036 582 936 567 1036 b 174 818 244 1036 188 904 l 318 818 b 394 921 328 872 347 921 b 438 882 436 921 438 892 b 286 792 438 863 425 792 l 244 686 b 365 629 257 688 365 704 b 268 514 365 589 332 514 b 251 664 193 514 224 617 l 104 664 b 253 400 54 571 57 400 b 503 633 431 400 503 538 b 443 740 503 688 481 722 b 582 901 544 772 582 840 z "},"¿":{"ha":733,"x_min":0,"x_max":0,"o":"m 1035 510 l 1078 528 b 1078 553 1094 535 1094 546 l 1035 571 b 1031 601 1017 578 1017 592 l 1069 628 b 1065 654 1085 640 1083 650 l 1018 663 b 1008 692 999 665 996 679 l 1042 728 b 1031 751 1053 740 1050 751 l 982 749 b 968 776 964 747 957 761 l 993 817 b 978 836 1003 833 996 842 l 931 826 b 910 850 914 821 904 832 l 925 893 b 907 913 932 913 924 919 l 864 890 b 838 908 849 882 836 890 l 844 956 b 824 969 846 974 838 981 l 785 940 b 756 953 771 929 757 933 l 753 1001 b 729 1008 751 1019 740 1022 l 697 972 b 667 979 685 957 672 961 l 653 1025 b 628 1026 649 1042 636 1043 l 604 985 b 594 974 603 979 600 976 b 608 954 593 965 596 960 l 651 936 b 651 911 671 929 671 917 l 608 892 b 604 860 592 885 590 872 l 644 833 b 640 810 660 824 657 813 l 593 801 b 576 781 579 799 572 789 b 700 469 650 743 700 608 l 719 497 b 647 721 713 586 688 668 b 728 513 688 678 717 599 b 768 631 747 547 757 586 b 688 711 717 636 688 664 b 771 792 688 758 729 792 b 860 699 824 792 860 751 b 474 256 860 519 674 256 b 346 346 392 256 346 293 b 411 421 346 389 374 421 b 482 353 457 421 482 390 b 504 326 482 338 489 328 l 504 336 b 492 374 504 350 501 363 b 514 325 507 361 514 344 l 519 325 b 583 350 560 325 572 336 b 515 635 583 433 551 565 l 506 636 b 486 614 489 642 479 631 l 501 568 b 482 551 507 551 499 543 l 439 571 b 414 553 424 579 411 571 l 419 506 b 399 493 424 488 414 482 l 360 522 b 331 510 346 533 333 528 l 328 463 b 304 454 326 444 317 440 l 272 490 b 242 485 261 504 247 501 l 229 438 b 204 435 224 421 213 418 l 182 478 b 157 486 175 489 165 493 b 149 478 156 485 153 481 l 110 450 b 115 425 94 440 96 429 l 161 417 b 172 386 181 414 183 400 l 138 353 b 149 329 126 340 129 329 l 197 332 b 213 304 215 332 222 319 l 186 263 b 201 242 176 247 183 239 l 249 254 b 269 231 265 260 276 247 l 254 185 b 272 168 247 168 256 160 l 314 189 b 342 169 331 197 343 189 l 335 124 b 357 111 331 104 342 100 l 393 140 b 424 126 408 151 422 144 l 426 79 b 450 71 429 61 439 58 l 482 108 b 513 101 494 121 507 119 l 526 56 b 551 53 531 38 543 38 l 572 94 b 604 94 583 111 596 111 l 628 53 b 653 56 636 38 649 38 l 667 101 b 697 108 672 119 685 121 l 729 71 b 753 79 740 58 751 61 l 756 126 b 785 140 757 144 771 151 l 824 111 b 844 124 838 100 846 104 l 838 169 b 864 189 836 189 849 197 l 907 168 b 925 185 924 160 932 168 l 910 231 b 931 254 904 247 914 260 l 978 242 b 993 263 996 239 1003 247 l 968 304 b 982 332 957 319 964 332 l 1031 329 b 1042 353 1050 329 1053 340 l 1008 386 b 1018 417 996 400 999 414 l 1065 425 b 1069 450 1083 429 1085 440 l 1031 478 b 1035 510 1017 488 1017 503 z m 506 228 b 422 246 471 228 442 233 b 490 233 440 238 464 233 b 763 390 593 233 690 301 b 881 682 833 479 881 590 b 864 739 881 704 875 722 b 892 671 882 722 892 697 b 506 228 892 490 706 228 z "},"À":{"ha":1257,"x_min":0,"x_max":0,"o":"m 829 1413 l 1078 1197 l 1249 1197 l 1064 1413 z m 1283 386 b 1038 217 1171 210 1100 215 l 1218 900 b 1033 1153 1254 1042 1168 1153 b 763 897 892 1153 842 1031 l 501 456 b 232 522 415 494 326 522 b -92 233 19 522 -92 379 b 197 -26 -92 93 13 -26 b 589 228 372 -26 493 81 b 797 128 654 193 725 157 l 728 -125 l 919 -232 l 999 71 b 1361 331 1167 53 1244 125 b 1283 386 1350 357 1313 383 z m 674 368 l 996 907 l 1010 901 l 840 282 b 674 368 786 307 726 339 z m 204 154 b 96 242 154 154 96 182 b 239 350 96 293 136 350 b 414 310 293 350 354 333 b 204 154 319 168 228 154 z "},"Á":{"ha":1257,"x_min":0,"x_max":0,"o":"m 1192 1413 l 1007 1197 l 1178 1197 l 1425 1413 z m 1283 386 b 1038 217 1171 210 1100 215 l 1218 900 b 1033 1153 1254 1042 1168 1153 b 763 897 892 1153 842 1031 l 501 456 b 232 522 415 494 326 522 b -92 233 19 522 -92 379 b 197 -26 -92 93 13 -26 b 589 228 372 -26 493 81 b 797 128 654 193 725 157 l 728 -125 l 919 -232 l 999 71 b 1361 331 1167 53 1244 125 b 1283 386 1350 357 1313 383 z m 674 368 l 996 907 l 1010 901 l 840 282 b 674 368 786 307 726 339 z m 204 154 b 96 242 154 154 96 182 b 239 350 96 293 136 350 b 414 310 293 350 354 333 b 204 154 319 168 228 154 z "},"Â":{"ha":1257,"x_min":0,"x_max":0,"o":"m 1254 1444 l 1143 1444 l 829 1199 l 1022 1199 l 1158 1300 l 1219 1199 l 1372 1199 z m 1283 386 b 1038 217 1171 210 1100 215 l 1218 900 b 1033 1153 1254 1042 1168 1153 b 763 897 892 1153 842 1031 l 501 456 b 232 522 415 494 326 522 b -92 233 19 522 -92 379 b 197 -26 -92 93 13 -26 b 589 228 372 -26 493 81 b 797 128 654 193 725 157 l 728 -125 l 919 -232 l 999 71 b 1361 331 1167 53 1244 125 b 1283 386 1350 357 1313 383 z m 674 368 l 996 907 l 1010 901 l 840 282 b 674 368 786 307 726 339 z m 204 154 b 96 242 154 154 96 182 b 239 350 96 293 136 350 b 414 310 293 350 354 333 b 204 154 319 168 228 154 z "},"Ã":{"ha":1257,"x_min":0,"x_max":0,"o":"m 956 1201 b 1031 1251 976 1232 1007 1251 b 1196 1199 1086 1251 1118 1199 b 1360 1317 1279 1199 1324 1264 l 1293 1390 b 1218 1342 1274 1358 1243 1342 b 1053 1394 1164 1342 1131 1394 b 889 1272 969 1394 926 1326 z m 1283 386 b 1038 217 1171 210 1100 215 l 1218 900 b 1033 1153 1254 1042 1168 1153 b 763 897 892 1153 842 1031 l 501 456 b 232 522 415 494 326 522 b -92 233 19 522 -92 379 b 197 -26 -92 93 13 -26 b 589 228 372 -26 493 81 b 797 128 654 193 725 157 l 728 -125 l 919 -232 l 999 71 b 1361 331 1167 53 1244 125 b 1283 386 1350 357 1313 383 z m 674 368 l 996 907 l 1010 901 l 840 282 b 674 368 786 307 726 339 z m 204 154 b 96 242 154 154 96 182 b 239 350 96 293 136 350 b 414 310 293 350 354 333 b 204 154 319 168 228 154 z "},"Ä":{"ha":1257,"x_min":0,"x_max":0,"o":"m 971 1188 b 1081 1296 1032 1188 1081 1236 b 971 1406 1081 1357 1032 1406 b 863 1296 911 1406 863 1357 b 971 1188 863 1236 911 1188 z m 1233 1188 b 1343 1296 1294 1188 1343 1236 b 1233 1406 1343 1357 1294 1406 b 1125 1296 1174 1406 1125 1357 b 1233 1188 1125 1236 1174 1188 z m 1283 386 b 1038 217 1171 210 1100 215 l 1218 900 b 1033 1153 1254 1042 1168 1153 b 763 897 892 1153 842 1031 l 501 456 b 232 522 415 494 326 522 b -92 233 19 522 -92 379 b 197 -26 -92 93 13 -26 b 589 228 372 -26 493 81 b 797 128 654 193 725 157 l 728 -125 l 919 -232 l 999 71 b 1361 331 1167 53 1244 125 b 1283 386 1350 357 1313 383 z m 674 368 l 996 907 l 1010 901 l 840 282 b 674 368 786 307 726 339 z m 204 154 b 96 242 154 154 96 182 b 239 350 96 293 136 350 b 414 310 293 350 354 333 b 204 154 319 168 228 154 z "},"Å":{"ha":1257,"x_min":0,"x_max":0,"o":"m 1186 1551 b 997 1363 1082 1551 997 1468 b 1186 1174 997 1258 1082 1174 b 1375 1363 1292 1174 1375 1258 b 1186 1551 1375 1468 1292 1551 z m 1186 1292 b 1115 1363 1147 1292 1115 1324 b 1186 1433 1115 1401 1147 1433 b 1257 1363 1225 1433 1257 1401 b 1186 1292 1257 1324 1225 1292 z m 1283 386 b 1038 217 1171 210 1100 215 l 1218 900 b 1033 1153 1254 1042 1168 1153 b 763 897 892 1153 842 1031 l 501 456 b 232 522 415 494 326 522 b -92 233 19 522 -92 379 b 197 -26 -92 93 13 -26 b 589 228 372 -26 493 81 b 797 128 654 193 725 157 l 728 -125 l 919 -232 l 999 71 b 1361 331 1167 53 1244 125 b 1283 386 1350 357 1313 383 z m 674 368 l 996 907 l 1010 901 l 840 282 b 674 368 786 307 726 339 z m 204 154 b 96 242 154 154 96 182 b 239 350 96 293 136 350 b 414 310 293 350 354 333 b 204 154 319 168 228 154 z "},"Æ":{"ha":1740,"x_min":0,"x_max":0,"o":"m 1650 690 b 1915 931 1817 690 1915 806 b 1650 1161 1915 1039 1839 1161 b 1425 1092 1563 1161 1486 1133 b 1417 1200 1418 1125 1415 1161 l 1275 1219 b 1310 967 1271 1132 1282 1044 b 1256 763 1274 906 1256 835 b 1269 665 1256 703 1269 665 b 1153 656 1229 668 1190 665 l 1218 900 b 1033 1153 1254 1042 1168 1153 b 763 897 892 1153 842 1031 l 501 456 b 232 522 415 494 326 522 b -92 233 19 522 -92 379 b 197 -19 -92 93 13 -19 b 589 228 371 -19 493 81 b 797 128 654 193 725 157 l 728 -125 l 919 -232 l 972 -35 b 1256 -150 1042 -106 1140 -150 b 1644 399 1524 -150 1744 92 l 1447 343 b 1263 50 1504 208 1421 50 b 1064 265 1142 50 1064 144 b 1263 472 1064 389 1143 472 b 1428 415 1363 472 1428 415 l 1533 572 b 1453 757 1525 578 1456 639 b 1650 690 1506 715 1572 690 z m 674 368 l 996 907 l 1010 901 l 840 282 b 674 368 786 307 726 339 z m 204 160 b 96 242 154 160 96 182 b 239 350 96 293 136 350 b 414 310 293 350 354 333 b 204 160 319 168 225 160 z m 1636 972 b 1728 911 1689 972 1728 947 b 1638 851 1728 872 1685 851 b 1504 914 1586 851 1542 874 b 1636 972 1540 953 1589 972 z "},"Ç":{"ha":1043,"x_min":0,"x_max":0,"o":"m 388 -203 b 475 -229 439 -197 475 -199 b 364 -244 475 -274 403 -264 l 301 -339 b 644 -218 407 -406 644 -378 b 569 -126 644 -164 615 -140 l 596 -76 b 1147 331 819 -60 1013 97 b 1069 386 1136 357 1099 383 b 608 69 936 158 725 69 b 475 221 492 69 475 156 b 493 358 475 260 481 308 l 497 358 b 917 489 685 358 821 417 b 1140 892 1069 603 1140 764 b 896 1161 1140 1033 1061 1161 b 325 561 640 1161 428 853 b 189 747 196 607 189 717 b 288 915 189 874 285 914 l 182 1069 b 0 749 78 1010 0 893 b 276 389 0 581 97 447 b 257 221 264 328 257 271 b 460 -69 257 72 319 -36 z m 860 942 b 917 874 903 942 917 908 b 792 640 917 819 883 719 b 549 542 735 592 656 551 b 860 942 629 744 758 942 z "},"È":{"ha":889,"x_min":0,"x_max":0,"o":"m 629 1425 l 878 1210 l 1047 1210 l 863 1425 z m 799 690 b 1064 931 965 690 1064 806 b 799 1161 1064 1039 988 1161 b 574 1092 711 1161 635 1133 b 565 1200 567 1125 564 1161 l 424 1219 b 458 967 419 1132 431 1044 b 404 763 422 906 404 835 b 418 665 404 703 418 665 b 0 258 211 685 0 508 b 408 -150 0 33 169 -150 b 793 399 678 -150 894 90 l 608 346 b 415 44 667 210 576 44 b 213 264 288 44 213 144 b 411 472 213 389 292 472 b 576 415 511 472 576 415 l 682 572 b 601 757 674 578 604 639 b 799 690 654 715 721 690 z m 785 972 b 876 911 838 972 876 947 b 786 851 876 872 833 851 b 653 914 735 851 690 874 b 785 972 689 953 738 972 z "},"É":{"ha":889,"x_min":0,"x_max":0,"o":"m 976 1425 l 792 1210 l 961 1210 l 1210 1425 z m 799 690 b 1064 931 965 690 1064 806 b 799 1161 1064 1039 988 1161 b 574 1092 711 1161 635 1133 b 565 1200 567 1125 564 1161 l 424 1219 b 458 967 419 1132 431 1044 b 404 763 422 906 404 835 b 418 665 404 703 418 665 b 0 258 211 685 0 508 b 408 -150 0 33 169 -150 b 793 399 678 -150 894 90 l 608 346 b 415 44 667 210 576 44 b 213 264 288 44 213 144 b 411 472 213 389 292 472 b 576 415 511 472 576 415 l 682 572 b 601 757 674 578 604 639 b 799 690 654 715 721 690 z m 785 972 b 876 911 838 972 876 947 b 786 851 876 872 833 851 b 653 914 735 851 690 874 b 785 972 689 953 738 972 z "},"Ê":{"ha":889,"x_min":0,"x_max":0,"o":"m 1036 1457 l 925 1457 l 610 1211 l 804 1211 l 940 1313 l 1001 1211 l 1153 1211 z m 799 690 b 1064 931 965 690 1064 806 b 799 1161 1064 1039 988 1161 b 574 1092 711 1161 635 1133 b 565 1200 567 1125 564 1161 l 424 1219 b 458 967 419 1132 431 1044 b 404 763 422 906 404 835 b 418 665 404 703 418 665 b 0 258 211 685 0 508 b 408 -150 0 33 169 -150 b 793 399 678 -150 894 90 l 608 346 b 415 44 667 210 576 44 b 213 264 288 44 213 144 b 411 472 213 389 292 472 b 576 415 511 472 576 415 l 682 572 b 601 757 674 578 604 639 b 799 690 654 715 721 690 z m 785 972 b 876 911 838 972 876 947 b 786 851 876 872 833 851 b 653 914 735 851 690 874 b 785 972 689 953 738 972 z "},"Ë":{"ha":889,"x_min":0,"x_max":0,"o":"m 757 1199 b 867 1307 817 1199 867 1247 b 757 1417 867 1368 817 1417 b 647 1307 697 1417 647 1368 b 757 1199 647 1247 697 1199 z m 1019 1199 b 1129 1307 1079 1199 1129 1247 b 1019 1417 1129 1368 1079 1417 b 910 1307 960 1417 910 1368 b 1019 1199 910 1247 960 1199 z m 799 690 b 1064 931 965 690 1064 806 b 799 1161 1064 1039 988 1161 b 574 1092 711 1161 635 1133 b 565 1200 567 1125 564 1161 l 424 1219 b 458 967 419 1132 431 1044 b 404 763 422 906 404 835 b 418 665 404 703 418 665 b 0 258 211 685 0 508 b 408 -150 0 33 169 -150 b 793 399 678 -150 894 90 l 608 346 b 415 44 667 210 576 44 b 213 264 288 44 213 144 b 411 472 213 389 292 472 b 576 415 511 472 576 415 l 682 572 b 601 757 674 578 604 639 b 799 690 654 715 721 690 z m 785 972 b 876 911 838 972 876 947 b 786 851 876 872 833 851 b 653 914 735 851 690 874 b 785 972 689 953 738 972 z "},"Ì":{"ha":879,"x_min":0,"x_max":0,"o":"m 544 357 b 244 46 467 168 374 46 b 104 176 167 46 104 106 b 260 294 104 222 129 304 l 260 478 b -85 175 50 494 -85 349 b 253 -137 -85 18 25 -137 b 719 244 399 -137 594 -72 l 992 921 b 1104 1050 1033 1022 1104 1050 l 1064 1169 b 861 1076 981 1169 911 1129 b 228 643 557 971 228 917 b 511 388 226 493 342 388 l 511 568 b 414 651 476 568 414 585 b 746 857 414 756 569 801 z m 694 1443 l 943 1228 l 1114 1228 l 928 1443 z "},"Í":{"ha":879,"x_min":0,"x_max":0,"o":"m 1074 1443 l 889 1228 l 1060 1228 l 1307 1443 z m 544 357 b 244 46 467 168 374 46 b 104 176 167 46 104 106 b 260 294 104 222 129 304 l 260 478 b -85 175 50 494 -85 349 b 253 -137 -85 18 25 -137 b 719 244 399 -137 594 -72 l 992 921 b 1104 1050 1033 1022 1104 1050 l 1064 1169 b 861 1076 981 1169 911 1129 b 228 643 557 971 228 917 b 511 388 226 493 342 388 l 511 568 b 414 651 476 568 414 585 b 746 857 414 756 569 801 z "},"Î":{"ha":879,"x_min":0,"x_max":0,"o":"m 1092 1475 l 979 1475 l 665 1229 l 858 1229 l 996 1331 l 1057 1229 l 1208 1229 z m 544 357 b 244 46 467 168 374 46 b 104 176 167 46 104 106 b 260 294 104 222 129 304 l 260 478 b -85 175 50 494 -85 349 b 253 -137 -85 18 25 -137 b 719 244 399 -137 594 -72 l 992 921 b 1104 1050 1033 1022 1104 1050 l 1064 1169 b 861 1076 981 1169 911 1129 b 228 643 557 971 228 917 b 511 388 226 493 342 388 l 511 568 b 414 651 476 568 414 585 b 746 857 414 756 569 801 z "},"Ï":{"ha":879,"x_min":0,"x_max":0,"o":"m 844 1218 b 954 1326 906 1218 954 1267 b 844 1436 954 1388 906 1436 b 736 1326 785 1436 736 1388 b 844 1218 736 1267 785 1218 z m 1107 1218 b 1217 1326 1168 1218 1217 1267 b 1107 1436 1217 1388 1168 1436 b 999 1326 1047 1436 999 1388 b 1107 1218 999 1267 1047 1218 z m 544 357 b 244 46 467 168 374 46 b 104 176 167 46 104 106 b 260 294 104 222 129 304 l 260 478 b -85 175 50 494 -85 349 b 253 -137 -85 18 25 -137 b 719 244 399 -137 594 -72 l 992 921 b 1104 1050 1033 1022 1104 1050 l 1064 1169 b 861 1076 981 1169 911 1129 b 228 643 557 971 228 917 b 511 388 226 493 342 388 l 511 568 b 414 651 476 568 414 585 b 746 857 414 756 569 801 z "},"Ð":{"ha":1365,"x_min":0,"x_max":0,"o":"m 196 383 b -42 164 25 383 -42 258 b 218 -51 -42 74 19 -51 b 493 50 331 -51 422 -11 b 789 -78 583 -26 657 -78 b 1364 651 1171 -78 1364 338 b 849 1161 1364 950 1190 1161 b 290 671 486 1161 290 918 b 354 439 290 532 354 439 l 501 549 b 469 676 501 549 469 610 b 835 990 469 810 592 990 b 1144 654 1056 990 1144 842 b 778 101 1144 406 992 101 b 599 172 710 101 653 132 b 690 354 640 238 664 296 l 800 354 l 856 493 l 746 493 b 819 674 781 581 819 674 b 932 804 860 774 932 804 l 892 922 b 617 721 753 922 656 817 l 525 493 l 453 493 l 397 354 l 468 354 b 436 294 458 333 447 314 b 196 383 342 358 271 383 z m 206 121 b 124 176 158 121 124 138 b 204 240 124 210 151 240 b 342 176 243 240 282 222 b 206 121 301 142 257 121 z "},"Ñ":{"ha":1197,"x_min":0,"x_max":0,"o":"m 883 1143 b 958 1193 904 1174 935 1193 b 1124 1140 1014 1193 1046 1140 b 1286 1258 1207 1140 1251 1206 l 1221 1332 b 1146 1283 1201 1300 1171 1283 b 981 1336 1092 1283 1058 1336 b 817 1214 897 1336 854 1268 z m 683 1072 b 0 621 363 953 0 908 b 283 365 -1 471 114 365 l 283 546 b 186 629 249 546 186 563 b 599 860 186 746 385 789 l 246 -18 l 467 -18 l 740 665 b 1010 854 819 750 957 854 b 1042 822 1028 854 1042 842 b 978 639 1042 793 1013 726 l 738 43 b 928 -337 679 -114 711 -265 l 996 -169 b 943 3 915 -128 914 -78 l 1232 722 b 1285 914 1265 806 1285 863 b 1147 1060 1285 994 1238 1060 b 832 893 1047 1060 929 981 z "},"Ò":{"ha":1010,"x_min":0,"x_max":0,"o":"m 471 1413 l 719 1197 l 890 1197 l 706 1413 z m 1036 386 b 813 246 1006 335 939 239 b 976 821 918 431 976 651 b 707 1157 976 1068 843 1157 b 475 1042 607 1157 531 1111 b 0 232 167 915 0 494 b 306 -125 0 44 85 -125 b 738 132 478 -125 625 -18 b 1114 331 918 94 1054 228 b 1036 386 1103 357 1065 383 z m 546 218 b 319 46 476 117 397 46 b 206 218 236 46 206 128 b 360 706 206 354 278 558 b 546 218 342 358 546 218 z m 533 656 b 682 935 533 836 608 935 b 764 806 733 935 764 888 b 626 351 764 700 708 513 b 533 656 568 425 533 532 z "},"Ó":{"ha":1010,"x_min":0,"x_max":0,"o":"m 801 1413 l 617 1197 l 788 1197 l 1035 1413 z m 1036 386 b 813 246 1006 335 939 239 b 976 821 918 431 976 651 b 707 1157 976 1068 843 1157 b 475 1042 607 1157 531 1111 b 0 232 167 915 0 494 b 306 -125 0 44 85 -125 b 738 132 478 -125 625 -18 b 1114 331 918 94 1054 228 b 1036 386 1103 357 1065 383 z m 546 218 b 319 46 476 117 397 46 b 206 218 236 46 206 128 b 360 706 206 354 278 558 b 546 218 342 358 546 218 z m 533 656 b 682 935 533 836 608 935 b 764 806 733 935 764 888 b 626 351 764 700 708 513 b 533 656 568 425 533 532 z "},"Ô":{"ha":1010,"x_min":0,"x_max":0,"o":"m 893 1444 l 782 1444 l 468 1199 l 661 1199 l 797 1300 l 858 1199 l 1011 1199 z m 1036 386 b 813 246 1006 335 939 239 b 976 821 918 431 976 651 b 707 1157 976 1068 843 1157 b 475 1042 607 1157 531 1111 b 0 232 167 915 0 494 b 306 -125 0 44 85 -125 b 738 132 478 -125 625 -18 b 1114 331 918 94 1054 228 b 1036 386 1103 357 1065 383 z m 546 218 b 319 46 476 117 397 46 b 206 218 236 46 206 128 b 360 706 206 354 278 558 b 546 218 342 358 546 218 z m 533 656 b 682 935 533 836 608 935 b 764 806 733 935 764 888 b 626 351 764 700 708 513 b 533 656 568 425 533 532 z "},"Õ":{"ha":1010,"x_min":0,"x_max":0,"o":"m 613 1201 b 688 1251 633 1232 664 1251 b 853 1199 743 1251 775 1199 b 1015 1317 936 1199 981 1264 l 950 1390 b 875 1342 931 1358 900 1342 b 710 1394 821 1342 788 1394 b 546 1272 626 1394 583 1326 z m 1036 386 b 813 246 1006 335 939 239 b 976 821 918 431 976 651 b 707 1157 976 1068 843 1157 b 475 1042 607 1157 531 1111 b 0 232 167 915 0 494 b 306 -125 0 44 85 -125 b 738 132 478 -125 625 -18 b 1114 331 918 94 1054 228 b 1036 386 1103 357 1065 383 z m 546 218 b 319 46 476 117 397 46 b 206 218 236 46 206 128 b 360 706 206 354 278 558 b 546 218 342 358 546 218 z m 533 656 b 682 935 533 836 608 935 b 764 806 733 935 764 888 b 626 351 764 700 708 513 b 533 656 568 425 533 532 z "},"Ö":{"ha":1010,"x_min":0,"x_max":0,"o":"m 633 1189 b 743 1296 694 1189 743 1236 b 633 1404 743 1357 694 1404 b 526 1296 575 1404 526 1357 b 633 1189 526 1236 575 1189 z m 896 1189 b 1004 1296 956 1189 1004 1236 b 896 1404 1004 1357 956 1404 b 788 1296 836 1404 788 1357 b 896 1189 788 1236 836 1189 z m 1036 386 b 813 246 1006 335 939 239 b 976 821 918 431 976 651 b 707 1157 976 1068 843 1157 b 475 1042 607 1157 531 1111 b 0 232 167 915 0 494 b 306 -125 0 44 85 -125 b 738 132 478 -125 625 -18 b 1114 331 918 94 1054 228 b 1036 386 1103 357 1065 383 z m 546 218 b 319 46 476 117 397 46 b 206 218 236 46 206 128 b 360 706 206 354 278 558 b 546 218 342 358 546 218 z m 533 656 b 682 935 533 836 608 935 b 764 806 733 935 764 888 b 626 351 764 700 708 513 b 533 656 568 425 533 532 z "},"×":{"ha":847,"x_min":0,"x_max":0,"o":"m 1035 510 l 1078 528 b 1078 553 1094 535 1094 546 l 1035 571 b 1031 601 1017 578 1017 592 l 1069 628 b 1065 654 1085 640 1083 650 l 1018 663 b 1008 692 999 665 996 679 l 1042 728 b 1031 751 1053 740 1050 751 l 982 749 b 968 776 964 747 957 761 l 993 817 b 978 836 1003 833 996 842 l 931 826 b 910 850 914 821 904 832 l 925 893 b 907 913 932 913 924 919 l 864 890 b 838 908 849 882 836 890 l 844 956 b 824 969 846 974 838 981 l 785 940 b 756 953 771 929 757 933 l 753 1001 b 729 1008 751 1019 740 1022 l 697 972 b 667 979 685 957 672 961 l 653 1025 b 628 1026 649 1042 636 1043 l 604 985 b 594 974 603 979 600 976 b 608 954 593 965 596 960 l 651 936 b 651 911 671 929 671 917 l 608 892 b 604 860 592 885 590 872 l 644 833 b 640 810 660 824 657 813 l 593 801 b 576 781 579 799 572 789 b 700 469 650 743 700 608 l 719 497 b 647 721 713 586 688 668 b 728 513 688 678 717 599 b 768 631 747 547 757 586 b 688 711 717 636 688 664 b 771 792 688 758 729 792 b 860 699 824 792 860 751 b 474 256 860 519 674 256 b 346 346 392 256 346 293 b 411 421 346 389 374 421 b 482 353 457 421 482 390 b 504 326 482 338 489 328 l 504 336 b 492 374 504 350 501 363 b 514 325 507 361 514 344 l 519 325 b 583 350 560 325 572 336 b 515 635 583 433 551 565 l 506 636 b 486 614 489 642 479 631 l 501 568 b 482 551 507 551 499 543 l 439 571 b 414 553 424 579 411 571 l 419 506 b 399 493 424 488 414 482 l 360 522 b 331 510 346 533 333 528 l 328 463 b 304 454 326 444 317 440 l 272 490 b 242 485 261 504 247 501 l 229 438 b 204 435 224 421 213 418 l 182 478 b 157 486 175 489 165 493 b 149 478 156 485 153 481 l 110 450 b 115 425 94 440 96 429 l 161 417 b 172 386 181 414 183 400 l 138 353 b 149 329 126 340 129 329 l 197 332 b 213 304 215 332 222 319 l 186 263 b 201 242 176 247 183 239 l 249 254 b 269 231 265 260 276 247 l 254 185 b 272 168 247 168 256 160 l 314 189 b 342 169 331 197 343 189 l 335 124 b 357 111 331 104 342 100 l 393 140 b 424 126 408 151 422 144 l 426 79 b 450 71 429 61 439 58 l 482 108 b 513 101 494 121 507 119 l 526 56 b 551 53 531 38 543 38 l 572 94 b 604 94 583 111 596 111 l 628 53 b 653 56 636 38 649 38 l 667 101 b 697 108 672 119 685 121 l 729 71 b 753 79 740 58 751 61 l 756 126 b 785 140 757 144 771 151 l 824 111 b 844 124 838 100 846 104 l 838 169 b 864 189 836 189 849 197 l 907 168 b 925 185 924 160 932 168 l 910 231 b 931 254 904 247 914 260 l 978 242 b 993 263 996 239 1003 247 l 968 304 b 982 332 957 319 964 332 l 1031 329 b 1042 353 1050 329 1053 340 l 1008 386 b 1018 417 996 400 999 414 l 1065 425 b 1069 450 1083 429 1085 440 l 1031 478 b 1035 510 1017 488 1017 503 z m 506 228 b 422 246 471 228 442 233 b 490 233 440 238 464 233 b 763 390 593 233 690 301 b 881 682 833 479 881 590 b 864 739 881 704 875 722 b 892 671 882 722 892 697 b 506 228 892 490 706 228 z "},"Ø":{"ha":1010,"x_min":0,"x_max":0,"o":"m 1036 386 b 813 246 1006 335 939 239 b 976 821 918 431 976 651 b 764 1151 976 1038 875 1129 l 800 1242 l 701 1242 l 667 1154 b 475 1042 588 1144 522 1101 b 0 232 167 915 0 494 b 163 -93 0 89 50 -37 l 103 -240 l 201 -240 l 249 -121 b 738 132 444 -147 614 -35 b 1114 331 918 94 1068 228 b 1036 386 1103 357 1065 383 z m 546 218 b 319 46 476 117 397 46 b 206 218 236 46 206 128 b 360 706 206 354 278 558 b 546 218 342 358 546 218 z m 533 656 b 682 935 533 836 608 935 b 764 806 733 935 764 888 b 626 351 764 700 708 513 b 533 656 568 425 533 532 z "},"Ù":{"ha":1242,"x_min":0,"x_max":0,"o":"m 797 1354 l 1046 1139 l 1217 1139 l 1032 1354 z m 1268 386 b 1043 142 1171 219 1107 142 b 1036 301 1014 142 982 160 l 1318 1008 l 1097 1008 l 854 400 b 560 142 788 272 640 142 b 575 335 544 142 500 146 l 782 847 b 894 978 824 950 894 978 l 854 1097 b 635 985 760 1097 683 1047 b 0 551 329 879 0 824 b 283 294 -1 401 114 294 l 283 476 b 186 560 249 476 186 492 b 529 768 186 665 347 710 l 369 372 b 479 -53 250 82 331 -53 b 797 149 606 -53 715 47 b 951 -18 785 25 869 -18 b 1346 331 1113 -18 1240 146 b 1268 386 1335 357 1297 383 z "},"Ú":{"ha":1242,"x_min":0,"x_max":0,"o":"m 1104 1354 l 919 1139 l 1090 1139 l 1339 1354 z m 1268 386 b 1043 142 1171 219 1107 142 b 1036 301 1014 142 982 160 l 1318 1008 l 1097 1008 l 854 400 b 560 142 788 272 640 142 b 575 335 544 142 500 146 l 782 847 b 894 978 824 950 894 978 l 854 1097 b 635 985 760 1097 683 1047 b 0 551 329 879 0 824 b 283 294 -1 401 114 294 l 283 476 b 186 560 249 476 186 492 b 529 768 186 665 347 710 l 369 372 b 479 -53 250 82 331 -53 b 797 149 606 -53 715 47 b 951 -18 785 25 869 -18 b 1346 331 1113 -18 1240 146 b 1268 386 1335 357 1297 383 z "},"Û":{"ha":1242,"x_min":0,"x_max":0,"o":"m 1185 1386 l 1074 1386 l 760 1140 l 953 1140 l 1090 1242 l 1151 1140 l 1303 1140 z m 1268 386 b 1043 142 1171 219 1107 142 b 1036 301 1014 142 982 160 l 1318 1008 l 1097 1008 l 854 400 b 560 142 788 272 640 142 b 575 335 544 142 500 146 l 782 847 b 894 978 824 950 894 978 l 854 1097 b 635 985 760 1097 683 1047 b 0 551 329 879 0 824 b 283 294 -1 401 114 294 l 283 476 b 186 560 249 476 186 492 b 529 768 186 665 347 710 l 369 372 b 479 -53 250 82 331 -53 b 797 149 606 -53 715 47 b 951 -18 785 25 869 -18 b 1346 331 1113 -18 1240 146 b 1268 386 1335 357 1297 383 z "},"Ü":{"ha":1242,"x_min":0,"x_max":0,"o":"m 913 1129 b 1022 1238 974 1129 1022 1178 b 913 1347 1022 1299 974 1347 b 804 1238 853 1347 804 1299 b 913 1129 804 1178 853 1129 z m 1175 1129 b 1285 1238 1236 1129 1285 1178 b 1175 1347 1285 1299 1236 1347 b 1067 1238 1115 1347 1067 1299 b 1175 1129 1067 1178 1115 1129 z m 1268 386 b 1043 142 1171 219 1107 142 b 1036 301 1014 142 982 160 l 1318 1008 l 1097 1008 l 854 400 b 560 142 788 272 640 142 b 575 335 544 142 500 146 l 782 847 b 894 978 824 950 894 978 l 854 1097 b 635 985 760 1097 683 1047 b 0 551 329 879 0 824 b 283 294 -1 401 114 294 l 283 476 b 186 560 249 476 186 492 b 529 768 186 665 347 710 l 369 372 b 479 -53 250 82 331 -53 b 797 149 606 -53 715 47 b 951 -18 785 25 869 -18 b 1346 331 1113 -18 1240 146 b 1268 386 1335 357 1297 383 z "},"Ý":{"ha":1201,"x_min":0,"x_max":0,"o":"m 1101 1356 l 917 1140 l 1088 1140 l 1336 1356 z m 1228 386 b 950 94 1156 257 1067 167 l 1319 1008 l 1099 1008 l 854 400 b 560 142 788 276 643 142 b 575 335 542 142 501 149 l 782 847 b 894 978 824 950 894 978 l 854 1097 b 635 985 760 1097 683 1047 b 0 551 329 879 0 825 b 283 294 -1 401 114 294 l 283 476 b 186 560 249 476 186 492 b 531 768 186 665 347 710 l 369 372 b 476 -53 250 83 332 -53 b 721 69 564 -53 650 0 l 675 -43 b 511 -114 613 -71 550 -94 b 333 -324 438 -147 335 -210 b 524 -506 333 -401 379 -506 b 883 -72 754 -506 818 -232 b 1306 331 1043 11 1178 110 b 1228 386 1294 357 1257 383 z m 499 -351 b 460 -317 482 -351 460 -343 b 529 -231 460 -282 494 -250 b 617 -189 549 -218 579 -206 b 499 -351 569 -303 536 -351 z "},"Þ":{"ha":1072,"x_min":0,"x_max":0,"o":"m 829 1065 l 789 1185 b 517 988 651 1185 557 1082 b 1 492 149 967 1 685 b 69 257 1 361 69 257 l 217 367 b 185 494 217 367 185 428 b 440 799 185 606 274 751 l 113 -18 l 332 -18 l 403 161 b 1047 563 776 7 1047 274 b 732 968 1047 732 951 910 b 829 1065 772 1042 829 1065 z m 838 561 b 460 301 838 347 624 210 l 663 804 b 838 561 796 765 838 654 z "},"ß":{"ha":799,"x_min":0,"x_max":0,"o":"m 825 386 b 667 182 772 293 719 232 b 703 332 668 183 703 251 b 600 525 703 422 661 488 b 811 825 697 574 811 697 b 579 1010 811 908 764 1010 b 92 551 294 1010 179 764 l -181 -125 l 40 -125 l 325 581 b 540 843 369 694 440 843 b 583 804 576 843 583 822 b 389 588 583 744 529 625 l 336 451 b 499 311 442 451 499 394 b 318 93 499 224 433 93 b 221 132 263 93 221 132 l 150 68 b 379 -18 150 68 224 -18 b 903 331 653 -18 797 146 b 825 386 892 357 854 383 z "},"à":{"ha":826,"x_min":0,"x_max":0,"o":"m 293 1007 l 540 792 l 711 792 l 526 1007 z m 853 386 b 603 118 753 215 658 118 b 617 296 578 118 554 139 l 789 721 l 529 626 b 364 739 529 626 499 739 b -19 164 99 739 -19 313 b 138 -18 -19 64 33 -18 b 356 97 260 -18 356 97 b 518 -18 356 97 374 -18 b 931 331 688 -18 822 142 b 853 386 919 357 882 383 z m 240 158 b 196 210 213 158 196 174 b 408 558 196 299 299 558 b 471 481 469 558 471 481 l 381 258 b 240 158 381 258 317 158 z "},"á":{"ha":826,"x_min":0,"x_max":0,"o":"m 535 1007 l 349 792 l 519 792 l 768 1007 z m 853 386 b 603 118 753 215 658 118 b 617 296 578 118 554 139 l 789 721 l 529 626 b 364 739 529 626 499 739 b -19 164 99 739 -19 313 b 138 -18 -19 64 33 -18 b 356 97 260 -18 356 97 b 518 -18 356 97 374 -18 b 931 331 688 -18 822 142 b 853 386 919 357 882 383 z m 240 158 b 196 210 213 158 196 174 b 408 558 196 299 299 558 b 471 481 469 558 471 481 l 381 258 b 240 158 381 258 317 158 z "},"â":{"ha":826,"x_min":0,"x_max":0,"o":"m 660 1024 l 547 1024 l 233 778 l 426 778 l 564 879 l 625 778 l 776 778 z m 853 386 b 603 118 753 215 658 118 b 617 296 578 118 554 139 l 789 721 l 529 626 b 364 739 529 626 499 739 b -19 164 99 739 -19 313 b 138 -18 -19 64 33 -18 b 356 97 260 -18 356 97 b 518 -18 356 97 374 -18 b 931 331 688 -18 822 142 b 853 386 919 357 882 383 z m 240 158 b 196 210 213 158 196 174 b 408 558 196 299 299 558 b 471 481 469 558 471 481 l 381 258 b 240 158 381 258 317 158 z "},"ã":{"ha":826,"x_min":0,"x_max":0,"o":"m 399 822 b 474 872 419 853 450 872 b 639 819 529 872 561 819 b 803 938 722 819 767 885 l 736 1011 b 661 963 717 979 686 963 b 496 1015 607 963 574 1015 b 332 893 413 1015 369 947 z m 853 386 b 603 118 753 215 658 118 b 617 296 578 118 554 139 l 789 721 l 529 626 b 364 739 529 626 499 739 b -19 164 99 739 -19 313 b 138 -18 -19 64 33 -18 b 356 97 260 -18 356 97 b 518 -18 356 97 374 -18 b 931 331 688 -18 822 142 b 853 386 919 357 882 383 z m 240 158 b 196 210 213 158 196 174 b 408 558 196 299 299 558 b 471 481 469 558 471 481 l 381 258 b 240 158 381 258 317 158 z "},"ä":{"ha":826,"x_min":0,"x_max":0,"o":"m 415 796 b 525 904 476 796 525 844 b 415 1014 525 965 476 1014 b 307 904 356 1014 307 965 b 415 796 307 844 356 796 z m 678 796 b 788 904 739 796 788 844 b 678 1014 788 965 739 1014 b 569 904 618 1014 569 965 b 678 796 569 844 618 796 z m 853 386 b 603 118 753 215 658 118 b 617 296 578 118 554 139 l 789 721 l 529 626 b 364 739 529 626 499 739 b -19 164 99 739 -19 313 b 138 -18 -19 64 33 -18 b 356 97 260 -18 356 97 b 518 -18 356 97 374 -18 b 931 331 688 -18 822 142 b 853 386 919 357 882 383 z m 240 158 b 196 210 213 158 196 174 b 408 558 196 299 299 558 b 471 481 469 558 471 481 l 381 258 b 240 158 381 258 317 158 z "},"å":{"ha":826,"x_min":0,"x_max":0,"o":"m 581 1151 b 392 963 476 1151 392 1068 b 581 774 392 858 476 774 b 771 963 686 774 771 858 b 581 1151 771 1068 686 1151 z m 581 892 b 510 963 542 892 510 924 b 581 1033 510 1001 542 1033 b 651 963 619 1033 651 1001 b 581 892 651 924 619 892 z m 853 386 b 603 118 753 215 658 118 b 617 296 578 118 554 139 l 789 721 l 529 626 b 364 739 529 626 499 739 b -19 164 99 739 -19 313 b 138 -18 -19 64 33 -18 b 356 97 260 -18 356 97 b 518 -18 356 97 374 -18 b 931 331 688 -18 822 142 b 853 386 919 357 882 383 z m 240 158 b 196 210 213 158 196 174 b 408 558 196 299 299 558 b 471 481 469 558 471 481 l 381 258 b 240 158 381 258 317 158 z "},"æ":{"ha":1121,"x_min":0,"x_max":0,"o":"m 1147 386 b 757 118 1049 211 899 118 b 621 263 581 118 621 263 b 1046 436 878 229 989 310 b 846 739 1136 636 1003 739 b 611 657 751 739 674 707 l 529 626 b 364 739 529 626 499 739 b -19 164 99 739 -19 313 b 138 -18 -19 64 33 -18 b 425 129 296 -18 407 108 b 694 -18 460 35 549 -18 b 1225 331 961 -18 1131 164 b 1147 386 1214 357 1176 383 z m 240 158 b 196 210 213 158 196 174 b 408 558 196 299 299 558 b 471 481 469 558 471 481 l 381 258 b 240 158 381 258 317 158 z m 835 563 b 856 483 882 563 874 525 b 658 382 828 418 785 360 b 835 563 658 382 732 563 z "},"ç":{"ha":711,"x_min":0,"x_max":0,"o":"m 90 -144 b 178 -171 142 -139 178 -139 b 67 -185 178 -214 106 -206 l 4 -281 b 347 -160 110 -346 347 -319 b 272 -68 347 -106 318 -82 l 299 -18 b 815 331 556 -11 722 167 b 738 386 804 357 767 383 b 349 118 639 211 489 118 b 207 222 299 118 207 132 b 424 564 207 315 304 564 b 383 365 468 564 463 528 l 604 365 b 433 739 722 600 631 739 b -1 228 140 739 -1 414 b 167 -3 -1 111 54 28 z "},"è":{"ha":710,"x_min":0,"x_max":0,"o":"m 736 386 b 346 118 638 211 488 118 b 210 263 169 118 210 263 b 636 436 467 229 578 310 b 435 739 725 636 592 739 b -3 228 138 739 -3 413 b 283 -18 -3 76 90 -18 b 814 331 550 -18 719 164 b 736 386 803 357 765 383 z m 424 563 b 444 483 471 563 463 525 b 247 382 417 418 375 360 b 424 563 247 382 321 563 z m 214 1007 l 463 792 l 633 792 l 449 1007 z "},"é":{"ha":710,"x_min":0,"x_max":0,"o":"m 736 386 b 346 118 638 211 488 118 b 210 263 169 118 210 263 b 636 436 467 229 578 310 b 435 739 725 636 592 739 b -3 228 138 739 -3 413 b 283 -18 -3 76 90 -18 b 814 331 550 -18 719 164 b 736 386 803 357 765 383 z m 424 563 b 444 483 471 563 463 525 b 247 382 417 418 375 360 b 424 563 247 382 321 563 z m 515 1007 l 331 792 l 501 792 l 749 1007 z "},"ê":{"ha":710,"x_min":0,"x_max":0,"o":"m 736 386 b 346 118 638 211 488 118 b 210 263 169 118 210 263 b 636 436 467 229 578 310 b 435 739 725 636 592 739 b -3 228 138 739 -3 413 b 283 -18 -3 76 90 -18 b 814 331 550 -18 719 164 b 736 386 803 357 765 383 z m 424 563 b 444 483 471 563 463 525 b 247 382 417 418 375 360 b 424 563 247 382 321 563 z m 619 1024 l 508 1024 l 193 778 l 388 778 l 524 879 l 585 778 l 736 778 z "},"ë":{"ha":710,"x_min":0,"x_max":0,"o":"m 736 386 b 346 118 638 211 488 118 b 210 263 169 118 210 263 b 636 436 467 229 578 310 b 435 739 725 636 592 739 b -3 228 138 739 -3 413 b 283 -18 -3 76 90 -18 b 814 331 550 -18 719 164 b 736 386 803 357 765 383 z m 424 563 b 444 483 471 563 463 525 b 247 382 417 418 375 360 b 424 563 247 382 321 563 z m 371 796 b 481 904 432 796 481 844 b 371 1014 481 965 432 1014 b 263 904 311 1014 263 965 b 371 796 263 844 311 796 z m 633 796 b 743 904 694 796 743 844 b 633 1014 743 965 694 1014 b 525 904 574 1014 525 965 b 633 796 525 844 574 796 z "},"ì":{"ha":418,"x_min":0,"x_max":0,"o":"m 444 386 b 194 118 346 215 250 118 b 210 296 171 118 144 136 l 381 721 l 160 721 l 3 333 b 117 -18 -99 83 -10 -18 b 522 331 276 -18 415 143 b 444 386 511 357 474 383 z m 8 1007 l 257 792 l 426 792 l 242 1007 z "},"í":{"ha":418,"x_min":0,"x_max":0,"o":"m 444 386 b 194 118 346 215 250 118 b 210 296 171 118 144 136 l 381 721 l 160 721 l 3 333 b 117 -18 -99 83 -10 -18 b 522 331 276 -18 415 143 b 444 386 511 357 474 383 z m 369 1007 l 185 792 l 354 792 l 603 1007 z "},"î":{"ha":418,"x_min":0,"x_max":0,"o":"m 444 386 b 194 118 346 215 250 118 b 210 296 171 118 144 136 l 381 721 l 160 721 l 3 333 b 117 -18 -99 83 -10 -18 b 522 331 276 -18 415 143 b 444 386 511 357 474 383 z m 432 1024 l 321 1024 l 6 778 l 200 778 l 336 879 l 397 778 l 549 778 z "},"ï":{"ha":418,"x_min":0,"x_max":0,"o":"m 444 386 b 194 118 346 215 250 118 b 210 296 171 118 144 136 l 381 721 l 160 721 l 3 333 b 117 -18 -99 83 -10 -18 b 522 331 276 -18 415 143 b 444 386 511 357 474 383 z m 182 796 b 292 904 243 796 292 844 b 182 1014 292 965 243 1014 b 74 904 122 1014 74 965 b 182 796 74 844 122 796 z m 444 796 b 554 904 506 796 554 844 b 444 1014 554 965 506 1014 b 336 904 385 1014 336 965 b 444 796 336 844 385 796 z "},"ð":{"ha":729,"x_min":0,"x_max":0,"o":"m 446 1078 l 389 996 b 182 1006 389 996 299 1024 l 206 874 b 303 869 264 879 303 869 l 254 796 l 338 742 l 397 828 b 475 679 397 828 463 783 b 415 688 475 679 451 688 b -12 208 117 688 -12 376 b 238 -18 -12 58 97 -18 b 690 571 538 -18 689 326 b 485 957 690 860 485 957 l 529 1022 z m 256 125 b 207 200 219 125 207 154 b 403 544 207 329 303 544 b 453 467 439 544 453 517 b 256 125 453 340 356 125 z "},"ñ":{"ha":813,"x_min":0,"x_max":0,"o":"m 839 386 b 589 118 740 215 644 118 b 603 296 565 118 539 136 l 671 461 b 713 618 700 533 713 581 b 579 739 713 692 667 739 b 351 647 461 739 358 654 l 160 721 l -132 0 l 89 0 l 276 463 b 432 561 335 529 399 561 b 469 531 453 561 469 550 b 421 390 469 510 447 457 l 400 339 b 506 -18 301 93 361 -18 b 917 331 672 -18 806 138 b 839 386 906 357 868 383 z m 299 822 b 374 872 319 853 350 872 b 539 819 429 872 461 819 b 701 938 622 819 665 885 l 636 1011 b 561 963 617 979 586 963 b 396 1015 507 963 474 1015 b 232 893 313 1015 268 947 z "}}}
